<svg width="321" height="104" viewBox="0 0 321 104" fill="none" xmlns="http://www.w3.org/2000/svg">
<path d="M99.5345 68.8616L96.5669 59.1598H81.7289L78.7613 68.8616H69.459L83.8404 27.943H94.3982L108.837 68.8616H99.5345ZM94.5124 51.912L91.5448 42.4385C91.3545 41.7917 91.1072 40.9738 90.8029 39.9846C90.4985 38.9954 90.1941 37.9871 89.8898 36.9599C89.5854 35.9326 89.3381 35.0386 89.1479 34.2776C88.9576 35.0386 88.6913 35.9897 88.3489 37.1311C88.0445 38.2344 87.7402 39.2997 87.4358 40.327C87.1695 41.3162 86.9602 42.02 86.808 42.4385L83.8975 51.912H94.5124ZM125.868 28.1142C131.423 28.1142 135.513 29.1224 138.138 31.1388C140.801 33.1553 142.133 36.218 142.133 40.327C142.133 42.1912 141.771 43.8272 141.048 45.2349C140.363 46.6046 139.431 47.784 138.252 48.7732C137.111 49.7244 135.874 50.5043 134.542 51.1131L146.527 68.8616H136.939L127.238 53.2246H122.615V68.8616H113.997V28.1142H125.868ZM125.24 35.1907H122.615V46.2051H125.411C128.265 46.2051 130.3 45.7295 131.518 44.7784C132.773 43.8272 133.401 42.4195 133.401 40.5552C133.401 38.6149 132.735 37.2452 131.404 36.4463C130.072 35.6093 128.017 35.1907 125.24 35.1907ZM178.209 68.8616H147.906V63.2688L167.423 35.2478H148.419V28.1142H177.696V33.7069L158.178 61.7279H178.209V68.8616ZM210.345 68.8616H181.867V62.8693L192.083 52.5398C194.137 50.4092 195.792 48.6401 197.048 47.2323C198.303 45.7866 199.217 44.493 199.787 43.3516C200.358 42.1722 200.643 40.9167 200.643 39.5851C200.643 37.9491 200.187 36.7316 199.274 35.9326C198.399 35.1337 197.2 34.7342 195.678 34.7342C194.118 34.7342 192.596 35.0956 191.113 35.8185C189.629 36.5414 188.069 37.5686 186.433 38.9002L181.753 33.3645C182.895 32.3753 184.131 31.4432 185.463 30.5681C186.794 29.655 188.316 28.9322 190.028 28.3995C191.778 27.8288 193.871 27.5435 196.306 27.5435C198.969 27.5435 201.252 28.0381 203.154 29.0273C205.095 29.9784 206.578 31.291 207.606 32.965C208.671 34.601 209.204 36.4653 209.204 38.5578C209.204 40.8025 208.747 42.857 207.834 44.7213C206.959 46.5856 205.665 48.4308 203.953 50.257C202.279 52.0832 200.244 54.0997 197.847 56.3063L192.596 61.2143V61.6138H210.345V68.8616ZM242.319 68.8616L239.351 59.1598H224.513L221.546 68.8616H212.243L226.625 27.943H237.183L251.621 68.8616H242.319ZM237.297 51.912L234.329 42.4385C234.139 41.7917 233.892 40.9738 233.587 39.9846C233.283 38.9954 232.979 37.9871 232.674 36.9599C232.37 35.9326 232.123 35.0386 231.932 34.2776C231.742 35.0386 231.476 35.9897 231.133 37.1311C230.829 38.2344 230.525 39.2997 230.22 40.327C229.954 41.3162 229.745 42.02 229.592 42.4385L226.682 51.912H237.297ZM268.652 28.1142C274.207 28.1142 278.297 29.1224 280.922 31.1388C283.585 33.1553 284.917 36.218 284.917 40.327C284.917 42.1912 284.556 43.8272 283.833 45.2349C283.148 46.6046 282.216 47.784 281.036 48.7732C279.895 49.7244 278.658 50.5043 277.327 51.1131L289.311 68.8616H279.724L270.022 53.2246H265.399V68.8616H256.782V28.1142H268.652ZM268.025 35.1907H265.399V46.2051H268.196C271.049 46.2051 273.085 45.7295 274.302 44.7784C275.558 43.8272 276.185 42.4195 276.185 40.5552C276.185 38.6149 275.52 37.2452 274.188 36.4463C272.856 35.6093 270.802 35.1907 268.025 35.1907ZM320.994 68.8616H290.69V63.2688L310.208 35.2478H291.204V28.1142H320.48V33.7069L300.962 61.7279H320.994V68.8616Z" fill="#00BABA"/>
<path d="M97.2826 75.5812C96.4848 75.5812 95.875 75.8792 95.4532 76.4753C95.0314 77.0713 94.8205 77.8874 94.8205 78.9237C94.8205 79.969 95.0131 80.7806 95.3982 81.3583C95.7925 81.9268 96.4207 82.2111 97.2826 82.2111C97.6769 82.2111 98.0758 82.1652 98.4793 82.0735C98.8828 81.9818 99.3184 81.8534 99.786 81.6884V83.4353C99.355 83.6095 98.9286 83.7379 98.5068 83.8204C98.085 83.9029 97.6127 83.9442 97.0901 83.9442C96.0722 83.9442 95.2377 83.7379 94.5867 83.3252C93.9356 82.9034 93.4542 82.3165 93.1424 81.5646C92.8306 80.8035 92.6747 79.9186 92.6747 78.9099C92.6747 77.9195 92.8536 77.0438 93.2112 76.2827C93.5688 75.5216 94.0869 74.9256 94.7655 74.4946C95.4532 74.0636 96.2923 73.8481 97.2826 73.8481C97.7686 73.8481 98.2546 73.9123 98.7406 74.0407C99.2358 74.1599 99.7081 74.3249 100.157 74.5358L99.4834 76.2277C99.1166 76.0535 98.7452 75.9022 98.3693 75.7738C98.0025 75.6454 97.6403 75.5812 97.2826 75.5812ZM104.734 73.9856C106.073 73.9856 107.058 74.2286 107.691 74.7147C108.333 75.2007 108.654 75.9388 108.654 76.9292C108.654 77.3785 108.567 77.7728 108.393 78.1121C108.228 78.4422 108.003 78.7265 107.719 78.9649C107.444 79.1942 107.146 79.3821 106.825 79.5289L109.713 83.8066H107.402L105.064 80.0378H103.95V83.8066H101.873V73.9856H104.734ZM104.583 75.6912H103.95V78.3459H104.624C105.312 78.3459 105.802 78.2313 106.096 78.0021C106.398 77.7728 106.55 77.4335 106.55 76.9842C106.55 76.5165 106.389 76.1864 106.068 75.9939C105.747 75.7921 105.252 75.6912 104.583 75.6912ZM114.007 78.0296L116.056 73.9856H118.298L115.038 79.9828V83.8066H112.975V80.0516L109.715 73.9856H111.971L114.007 78.0296ZM122.673 73.9856C123.938 73.9856 124.86 74.2607 125.438 74.8109C126.024 75.352 126.318 76.0993 126.318 77.053C126.318 77.6307 126.199 78.1671 125.96 78.6623C125.722 79.1575 125.323 79.5564 124.764 79.859C124.213 80.1616 123.461 80.3129 122.508 80.3129H121.614V83.8066H119.537V73.9856H122.673ZM122.563 75.6912H121.614V78.6073H122.301C122.888 78.6073 123.351 78.4927 123.691 78.2634C124.039 78.025 124.213 77.6444 124.213 77.1218C124.213 76.1681 123.663 75.6912 122.563 75.6912ZM131.956 83.8066H129.879V75.7188H127.211V73.9856H134.625V75.7188H131.956V83.8066ZM144.784 78.8824C144.784 79.9002 144.614 80.7897 144.275 81.5508C143.945 82.3028 143.431 82.8896 142.734 83.3115C142.047 83.7333 141.171 83.9442 140.107 83.9442C139.043 83.9442 138.163 83.7333 137.466 83.3115C136.778 82.8896 136.265 82.2982 135.926 81.5371C135.596 80.776 135.43 79.8865 135.43 78.8686C135.43 77.8508 135.596 76.9659 135.926 76.2139C136.265 75.462 136.778 74.8797 137.466 74.4671C138.163 74.0452 139.048 73.8343 140.121 73.8343C141.185 73.8343 142.06 74.0452 142.748 74.4671C143.436 74.8797 143.945 75.4666 144.275 76.2277C144.614 76.9796 144.784 77.8645 144.784 78.8824ZM137.617 78.8824C137.617 79.9094 137.815 80.721 138.209 81.317C138.603 81.9039 139.236 82.1973 140.107 82.1973C140.997 82.1973 141.634 81.9039 142.019 81.317C142.404 80.721 142.597 79.9094 142.597 78.8824C142.597 77.8554 142.404 77.0484 142.019 76.4615C141.634 75.8655 141.001 75.5675 140.121 75.5675C139.241 75.5675 138.603 75.8655 138.209 76.4615C137.815 77.0484 137.617 77.8554 137.617 78.8824ZM150.986 75.5812C150.188 75.5812 149.578 75.8792 149.156 76.4753C148.735 77.0713 148.524 77.8874 148.524 78.9237C148.524 79.969 148.716 80.7806 149.101 81.3583C149.496 81.9268 150.124 82.2111 150.986 82.2111C151.38 82.2111 151.779 82.1652 152.183 82.0735C152.586 81.9818 153.022 81.8534 153.489 81.6884V83.4353C153.058 83.6095 152.632 83.7379 152.21 83.8204C151.788 83.9029 151.316 83.9442 150.793 83.9442C149.775 83.9442 148.941 83.7379 148.29 83.3252C147.639 82.9034 147.157 82.3165 146.846 81.5646C146.534 80.8035 146.378 79.9186 146.378 78.9099C146.378 77.9195 146.557 77.0438 146.914 76.2827C147.272 75.5216 147.79 74.9256 148.469 74.4946C149.156 74.0636 149.995 73.8481 150.986 73.8481C151.472 73.8481 151.958 73.9123 152.444 74.0407C152.939 74.1599 153.411 74.3249 153.861 74.5358L153.187 76.2277C152.82 76.0535 152.448 75.9022 152.072 75.7738C151.706 75.6454 151.343 75.5812 150.986 75.5812ZM163.568 73.9856V80.3404C163.568 81.019 163.416 81.6334 163.114 82.1836C162.82 82.7246 162.371 83.1556 161.766 83.4765C161.161 83.7883 160.404 83.9442 159.496 83.9442C158.194 83.9442 157.204 83.6141 156.525 82.9538C155.847 82.2844 155.507 81.4041 155.507 80.3129V73.9856H157.584V79.9965C157.584 80.8127 157.749 81.3858 158.079 81.7159C158.41 82.0368 158.9 82.1973 159.551 82.1973C160.23 82.1973 160.72 82.0185 161.023 81.6609C161.335 81.3032 161.491 80.7439 161.491 79.9828V73.9856H163.568ZM168.834 73.9856C170.173 73.9856 171.158 74.2286 171.791 74.7147C172.433 75.2007 172.754 75.9388 172.754 76.9292C172.754 77.3785 172.667 77.7728 172.493 78.1121C172.328 78.4422 172.103 78.7265 171.819 78.9649C171.544 79.1942 171.246 79.3821 170.925 79.5289L173.813 83.8066H171.502L169.164 80.0378H168.05V83.8066H165.973V73.9856H168.834ZM168.683 75.6912H168.05V78.3459H168.724C169.412 78.3459 169.902 78.2313 170.196 78.0021C170.498 77.7728 170.65 77.4335 170.65 76.9842C170.65 76.5165 170.489 76.1864 170.168 75.9939C169.847 75.7921 169.352 75.6912 168.683 75.6912ZM177.914 73.9856C179.253 73.9856 180.239 74.2286 180.872 74.7147C181.513 75.2007 181.834 75.9388 181.834 76.9292C181.834 77.3785 181.747 77.7728 181.573 78.1121C181.408 78.4422 181.183 78.7265 180.899 78.9649C180.624 79.1942 180.326 79.3821 180.005 79.5289L182.894 83.8066H180.583L178.244 80.0378H177.13V83.8066H175.053V73.9856H177.914ZM177.763 75.6912H177.13V78.3459H177.804C178.492 78.3459 178.983 78.2313 179.276 78.0021C179.579 77.7728 179.73 77.4335 179.73 76.9842C179.73 76.5165 179.569 76.1864 179.249 75.9939C178.928 75.7921 178.432 75.6912 177.763 75.6912ZM189.787 83.8066H184.134V73.9856H189.787V75.6912H186.211V77.8508H189.539V79.5564H186.211V82.0873H189.787V83.8066ZM200.537 83.8066H197.896L193.619 76.379H193.564C193.582 76.8467 193.6 77.3143 193.619 77.782C193.646 78.2497 193.669 78.7173 193.687 79.185V83.8066H191.83V73.9856H194.458L198.722 81.3445H198.763C198.745 80.8952 198.726 80.4459 198.708 79.9965C198.69 79.5472 198.676 79.0933 198.667 78.6348V73.9856H200.537V83.8066ZM207.188 75.5812C206.39 75.5812 205.78 75.8792 205.358 76.4753C204.936 77.0713 204.725 77.8874 204.725 78.9237C204.725 79.969 204.918 80.7806 205.303 81.3583C205.697 81.9268 206.326 82.2111 207.188 82.2111C207.582 82.2111 207.981 82.1652 208.384 82.0735C208.788 81.9818 209.223 81.8534 209.691 81.6884V83.4353C209.26 83.6095 208.834 83.7379 208.412 83.8204C207.99 83.9029 207.518 83.9442 206.995 83.9442C205.977 83.9442 205.143 83.7379 204.492 83.3252C203.84 82.9034 203.359 82.3165 203.047 81.5646C202.736 80.8035 202.58 79.9186 202.58 78.9099C202.58 77.9195 202.758 77.0438 203.116 76.2827C203.474 75.5216 203.992 74.9256 204.67 74.4946C205.358 74.0636 206.197 73.8481 207.188 73.8481C207.674 73.8481 208.16 73.9123 208.646 74.0407C209.141 74.1599 209.613 74.3249 210.062 74.5358L209.388 76.2277C209.021 76.0535 208.65 75.9022 208.274 75.7738C207.907 75.6454 207.545 75.5812 207.188 75.5812ZM214.831 78.0296L216.881 73.9856H219.123L215.863 79.9828V83.8066H213.8V80.0516L210.54 73.9856H212.796L214.831 78.0296ZM229.587 83.8066H223.934V73.9856H229.587V75.6912H226.011V77.8508H229.34V79.5564H226.011V82.0873H229.587V83.8066ZM239.568 83.8066H237.188L234.905 80.0928L232.621 83.8066H230.393L233.653 78.7448L230.599 73.9856H232.896L235.015 77.5207L237.092 73.9856H239.334L236.253 78.8549L239.568 83.8066ZM244.705 75.5812C243.907 75.5812 243.297 75.8792 242.875 76.4753C242.453 77.0713 242.242 77.8874 242.242 78.9237C242.242 79.969 242.435 80.7806 242.82 81.3583C243.214 81.9268 243.843 82.2111 244.705 82.2111C245.099 82.2111 245.498 82.1652 245.901 82.0735C246.305 81.9818 246.74 81.8534 247.208 81.6884V83.4353C246.777 83.6095 246.351 83.7379 245.929 83.8204C245.507 83.9029 245.035 83.9442 244.512 83.9442C243.494 83.9442 242.66 83.7379 242.009 83.3252C241.358 82.9034 240.876 82.3165 240.564 81.5646C240.253 80.8035 240.097 79.9186 240.097 78.9099C240.097 77.9195 240.275 77.0438 240.633 76.2827C240.991 75.5216 241.509 74.9256 242.187 74.4946C242.875 74.0636 243.714 73.8481 244.705 73.8481C245.191 73.8481 245.677 73.9123 246.163 74.0407C246.658 74.1599 247.13 74.3249 247.579 74.5358L246.905 76.2277C246.539 76.0535 246.167 75.9022 245.791 75.7738C245.424 75.6454 245.062 75.5812 244.705 75.5812ZM257.341 83.8066H255.264V79.5701H251.372V83.8066H249.295V73.9856H251.372V77.837H255.264V73.9856H257.341V83.8066ZM265.823 83.8066L265.108 81.4683H261.532L260.817 83.8066H258.575L262.041 73.9444H264.585L268.065 83.8066H265.823ZM264.613 79.7214L263.898 77.4381C263.852 77.2822 263.792 77.0851 263.719 76.8467C263.645 76.6082 263.572 76.3652 263.499 76.1177C263.425 75.8701 263.366 75.6546 263.32 75.4712C263.274 75.6546 263.21 75.8838 263.127 76.1589C263.054 76.4248 262.981 76.6816 262.907 76.9292C262.843 77.1676 262.793 77.3373 262.756 77.4381L262.055 79.7214H264.613ZM278.016 83.8066H275.375L271.097 76.379H271.042C271.061 76.8467 271.079 77.3143 271.097 77.782C271.125 78.2497 271.148 78.7173 271.166 79.185V83.8066H269.309V73.9856H271.936L276.2 81.3445H276.242C276.223 80.8952 276.205 80.4459 276.187 79.9965C276.168 79.5472 276.155 79.0933 276.145 78.6348V73.9856H278.016V83.8066ZM284.226 78.2909H288.119V83.3802C287.605 83.5545 287.069 83.692 286.509 83.7929C285.95 83.8938 285.322 83.9442 284.625 83.9442C283.158 83.9442 282.03 83.5132 281.241 82.6512C280.453 81.7893 280.058 80.533 280.058 78.8824C280.058 77.8554 280.256 76.9659 280.65 76.2139C281.044 75.462 281.622 74.8797 282.383 74.4671C283.153 74.0544 284.089 73.8481 285.189 73.8481C285.712 73.8481 286.225 73.9031 286.73 74.0132C287.234 74.1232 287.692 74.2699 288.105 74.4533L287.417 76.1177C287.115 75.9618 286.771 75.8334 286.386 75.7325C286.001 75.6316 285.597 75.5812 285.175 75.5812C284.57 75.5812 284.043 75.7188 283.593 75.9939C283.153 76.269 282.809 76.6587 282.562 77.163C282.323 77.6674 282.204 78.2542 282.204 78.9237C282.204 79.5655 282.291 80.1341 282.465 80.6293C282.64 81.1244 282.915 81.5142 283.291 81.7984C283.667 82.0735 284.157 82.2111 284.763 82.2111C285.056 82.2111 285.304 82.1973 285.505 82.1698C285.707 82.1423 285.9 82.1102 286.083 82.0735V80.024H284.226V78.2909ZM296.105 83.8066H290.452V73.9856H296.105V75.6912H292.529V77.8508H295.858V79.5564H292.529V82.0873H296.105V83.8066Z" fill="#00BABA"/>
<path d="M86.0016 77.2002H69.1016V78.8002H86.0016V77.2002Z" fill="#00BABA"/>
<path d="M319.701 77.2002H302.801V78.8002H319.701V77.2002Z" fill="#00BABA"/>
<path d="M16.5008 71.6V66.3L19.2008 63.4L0.300781 53L29.3008 103.2V71.6H16.5008Z" fill="url(#paint0_linear_1566_16150)"/>
<path d="M35.9008 65.4H42.9008V71.6H29.3008V103.2L58.4008 53L35.9008 65.4Z" fill="url(#paint1_linear_1566_16150)"/>
<path d="M37.7008 53C37.0008 54 36.1008 55 35.1008 56.1L26.3008 65.3H35.9008L58.4008 53H37.7008Z" fill="url(#paint2_linear_1566_16150)"/>
<path d="M29.0008 53H0.300781L19.2008 63.4L29.0008 53Z" fill="url(#paint3_linear_1566_16150)"/>
<path d="M39.2012 51H58.3012L41.5012 41.8C41.6012 42.3 41.6012 42.9001 41.6012 43.4001C41.6012 45.3001 41.1012 47.3001 40.1012 49.2001C39.9012 49.8001 39.6012 50.3 39.2012 51Z" fill="url(#paint4_linear_1566_16150)"/>
<path d="M32.8008 48.1001C33.6008 46.7001 34.0008 45.4001 34.0008 44.1001C34.0008 42.4001 33.6008 41.0001 32.7008 40.1001C31.8008 39.1001 30.6008 38.6001 29.0008 38.6001C27.3008 38.6001 25.9008 39.2001 24.9008 40.4001C23.9008 41.6001 23.4008 43.2001 23.4008 45.1001H15.7008C15.7008 44.1001 15.8008 43.2001 16.0008 42.3001L0.300781 51.0001H30.7008C31.6008 49.9001 32.3008 49.0001 32.8008 48.1001Z" fill="url(#paint5_linear_1566_16150)"/>
<path d="M17.4008 38.7001C18.5008 36.8 20.1008 35.2 22.1008 34.1C24.2008 33 26.5008 32.4001 29.1008 32.4001C29.2008 32.4001 29.2008 32.4001 29.3008 32.4001V0.800049L0.300781 51L16.0008 42.3C16.3008 41 16.8008 39.8 17.4008 38.7001Z" fill="url(#paint6_linear_1566_16150)"/>
<path d="M38.4004 35.3C40.2004 36.9 41.3004 39 41.6004 41.7001L58.4004 51L29.4004 0.800049V32.5C33.2004 32.5 36.2004 33.4 38.4004 35.3Z" fill="url(#paint7_linear_1566_16150)"/>
<defs>
<linearGradient id="paint0_linear_1566_16150" x1="36.8784" y1="91.2947" x2="-6.51112" y2="63.8442" gradientUnits="userSpaceOnUse">
<stop stop-color="#1DD6D1"/>
<stop offset="0.5263" stop-color="#0BC5C3"/>
<stop offset="1" stop-color="#00BABA"/>
</linearGradient>
<linearGradient id="paint1_linear_1566_16150" x1="27.5955" y1="87.4542" x2="64.9708" y2="64.0029" gradientUnits="userSpaceOnUse">
<stop stop-color="#1DD6D1"/>
<stop offset="0.5263" stop-color="#0BC5C3"/>
<stop offset="1" stop-color="#00BABA"/>
</linearGradient>
<linearGradient id="paint2_linear_1566_16150" x1="42.3564" y1="53.0486" x2="42.3564" y2="65.3853" gradientUnits="userSpaceOnUse">
<stop stop-color="#00BABA"/>
<stop offset="0.4737" stop-color="#0BC5C3"/>
<stop offset="1" stop-color="#1DD6D1"/>
</linearGradient>
<linearGradient id="paint3_linear_1566_16150" x1="14.6349" y1="53.0486" x2="14.6349" y2="63.4267" gradientUnits="userSpaceOnUse">
<stop stop-color="#00BABA"/>
<stop offset="0.4737" stop-color="#0BC5C3"/>
<stop offset="1" stop-color="#1DD6D1"/>
</linearGradient>
<linearGradient id="paint4_linear_1566_16150" x1="48.461" y1="41.5082" x2="48.798" y2="51.2811" gradientUnits="userSpaceOnUse">
<stop stop-color="#66F7EC"/>
<stop offset="0.0996643" stop-color="#59EFE6"/>
<stop offset="0.5097" stop-color="#29D3CE"/>
<stop offset="0.8229" stop-color="#0BC1BF"/>
<stop offset="1" stop-color="#00BABA"/>
</linearGradient>
<linearGradient id="paint5_linear_1566_16150" x1="16.8747" y1="39.0306" x2="17.3017" y2="51.4154" gradientUnits="userSpaceOnUse">
<stop stop-color="#66F7EC"/>
<stop offset="0.0996643" stop-color="#59EFE6"/>
<stop offset="0.5097" stop-color="#29D3CE"/>
<stop offset="0.8229" stop-color="#0BC1BF"/>
<stop offset="1" stop-color="#00BABA"/>
</linearGradient>
<linearGradient id="paint6_linear_1566_16150" x1="29.3961" y1="32.318" x2="11.9787" y2="24.6086" gradientUnits="userSpaceOnUse">
<stop stop-color="#36E8DF"/>
<stop offset="0.1955" stop-color="#29DDD6"/>
<stop offset="0.7088" stop-color="#0BC4C2"/>
<stop offset="1" stop-color="#00BABA"/>
</linearGradient>
<linearGradient id="paint7_linear_1566_16150" x1="31.329" y1="35.1351" x2="46.4661" y2="23.9337" gradientUnits="userSpaceOnUse">
<stop stop-color="#1DD6D1"/>
<stop offset="0.5263" stop-color="#0BC5C3"/>
<stop offset="1" stop-color="#00BABA"/>
</linearGradient>
</defs>
</svg>
