<svg width="66" height="66" viewBox="0 0 66 66" fill="none" xmlns="http://www.w3.org/2000/svg">
<path fill-rule="evenodd" clip-rule="evenodd" d="M33.6102 16.4376C37.519 16.3718 41.2961 17.8495 44.1227 20.5501L52.0102 12.6626C47.0326 7.98759 40.4386 5.42077 33.6102 5.50008C23.2126 5.49609 13.7025 11.3589 9.03516 20.6501L18.2227 27.7751C20.3891 21.0866 26.5802 16.5251 33.6102 16.4376ZM9.03439 20.6499C5.13437 28.4214 5.13437 37.5784 9.03439 45.3499L18.2218 38.2249C17.072 34.8365 17.072 31.1634 18.2218 27.7749L9.03439 20.6499ZM19.9989 41.9375C24.9483 49.6485 35.2117 51.8872 42.9227 46.9377L51.8101 53.8377C46.8151 58.2983 40.3045 60.6817 33.6102 60.5001C23.2126 60.5041 13.7024 54.6413 9.03516 45.35L18.2225 38.2251C18.6583 39.5315 19.255 40.7785 19.9989 41.9375Z" fill="url(#paint0_linear_1459_22772)"/>
<path d="M59.5093 28H33.6094V38.6374H48.4092C47.7905 42.0375 45.808 45.0364 42.9218 46.9375L51.8092 53.8377C57.2825 48.5661 60.2627 41.2199 60.0093 33.625C60.0108 31.7388 59.8435 29.8564 59.5093 28Z" fill="#BABABA"/>
<defs>
<linearGradient id="paint0_linear_1459_22772" x1="6.10938" y1="33.004" x2="51.7807" y2="33.004" gradientUnits="userSpaceOnUse">
<stop stop-color="#BABABA"/>
<stop offset="1" stop-color="#E3E3E3"/>
</linearGradient>
</defs>
</svg>
