<svg width="293" height="223" viewBox="0 0 293 223" fill="none" xmlns="http://www.w3.org/2000/svg">
<g opacity="0.7">
<path d="M88.7936 205.664C86.6897 205.664 84.8864 204.191 84.4934 202.143L82.875 193.883H94.7353L93.1169 202.143C92.7008 204.168 90.8975 205.664 88.7936 205.664Z" fill="url(#paint0_linear_2568_59688)"/>
<path d="M188.762 205.664C186.658 205.664 184.855 204.191 184.462 202.143L182.844 193.883H194.704L193.086 202.143C192.67 204.168 190.866 205.664 188.762 205.664Z" fill="url(#paint1_linear_2568_59688)"/>
<path d="M82.3208 198.025C70.9922 198.025 61.7676 188.844 61.7676 177.569V97.9343C61.7676 86.6597 70.9922 77.479 82.3208 77.479H201.409C212.738 77.479 221.962 86.6597 221.962 97.9343V177.546C221.962 188.821 212.738 198.002 201.409 198.002H82.3208V198.025Z" fill="url(#paint2_linear_2568_59688)"/>
<path d="M201.408 183.966H82.3202C78.6211 183.966 75.6387 180.998 75.6387 177.317V97.7044C75.6387 94.0229 78.6211 91.0547 82.3202 91.0547H201.408C205.108 91.0547 208.09 94.0229 208.09 97.7044V177.317C208.09 180.998 205.084 183.966 201.408 183.966Z" fill="#CCFFFC"/>
<path d="M92.1927 121.266C96.6106 121.266 100.192 117.701 100.192 113.304C100.192 108.908 96.6106 105.343 92.1927 105.343C87.7748 105.343 84.1934 108.908 84.1934 113.304C84.1934 117.701 87.7748 121.266 92.1927 121.266Z" fill="url(#paint3_linear_2568_59688)"/>
<path d="M92.1927 173.566C96.6106 173.566 100.192 170.002 100.192 165.605C100.192 161.208 96.6106 157.644 92.1927 157.644C87.7748 157.644 84.1934 161.208 84.1934 165.605C84.1934 170.002 87.7748 173.566 92.1927 173.566Z" fill="url(#paint4_linear_2568_59688)"/>
<path d="M171.168 163.879C185.661 163.879 197.409 152.187 197.409 137.764C197.409 123.34 185.661 111.648 171.168 111.648C156.676 111.648 144.928 123.34 144.928 137.764C144.928 152.187 156.676 163.879 171.168 163.879Z" fill="url(#paint5_linear_2568_59688)"/>
<path d="M171.168 111.625C156.765 111.625 144.928 123.406 144.928 137.741C144.928 144.551 147.61 151.086 152.349 155.941C152.534 155.757 152.996 155.274 152.996 155.274C148.442 150.603 145.853 144.252 145.853 137.741C145.853 131.045 148.488 124.74 153.297 119.954C158.106 115.168 164.441 112.545 171.168 112.545C177.734 112.545 184.115 115.122 188.808 119.678C188.808 119.678 189.271 119.241 189.479 119.034C184.578 114.294 178.012 111.625 171.168 111.625Z" fill="url(#paint6_linear_2568_59688)"/>
<path d="M171.168 163.879C185.571 163.879 197.409 152.098 197.409 137.763C197.409 130.953 194.727 124.418 189.987 119.563C189.802 119.747 189.34 120.23 189.34 120.23C193.894 124.901 196.484 131.252 196.484 137.763C196.484 144.459 193.848 150.764 189.039 155.55C184.231 160.335 177.896 162.959 171.168 162.959C164.602 162.959 158.221 160.381 153.528 155.826C153.528 155.826 153.065 156.263 152.857 156.47C157.736 161.21 164.325 163.879 171.168 163.879Z" fill="url(#paint7_linear_2568_59688)"/>
<path d="M182.61 142.465C185.225 136.184 182.228 128.983 175.916 126.381C169.605 123.779 162.369 126.762 159.755 133.043C157.141 139.325 160.138 146.526 166.449 149.128C172.76 151.729 179.996 148.747 182.61 142.465Z" fill="#CCFFFC"/>
<path d="M171.169 118.642C170.915 118.642 170.707 118.435 170.707 118.182V114.11C170.707 113.856 170.915 113.649 171.169 113.649C171.424 113.649 171.632 113.856 171.632 114.11V118.182C171.632 118.435 171.424 118.642 171.169 118.642Z" fill="#3DC4C0"/>
<path d="M165.898 118.182C165.713 118.228 165.528 118.113 165.482 117.929L164.973 116.02C164.927 115.835 165.042 115.651 165.227 115.605C165.412 115.559 165.597 115.674 165.644 115.858L166.152 117.768C166.198 117.929 166.083 118.113 165.898 118.182Z" fill="#3DC4C0"/>
<path d="M160.972 120.207C160.811 120.299 160.603 120.253 160.51 120.092L159.516 118.389C159.423 118.228 159.47 118.021 159.631 117.929C159.793 117.837 160.001 117.883 160.094 118.044L161.088 119.747C161.204 119.885 161.157 120.092 160.972 120.207Z" fill="#3DC4C0"/>
<path d="M153.53 127.616C153.437 127.777 153.229 127.846 153.067 127.731L151.357 126.742C151.195 126.65 151.125 126.443 151.241 126.282C151.333 126.12 151.542 126.051 151.703 126.167L153.414 127.156C153.576 127.248 153.622 127.455 153.53 127.616Z" fill="#3DC4C0"/>
<path d="M151.494 132.517C151.448 132.701 151.263 132.816 151.078 132.77L149.159 132.264C148.974 132.218 148.858 132.034 148.905 131.85C148.951 131.666 149.136 131.551 149.321 131.597L151.24 132.103C151.425 132.126 151.54 132.333 151.494 132.517Z" fill="#3DC4C0"/>
<path d="M151.494 143.009C151.54 143.193 151.425 143.378 151.24 143.424L149.321 143.93C149.136 143.976 148.951 143.861 148.905 143.677C148.858 143.493 148.974 143.308 149.159 143.262L151.078 142.756C151.24 142.71 151.448 142.825 151.494 143.009Z" fill="#3DC4C0"/>
<path d="M153.529 147.887C153.622 148.048 153.576 148.255 153.414 148.347L151.703 149.337C151.541 149.429 151.333 149.383 151.24 149.222C151.148 149.061 151.194 148.853 151.356 148.761L153.067 147.772C153.229 147.68 153.437 147.726 153.529 147.887Z" fill="#3DC4C0"/>
<path d="M160.973 155.319C161.135 155.411 161.204 155.618 161.089 155.78L160.094 157.482C160.002 157.643 159.794 157.712 159.632 157.597C159.47 157.505 159.401 157.298 159.516 157.137L160.511 155.434C160.603 155.273 160.811 155.227 160.973 155.319Z" fill="#3DC4C0"/>
<path d="M165.898 157.344C166.083 157.39 166.198 157.574 166.152 157.758L165.644 159.668C165.597 159.852 165.412 159.967 165.227 159.921C165.042 159.875 164.927 159.691 164.973 159.507L165.482 157.597C165.528 157.39 165.713 157.298 165.898 157.344Z" fill="#3DC4C0"/>
<path d="M176.44 157.344C176.625 157.298 176.81 157.413 176.856 157.597L177.365 159.507C177.411 159.691 177.296 159.875 177.111 159.921C176.926 159.967 176.741 159.852 176.695 159.668L176.186 157.758C176.14 157.574 176.255 157.39 176.44 157.344Z" fill="#3DC4C0"/>
<path d="M181.342 155.319C181.504 155.227 181.712 155.273 181.805 155.434L182.799 157.137C182.891 157.298 182.845 157.505 182.683 157.597C182.522 157.689 182.313 157.643 182.221 157.482L181.227 155.78C181.134 155.618 181.181 155.411 181.342 155.319Z" fill="#3DC4C0"/>
<path d="M188.809 147.887C188.901 147.726 189.109 147.657 189.271 147.772L190.982 148.761C191.144 148.853 191.213 149.06 191.098 149.222C191.005 149.383 190.797 149.452 190.635 149.337L188.924 148.347C188.763 148.255 188.716 148.048 188.809 147.887Z" fill="#3DC4C0"/>
<path d="M190.844 143.009C190.89 142.825 191.075 142.71 191.26 142.756L193.179 143.262C193.364 143.308 193.48 143.493 193.434 143.677C193.387 143.861 193.202 143.976 193.017 143.93L191.099 143.424C190.914 143.378 190.798 143.193 190.844 143.009Z" fill="#3DC4C0"/>
<path d="M190.844 132.517C190.798 132.333 190.914 132.149 191.099 132.103L193.017 131.597C193.202 131.551 193.387 131.666 193.434 131.85C193.48 132.034 193.364 132.218 193.179 132.264L191.26 132.77C191.075 132.793 190.89 132.701 190.844 132.517Z" fill="#3DC4C0"/>
<path d="M188.809 127.616C188.716 127.455 188.763 127.248 188.924 127.156L190.635 126.167C190.797 126.074 191.005 126.121 191.098 126.282C191.19 126.443 191.144 126.65 190.982 126.742L189.271 127.731C189.109 127.846 188.901 127.777 188.809 127.616Z" fill="#3DC4C0"/>
<path d="M181.341 120.207C181.179 120.115 181.11 119.908 181.225 119.747L182.219 118.044C182.312 117.883 182.52 117.814 182.682 117.929C182.844 118.021 182.913 118.228 182.797 118.389L181.803 120.092C181.734 120.23 181.526 120.299 181.341 120.207Z" fill="#3DC4C0"/>
<path d="M176.44 118.182C176.255 118.136 176.14 117.952 176.186 117.768L176.695 115.858C176.741 115.674 176.926 115.559 177.111 115.605C177.296 115.651 177.411 115.835 177.365 116.02L176.856 117.929C176.81 118.113 176.625 118.228 176.44 118.182Z" fill="#3DC4C0"/>
<path d="M157.274 124.372C157.159 124.372 157.043 124.326 156.951 124.234L154.061 121.358C153.876 121.173 153.876 120.897 154.061 120.713C154.246 120.529 154.523 120.529 154.708 120.713L157.598 123.589C157.783 123.773 157.783 124.05 157.598 124.234C157.505 124.326 157.39 124.372 157.274 124.372Z" fill="#3DC4C0"/>
<path d="M151.517 138.223H147.425C147.171 138.223 146.963 138.016 146.963 137.763C146.963 137.51 147.171 137.303 147.425 137.303H151.517C151.772 137.303 151.98 137.51 151.98 137.763C151.98 138.016 151.772 138.223 151.517 138.223Z" fill="#3DC4C0"/>
<path d="M154.361 154.928C154.245 154.928 154.13 154.882 154.037 154.79C153.852 154.606 153.852 154.33 154.037 154.146L156.927 151.27C157.112 151.086 157.39 151.086 157.575 151.27C157.759 151.454 157.759 151.73 157.575 151.914L154.685 154.79C154.615 154.882 154.476 154.928 154.361 154.928Z" fill="#3DC4C0"/>
<path d="M171.169 161.854C170.915 161.854 170.707 161.647 170.707 161.394V157.321C170.707 157.068 170.915 156.861 171.169 156.861C171.424 156.861 171.632 157.068 171.632 157.321V161.394C171.632 161.647 171.424 161.854 171.169 161.854Z" fill="#3DC4C0"/>
<path d="M187.954 154.928C187.838 154.928 187.723 154.882 187.63 154.79L184.74 151.914C184.555 151.73 184.555 151.454 184.74 151.27C184.925 151.086 185.203 151.086 185.388 151.27L188.278 154.146C188.463 154.33 188.463 154.606 188.278 154.79C188.208 154.882 188.093 154.928 187.954 154.928Z" fill="#3DC4C0"/>
<path d="M194.912 138.223H190.82C190.565 138.223 190.357 138.016 190.357 137.763C190.357 137.51 190.565 137.303 190.82 137.303H194.912C195.166 137.303 195.374 137.51 195.374 137.763C195.374 138.016 195.189 138.223 194.912 138.223Z" fill="#3DC4C0"/>
<path d="M185.064 124.372C184.948 124.372 184.833 124.326 184.74 124.234C184.555 124.05 184.555 123.773 184.74 123.589L187.63 120.713C187.815 120.529 188.093 120.529 188.278 120.713C188.463 120.897 188.463 121.173 188.278 121.358L185.388 124.234C185.295 124.326 185.18 124.372 185.064 124.372Z" fill="#3DC4C0"/>
<path d="M197.988 55.8271C195.884 53.6642 191.907 52.3066 187.607 52.3066H140.767H96.1928C91.8695 52.3066 87.8929 53.6642 85.8122 55.8271C72.8191 69.2645 60.7045 89.3056 61.8373 96.4615C61.8373 96.4615 64.1724 77.6629 82.3443 77.6629H139.657H141.877H201.502C214.148 77.6629 222.171 89.0755 221.916 96.4615L222.055 89.4897C222.101 77.962 210.981 69.2645 197.988 55.8271Z" fill="#B8FFFD"/>
<path d="M209.985 118.182H206.194C205.338 118.182 204.645 117.492 204.645 116.641V105.021C204.645 104.17 205.338 103.479 206.194 103.479H209.985C210.841 103.479 211.534 104.17 211.534 105.021V116.641C211.534 117.515 210.841 118.182 209.985 118.182Z" fill="url(#paint8_linear_2568_59688)"/>
<path d="M209.802 174.026H206.01C205.155 174.026 204.461 173.336 204.461 172.485V160.865C204.461 160.014 205.155 159.323 206.01 159.323H209.802C210.657 159.323 211.351 160.014 211.351 160.865V172.485C211.327 173.359 210.634 174.026 209.802 174.026Z" fill="url(#paint9_linear_2568_59688)"/>
<path d="M210.38 105.251C210.661 105.251 210.888 105.025 210.888 104.745C210.888 104.465 210.661 104.239 210.38 104.239C210.099 104.239 209.871 104.465 209.871 104.745C209.871 105.025 210.099 105.251 210.38 105.251Z" fill="#61AAA6"/>
<path d="M205.71 105.251C205.991 105.251 206.218 105.025 206.218 104.745C206.218 104.465 205.991 104.239 205.71 104.239C205.429 104.239 205.201 104.465 205.201 104.745C205.201 105.025 205.429 105.251 205.71 105.251Z" fill="#61AAA6"/>
<g opacity="0.5">
<path opacity="0.5" d="M210.38 117.446C210.661 117.446 210.888 117.219 210.888 116.94C210.888 116.66 210.661 116.434 210.38 116.434C210.099 116.434 209.871 116.66 209.871 116.94C209.871 117.219 210.099 117.446 210.38 117.446Z" fill="#56B6CC"/>
</g>
<path d="M205.71 117.446C205.991 117.446 206.218 117.219 206.218 116.94C206.218 116.66 205.991 116.434 205.71 116.434C205.429 116.434 205.201 116.66 205.201 116.94C205.201 117.219 205.429 117.446 205.71 117.446Z" fill="#61AAA6"/>
<g opacity="0.6">
<path opacity="0.6" d="M205.246 104.791C205.223 104.515 205.477 104.285 205.754 104.285C205.87 104.285 205.962 104.308 206.032 104.377C205.939 104.308 205.824 104.262 205.708 104.262C205.431 104.262 205.223 104.492 205.223 104.745C205.223 104.883 205.292 105.021 205.384 105.113C205.292 105.044 205.246 104.906 205.246 104.791Z" fill="#56B6CC"/>
</g>
<g opacity="0.6">
<path opacity="0.6" d="M209.916 104.791C209.893 104.515 210.147 104.285 210.424 104.285C210.54 104.285 210.632 104.308 210.702 104.377C210.609 104.308 210.494 104.262 210.378 104.262C210.101 104.262 209.893 104.492 209.893 104.745C209.893 104.883 209.962 105.021 210.054 105.113C209.962 105.044 209.916 104.906 209.916 104.791Z" fill="#56B6CC"/>
</g>
<g opacity="0.6">
<path opacity="0.6" d="M205.246 116.963C205.223 116.687 205.477 116.457 205.754 116.457C205.87 116.457 205.962 116.48 206.032 116.549C205.939 116.48 205.824 116.434 205.708 116.434C205.431 116.434 205.223 116.664 205.223 116.917C205.223 117.055 205.292 117.193 205.384 117.285C205.292 117.216 205.246 117.101 205.246 116.963Z" fill="#56B6CC"/>
</g>
<path d="M209.916 116.963C209.893 116.687 210.147 116.457 210.424 116.457C210.54 116.457 210.632 116.48 210.702 116.549C210.609 116.48 210.494 116.434 210.378 116.434C210.101 116.434 209.893 116.664 209.893 116.917C209.893 117.055 209.962 117.193 210.054 117.285C209.962 117.216 209.916 117.101 209.916 116.963Z" fill="#61AAA6"/>
<path opacity="0.5" d="M210.241 161.118C210.522 161.118 210.75 160.891 210.75 160.612C210.75 160.332 210.522 160.105 210.241 160.105C209.96 160.105 209.732 160.332 209.732 160.612C209.732 160.891 209.96 161.118 210.241 161.118Z" fill="#61AAA6"/>
<path opacity="0.5" d="M205.548 161.118C205.829 161.118 206.056 160.891 206.056 160.612C206.056 160.332 205.829 160.105 205.548 160.105C205.267 160.105 205.039 160.332 205.039 160.612C205.039 160.891 205.267 161.118 205.548 161.118Z" fill="#61AAA6"/>
<path opacity="0.5" d="M210.241 173.29C210.522 173.29 210.75 173.063 210.75 172.784C210.75 172.504 210.522 172.277 210.241 172.277C209.96 172.277 209.732 172.504 209.732 172.784C209.732 173.063 209.96 173.29 210.241 173.29Z" fill="#61AAA6"/>
<path opacity="0.5" d="M205.548 173.29C205.829 173.29 206.056 173.063 206.056 172.784C206.056 172.504 205.829 172.277 205.548 172.277C205.267 172.277 205.039 172.504 205.039 172.784C205.039 173.063 205.267 173.29 205.548 173.29Z" fill="#61AAA6"/>
<path opacity="0.6" d="M209.779 160.635C209.756 160.359 210.01 160.128 210.288 160.128C210.403 160.128 210.496 160.151 210.565 160.221C210.473 160.151 210.357 160.105 210.241 160.105C209.964 160.105 209.756 160.336 209.756 160.589C209.756 160.727 209.825 160.865 209.918 160.957C209.825 160.888 209.779 160.773 209.779 160.635Z" fill="#61AAA6"/>
<path opacity="0.6" d="M205.086 160.635C205.062 160.359 205.317 160.128 205.594 160.128C205.71 160.128 205.802 160.151 205.872 160.221C205.779 160.151 205.664 160.105 205.548 160.105C205.271 160.105 205.062 160.336 205.062 160.589C205.062 160.727 205.132 160.865 205.224 160.957C205.155 160.888 205.109 160.773 205.086 160.635Z" fill="#61AAA6"/>
<path opacity="0.6" d="M209.779 172.83C209.756 172.553 210.01 172.323 210.288 172.323C210.403 172.323 210.496 172.346 210.565 172.415C210.473 172.346 210.357 172.3 210.241 172.3C209.964 172.3 209.756 172.53 209.756 172.784C209.756 172.922 209.825 173.06 209.918 173.152C209.825 173.06 209.779 172.945 209.779 172.83Z" fill="#61AAA6"/>
<path opacity="0.6" d="M205.086 172.83C205.062 172.553 205.317 172.323 205.594 172.323C205.71 172.323 205.802 172.346 205.872 172.415C205.779 172.346 205.664 172.3 205.548 172.3C205.271 172.3 205.062 172.53 205.062 172.784C205.062 172.922 205.132 173.06 205.224 173.152C205.155 173.06 205.109 172.945 205.086 172.83Z" fill="#61AAA6"/>
<path d="M87.3606 171.242C84.1239 168.297 84.3782 162.821 87.3606 159.852C88.586 158.633 90.0887 157.92 91.6377 157.667C89.7882 157.805 87.9617 158.564 86.5283 159.967C83.4072 163.074 83.4072 168.113 86.5283 171.219C88.2161 172.899 90.4587 173.658 92.6781 173.543C90.7592 173.405 88.8634 172.623 87.3606 171.242Z" fill="#78D6D1"/>
<path d="M84.7479 113.903C84.563 109.554 88.6089 105.849 92.8397 105.849C94.5737 105.849 96.1458 106.402 97.4174 107.299C96.0071 106.08 94.1806 105.343 92.1692 105.343C87.7534 105.343 84.1699 108.91 84.1699 113.304C84.1699 115.674 85.2103 117.814 86.8749 119.264C85.6264 117.814 84.8404 115.928 84.7479 113.903Z" fill="#78D6D1"/>
<g opacity="0.2">
<path opacity="0.2" d="M92.1933 166.065C90.5519 166.065 89.2109 164.73 89.2109 163.097V112.66C89.2109 111.026 90.5519 109.692 92.1933 109.692C93.8348 109.692 95.1758 111.026 95.1758 112.66V163.097C95.1758 164.73 93.8348 166.065 92.1933 166.065Z" fill="#56B6CC"/>
</g>
<path d="M92.1933 165.605C90.5519 165.605 89.2109 164.27 89.2109 162.637V112.2C89.2109 110.566 90.5519 109.232 92.1933 109.232C93.8348 109.232 95.1758 110.566 95.1758 112.2V162.637C95.1758 164.27 93.8348 165.605 92.1933 165.605Z" fill="url(#paint10_linear_2568_59688)"/>
<g opacity="0.2">
<g opacity="0.2">
<path opacity="0.2" d="M70.6443 114.8L60.2405 109.623C57.6049 108.311 56.5183 105.09 57.8361 102.467C59.1539 99.8438 62.3907 98.7624 65.0263 100.074L75.43 105.251C78.0656 106.563 79.1522 109.784 77.8344 112.407C76.5166 115.03 73.2799 116.111 70.6443 114.8ZM64.4483 99.6367C63.0149 98.9234 59.4545 99.4527 58.7378 100.856C58.0211 102.26 59.9169 106.701 61.3272 107.414L71.7309 112.591C73.1643 113.304 74.8983 112.729 75.615 111.302C76.3317 109.876 76.5398 106.286 75.1063 105.573L64.4483 99.6367Z" fill="#56B6CC"/>
</g>
</g>
<path d="M70.0896 113.557L59.6859 108.38C57.0502 107.069 55.9636 103.848 57.2814 101.224C58.5992 98.6014 61.836 97.52 64.4716 98.8315L74.8753 104.009C77.5109 105.32 78.5975 108.541 77.2797 111.164C75.9619 113.788 72.7252 114.869 70.0896 113.557ZM63.3618 101.017C61.9284 100.304 60.1945 100.879 59.4778 102.306C58.7611 103.732 59.3391 105.458 60.7725 106.171L71.1762 111.349C72.6096 112.062 74.3436 111.487 75.0603 110.06C75.777 108.633 75.199 106.908 73.7656 106.194L63.3618 101.017Z" fill="#7AEDEA"/>
<g opacity="0.2">
<g opacity="0.2">
<path opacity="0.2" d="M93.6719 128.445L82.9214 124.004C80.1933 122.876 78.8986 119.747 80.0083 117.032C81.1412 114.317 84.2854 113.028 87.0135 114.133L97.764 118.574C100.492 119.701 101.787 122.83 100.677 125.545C99.5674 128.261 96.4 129.572 93.6719 128.445ZM84.6553 114.593C83.1757 113.995 81.9272 115.582 81.3261 117.055C80.725 118.528 82.3896 121.151 83.8693 121.749L94.6198 126.19C96.0994 126.788 97.7872 126.098 98.3883 124.625C98.9894 123.153 99.498 120.414 98.0415 119.816L84.6553 114.593Z" fill="#56B6CC"/>
</g>
</g>
<g opacity="0.2">
<g opacity="0.2">
<path opacity="0.2" d="M89.2084 124.533L83.8216 122.416C81.0935 121.288 78.666 119.333 79.7988 116.618C80.9317 113.902 84.0759 112.614 86.804 113.718L97.5546 118.159C100.283 119.287 101.115 122.163 99.9821 124.901C98.8261 127.616 91.9365 125.66 89.2084 124.533ZM85.8561 116.019C84.3765 115.421 82.6888 116.111 82.0877 117.584C81.4865 119.057 82.1801 120.736 83.6598 121.334L94.4103 125.775C95.89 126.373 97.5777 125.683 98.1788 124.211C98.7799 122.738 98.0863 121.058 96.6067 120.46L85.8561 116.019Z" fill="#56B6CC"/>
</g>
</g>
<path d="M93.4395 127.386L82.689 122.945C79.9609 121.818 78.6662 118.689 79.7759 115.973C80.9088 113.258 84.053 111.97 86.7811 113.074L97.5317 117.515C100.26 118.643 101.554 121.772 100.445 124.487C99.3118 127.225 96.1676 128.514 93.4395 127.386ZM85.8563 115.375C84.3767 114.777 82.689 115.467 82.0879 116.94C81.4867 118.412 82.1803 120.092 83.66 120.69L94.4105 125.131C95.8902 125.729 97.5779 125.039 98.179 123.567C98.7801 122.094 98.0865 120.414 96.6069 119.816L85.8563 115.375Z" fill="#7AEDEA"/>
<g opacity="0.2">
<g opacity="0.2">
<path opacity="0.2" d="M118.155 137.418L110.733 135.025C107.913 134.174 103.983 132.126 104.838 129.319C105.693 126.511 107.381 124.694 110.202 125.568L121.322 128.95C124.143 129.802 123.958 131.988 123.102 134.795C122.27 137.602 120.975 138.269 118.155 137.418ZM109.485 127.915C107.959 127.455 106.341 128.306 105.878 129.825C105.416 131.343 106.271 132.954 107.797 133.414L118.918 136.797C120.444 137.257 122.062 136.405 122.524 134.887C122.987 133.368 122.131 131.758 120.605 131.297L109.485 127.915Z" fill="#56B6CC"/>
</g>
</g>
<g opacity="0.2">
<g opacity="0.2">
<path opacity="0.2" d="M119.426 139.489L108.306 136.107C105.485 135.255 103.867 132.264 104.745 129.434C105.601 126.627 108.606 125.016 111.45 125.891L122.57 129.273C125.391 130.124 127.009 133.116 126.131 135.946C125.252 138.753 122.247 140.34 119.426 139.489ZM109.878 126.282C108.352 125.822 106.225 127.777 105.763 129.296C105.3 130.815 107.496 133.3 109.022 133.76L120.143 137.142C121.669 137.602 124.536 137.51 124.998 135.992C125.46 134.473 125.668 131.114 124.142 130.654L109.878 126.282Z" fill="#56B6CC"/>
</g>
</g>
<path d="M118.965 138.362L107.821 134.979C105.001 134.128 103.382 131.137 104.261 128.307C105.116 125.499 108.122 123.889 110.966 124.763L122.086 128.146C124.907 128.997 126.525 131.988 125.646 134.818C124.768 137.648 121.785 139.213 118.965 138.362ZM110.249 127.133C108.723 126.673 107.105 127.524 106.642 129.043C106.18 130.562 107.035 132.172 108.561 132.632L119.682 136.015C121.207 136.475 122.826 135.624 123.288 134.105C123.751 132.586 122.895 130.976 121.369 130.516L110.249 127.133Z" fill="#7AEDEA"/>
<path d="M144.951 148.048L133.669 145.264C130.802 144.551 129.045 141.652 129.762 138.798C130.478 135.945 133.391 134.197 136.258 134.91L147.541 137.694C150.407 138.407 152.164 141.306 151.448 144.16C150.731 147.013 147.818 148.761 144.951 148.048ZM135.657 137.28C134.108 136.889 132.536 137.832 132.166 139.374C131.773 140.915 132.721 142.48 134.27 142.848L145.552 145.632C147.101 146.023 148.673 145.08 149.043 143.538C149.413 141.997 148.489 140.432 146.939 140.064L135.657 137.28Z" fill="#7AEDEA"/>
<g opacity="0.2">
<g opacity="0.2">
<path opacity="0.2" d="M82.5045 187.67L72.4476 193.469C69.8813 194.941 68.1936 191.835 66.7139 189.304C65.2343 186.75 64.5176 185.715 67.0838 184.242L77.1408 178.444C79.7071 176.971 82.99 177.845 84.4697 180.399C85.9493 182.907 85.0708 186.198 82.5045 187.67ZM67.4306 184.173C66.0435 184.978 66.4596 188.913 67.2688 190.27C68.078 191.651 69.8351 192.111 71.2222 191.329L81.2792 185.53C82.6664 184.725 84.7471 180.837 83.961 179.479C83.1519 178.098 80.0307 177.316 78.6436 178.098L67.4306 184.173Z" fill="#56B6CC"/>
</g>
</g>
<path d="M83.0829 185.922L73.0259 191.72C70.4597 193.193 67.1767 192.318 65.697 189.764C64.2174 187.21 65.0959 183.943 67.6622 182.47L77.7192 176.672C80.2854 175.2 83.5684 176.074 85.048 178.628C86.5277 181.182 85.6491 184.449 83.0829 185.922ZM68.8875 184.633C67.5004 185.439 67.038 187.187 67.824 188.568C68.6332 189.948 70.3903 190.409 71.7775 189.626L81.8344 183.828C83.2216 183.023 83.684 181.274 82.8979 179.893C82.0887 178.513 80.3317 178.053 78.9445 178.835L68.8875 184.633Z" fill="#7AEDEA"/>
<g opacity="0.2">
<g opacity="0.2">
<path opacity="0.2" d="M106.734 173.151L96.6303 177.339C93.9022 178.467 91.6134 178.605 90.4806 175.867C89.3477 173.128 89.8563 170.436 92.5844 169.309L103.335 164.891C106.063 163.764 108.259 165.489 109.392 168.204C110.525 170.92 109.462 172.024 106.734 173.151ZM93.5092 171.587C92.0296 172.185 91.336 173.888 91.9371 175.337C92.5382 176.81 94.249 177.5 95.7056 176.902L106.456 172.484C107.936 171.886 108.629 170.183 108.028 168.734C107.427 167.261 105.716 166.571 104.26 167.169L93.5092 171.587Z" fill="#56B6CC"/>
</g>
</g>
<g opacity="0.2">
<g opacity="0.2">
<path opacity="0.2" d="M106.272 175.521L95.5212 179.939C92.7931 181.067 89.6489 179.755 88.516 177.04C87.3832 174.325 88.701 171.196 91.4291 170.068L102.18 165.65C104.908 164.523 108.052 165.834 109.185 168.55C110.295 171.288 109 174.394 106.272 175.521ZM92.192 170.482C90.7124 171.081 90.1806 174.647 90.8048 176.12C91.406 177.592 93.1168 178.282 94.5733 177.684L105.324 173.266C106.804 172.668 109.324 168.987 108.722 167.514C108.121 166.041 105.255 165.029 103.775 165.627L92.192 170.482Z" fill="#56B6CC"/>
</g>
</g>
<path d="M106.965 174.141L96.2146 178.559C93.4865 179.686 90.3422 178.375 89.2094 175.66C88.0765 172.944 89.3943 169.815 92.1224 168.688L102.873 164.27C105.601 163.142 108.745 164.454 109.878 167.169C110.988 169.907 109.693 173.013 106.965 174.141ZM93.0472 170.966C91.5676 171.564 90.874 173.267 91.4751 174.716C92.0762 176.189 93.787 176.879 95.2436 176.281L105.994 171.863C107.474 171.265 108.167 169.562 107.566 168.112C106.965 166.64 105.254 165.95 103.798 166.548L93.0472 170.966Z" fill="#7AEDEA"/>
<g opacity="0.2">
<g opacity="0.2">
<path opacity="0.2" d="M130.686 163.234L119.75 165.397C116.837 165.949 115.173 164.983 114.641 162.084C114.086 159.185 114.849 156.884 117.762 156.354L129.206 154.238C132.119 153.685 133.391 155.733 133.922 158.632C134.431 161.509 133.576 162.682 130.686 163.234ZM118.201 158.77C116.629 159.07 115.589 160.565 115.889 162.13C116.19 163.694 117.693 164.73 119.265 164.431L130.709 162.314C132.281 162.015 133.321 160.519 133.021 158.955C132.72 157.39 131.217 156.354 129.645 156.654L118.201 158.77Z" fill="#56B6CC"/>
</g>
</g>
<g opacity="0.2">
<g opacity="0.2">
<path opacity="0.2" d="M129.761 165.259L118.317 167.376C115.404 167.928 112.607 165.996 112.052 163.119C111.497 160.22 113.439 157.436 116.329 156.884L127.773 154.767C130.686 154.215 133.483 156.148 134.038 159.024C134.593 161.923 132.651 164.707 129.761 165.259ZM116.999 157.482C115.427 157.781 114.202 161.095 114.502 162.659C114.803 164.224 116.306 165.259 117.878 164.96L129.322 162.843C130.894 162.544 132.859 160.634 132.559 159.07C132.258 157.505 130.247 154.905 128.675 155.204L116.999 157.482Z" fill="#56B6CC"/>
</g>
</g>
<path d="M130.685 164.109L119.241 166.226C116.328 166.778 113.53 164.845 112.976 161.969C112.421 159.07 114.363 156.286 117.253 155.734L128.697 153.617C131.61 153.065 134.407 154.997 134.962 157.873C135.517 160.773 133.575 163.557 130.685 164.109ZM117.738 158.15C116.166 158.449 115.126 159.944 115.426 161.509C115.727 163.074 117.23 164.109 118.802 163.81L130.246 161.693C131.818 161.394 132.858 159.898 132.558 158.334C132.257 156.769 130.754 155.734 129.182 156.033L117.738 158.15Z" fill="#7AEDEA"/>
<g opacity="0.2">
<g opacity="0.2">
<path opacity="0.2" d="M159.862 164.753H148.233C145.274 164.753 142.869 162.36 142.869 159.415C142.869 156.47 145.274 154.077 148.233 154.077H159.862C162.821 154.077 165.226 156.47 165.226 159.415C165.226 162.36 162.821 164.753 159.862 164.753ZM148.233 156.539C146.638 156.539 145.343 157.827 145.343 159.415C145.343 161.002 146.638 162.291 148.233 162.291H159.862C161.457 162.291 162.752 161.002 162.752 159.415C162.752 157.827 161.457 156.539 159.862 156.539H148.233Z" fill="#56B6CC"/>
</g>
</g>
<path d="M158.706 163.833H147.077C144.117 163.833 141.713 161.44 141.713 158.494C141.713 155.549 144.117 153.156 147.077 153.156H158.706C161.665 153.156 164.069 155.549 164.069 158.494C164.069 161.44 161.665 163.833 158.706 163.833ZM147.077 155.618C145.481 155.618 144.187 156.907 144.187 158.494C144.187 160.082 145.481 161.371 147.077 161.371H158.706C160.301 161.371 161.596 160.082 161.596 158.494C161.596 156.907 160.301 155.618 158.706 155.618H147.077Z" fill="#7AEDEA"/>
<g opacity="0.2">
<g opacity="0.2">
<path opacity="0.2" d="M184.161 171.909L173.826 168.918C171.006 168.02 169.526 166.387 170.428 163.579C171.329 160.772 173.318 159.3 176.138 160.174L187.235 163.672C190.056 164.569 190.703 166.64 189.802 169.447C188.877 172.254 186.981 172.806 184.161 171.909ZM175.375 162.521C173.849 162.038 172.231 162.889 171.745 164.385C171.26 165.903 172.115 167.514 173.618 167.997L184.715 171.495C186.241 171.978 187.86 171.127 188.345 169.631C188.831 168.112 187.975 166.502 186.473 166.018L175.375 162.521Z" fill="#56B6CC"/>
</g>
</g>
<g opacity="0.2">
<g opacity="0.2">
<path opacity="0.2" d="M184.646 174.302L173.548 170.805C170.728 169.907 169.156 166.916 170.057 164.109C170.959 161.302 173.964 159.737 176.785 160.635L187.882 164.132C190.703 165.029 192.275 168.021 191.373 170.828C190.472 173.635 187.466 175.199 184.646 174.302ZM175.328 161.21C173.803 160.727 170.774 161.9 170.288 163.396C169.803 164.914 172.785 167.998 174.311 168.458L185.409 171.955C186.934 172.438 188.553 171.587 189.038 170.091C189.524 168.573 190.402 165.996 188.876 165.513L175.328 161.21Z" fill="#56B6CC"/>
</g>
</g>
<path d="M184.185 173.152L173.087 169.654C170.267 168.757 168.695 165.766 169.596 162.959C170.498 160.151 173.503 158.587 176.324 159.484L187.421 162.982C190.242 163.879 191.814 166.87 190.912 169.677C190.011 172.484 187.005 174.049 184.185 173.152ZM175.584 161.831C174.058 161.348 172.44 162.199 171.954 163.695C171.469 165.214 172.324 166.824 173.827 167.307L184.924 170.805C186.45 171.288 188.069 170.437 188.554 168.941C189.04 167.422 188.184 165.812 186.681 165.329L175.584 161.831Z" fill="#7AEDEA"/>
<g opacity="0.2">
<g opacity="0.2">
<path opacity="0.2" d="M208.113 183.644L199.166 178.904C196.554 177.523 194.588 175.384 195.976 172.784C197.363 170.183 199.814 168.918 202.426 170.299L212.691 175.729C215.304 177.109 215.396 179.088 214.009 181.688C212.622 184.288 210.726 185.024 208.113 183.644ZM201.27 172.484C199.86 171.748 198.103 172.277 197.363 173.681C196.623 175.084 197.155 176.833 198.565 177.569L208.83 183C210.24 183.736 211.997 183.207 212.737 181.803C213.477 180.4 212.945 178.651 211.535 177.915L201.27 172.484Z" fill="#56B6CC"/>
</g>
</g>
<g opacity="0.2">
<g opacity="0.2">
<path opacity="0.2" d="M208.042 185.669L197.777 180.238C195.165 178.858 194.171 175.613 195.558 173.013C196.945 170.413 200.205 169.424 202.818 170.805L213.083 176.235C215.695 177.615 216.689 180.86 215.302 183.46C213.915 186.06 210.655 187.049 208.042 185.669ZM201.662 171.426C200.251 170.689 197.454 171.311 196.714 172.714C195.974 174.118 197.546 177.316 198.957 178.052L209.222 183.483C210.632 184.219 212.389 183.69 213.129 182.286C213.869 180.883 214.77 178.191 213.36 177.454L201.662 171.426Z" fill="#56B6CC"/>
</g>
</g>
<path d="M207.812 184.518L197.547 179.088C194.934 177.707 193.94 174.463 195.328 171.863C196.715 169.263 199.975 168.274 202.587 169.654L212.852 175.084C215.465 176.465 216.459 179.709 215.072 182.309C213.684 184.909 210.424 185.899 207.812 184.518ZM201.431 171.84C200.021 171.104 198.264 171.633 197.524 173.037C196.784 174.44 197.316 176.189 198.726 176.925L208.991 182.355C210.401 183.092 212.158 182.562 212.898 181.159C213.638 179.755 213.106 178.007 211.696 177.27L201.431 171.84Z" fill="#7AEDEA"/>
<g opacity="0.2">
<g opacity="0.2">
<path opacity="0.2" d="M171.307 141.284L160.302 145.011C157.504 145.954 154.453 144.459 153.505 141.675C152.557 138.891 154.06 135.853 156.857 134.91L167.862 131.183C170.659 130.239 173.711 131.735 174.659 134.519C175.607 137.303 174.104 140.34 171.307 141.284ZM157.643 137.257C156.14 137.763 155.331 139.397 155.84 140.915C156.348 142.411 157.99 143.216 159.516 142.71L170.521 138.983C172.023 138.476 174.567 135.301 174.058 133.806C173.549 132.31 169.989 130.469 168.463 130.998L157.643 137.257Z" fill="#56B6CC"/>
</g>
</g>
<g opacity="0.2">
<g opacity="0.2">
<path opacity="0.2" d="M171.169 138.96L160.973 142.365C158.175 143.308 156.326 142.917 155.378 140.133C154.43 137.349 154.916 135.186 157.713 134.243L168.718 130.515C171.515 129.572 173.504 131.021 174.475 133.805C175.446 136.59 173.966 138.016 171.169 138.96ZM158.499 136.567C156.996 137.073 156.187 138.706 156.696 140.225C157.204 141.721 158.846 142.526 160.372 142.02L171.377 138.292C172.879 137.786 173.689 136.152 173.18 134.634C172.671 133.138 171.03 132.333 169.504 132.839L158.499 136.567Z" fill="#56B6CC"/>
</g>
</g>
<path d="M172.186 139.903L161.181 143.654C158.383 144.597 155.331 143.101 154.384 140.317C153.436 137.533 154.938 134.496 157.736 133.553L168.741 129.825C171.538 128.882 174.59 130.377 175.538 133.161C176.486 135.946 174.983 138.96 172.186 139.903ZM158.499 135.877C156.996 136.383 156.187 138.016 156.696 139.535C157.204 141.031 158.846 141.836 160.372 141.33L171.376 137.602C172.879 137.096 173.688 135.462 173.18 133.944C172.671 132.448 171.03 131.643 169.504 132.149L158.499 135.877Z" fill="#7AEDEA"/>
<g opacity="0.2">
<g opacity="0.2">
<path opacity="0.2" d="M196.113 126.719L186.842 132.908C184.345 134.496 181.409 134.933 179.814 132.448C178.218 129.963 178.935 126.673 181.432 125.085L191.235 118.849C193.732 117.262 196.159 118.596 197.754 121.058C199.35 123.52 198.587 125.131 196.113 126.719ZM182.773 127.133C181.432 127.984 181.039 129.779 181.894 131.113C182.75 132.448 184.553 132.839 185.894 131.988L195.697 125.752C197.038 124.901 197.431 123.106 196.575 121.772C195.72 120.437 193.916 120.046 192.576 120.897L182.773 127.133Z" fill="#56B6CC"/>
</g>
</g>
<g opacity="0.2">
<g opacity="0.2">
<path opacity="0.2" d="M196.554 128.79L186.751 135.025C184.254 136.613 180.948 135.899 179.353 133.414C177.757 130.929 178.474 127.639 180.971 126.051L190.774 119.816C193.271 118.228 196.577 118.942 198.172 121.427C199.767 123.912 199.05 127.202 196.554 128.79ZM180.671 126.949C179.33 127.8 180.578 130.768 181.433 132.103C182.289 133.437 184.092 133.829 185.433 132.977L195.236 126.742C196.577 125.89 198.449 122.393 197.594 121.058C196.739 119.724 192.323 119.287 190.982 120.138L180.671 126.949Z" fill="#56B6CC"/>
</g>
</g>
<path d="M196.554 127.478L186.751 133.714C184.254 135.301 180.948 134.588 179.353 132.103C177.757 129.618 178.474 126.328 180.971 124.74L190.774 118.504C193.271 116.917 196.577 117.63 198.172 120.115C199.767 122.6 199.05 125.89 196.554 127.478ZM182.312 126.811C180.971 127.662 180.578 129.457 181.433 130.791C182.289 132.126 184.092 132.517 185.433 131.666L195.236 125.43C196.577 124.579 196.97 122.784 196.114 121.45C195.259 120.115 193.456 119.724 192.115 120.575L182.312 126.811Z" fill="#7AEDEA"/>
<g opacity="0.2">
<g opacity="0.2">
<path opacity="0.2" d="M220.273 112.269L211.996 117.423C209.499 119.011 205.43 120.575 203.835 118.09C202.24 115.605 202.957 112.315 205.453 110.727L215.256 104.492C217.753 102.904 220.065 103.825 221.66 106.31C223.209 108.772 222.747 110.681 220.273 112.269ZM206.771 112.798C205.43 113.649 205.037 115.444 205.893 116.779C206.748 118.113 208.551 118.504 209.892 117.653L219.695 111.418C221.036 110.566 221.429 108.772 220.574 107.437C219.718 106.102 217.915 105.711 216.574 106.563L206.771 112.798Z" fill="#56B6CC"/>
</g>
</g>
<g opacity="0.2">
<g opacity="0.2">
<path opacity="0.2" d="M220.296 114.524L210.493 120.76C207.996 122.347 204.69 121.634 203.095 119.149C201.5 116.664 202.216 113.373 204.713 111.786L214.516 105.55C217.013 103.963 220.319 104.676 221.914 107.161C223.509 109.646 222.793 112.936 220.296 114.524ZM204.968 112.361C203.627 113.212 204.297 116.48 205.152 117.814C206.008 119.149 207.811 119.54 209.152 118.689L218.955 112.453C220.296 111.602 221.637 107.552 220.758 106.218C219.903 104.883 216.227 105.067 214.886 105.918L204.968 112.361Z" fill="#56B6CC"/>
</g>
</g>
<path d="M220.552 113.005L210.749 119.241C208.252 120.829 204.946 120.115 203.351 117.63C201.756 115.145 202.472 111.855 204.969 110.267L214.772 104.032C217.269 102.444 220.575 103.157 222.17 105.642C223.765 108.104 223.048 111.418 220.552 113.005ZM206.31 112.338C204.969 113.189 204.576 114.984 205.431 116.319C206.287 117.653 208.09 118.044 209.431 117.193L219.234 110.958C220.575 110.106 220.968 108.311 220.112 106.977C219.257 105.642 217.454 105.251 216.113 106.103L206.31 112.338Z" fill="#7AEDEA"/>
<g opacity="0.25">
<g opacity="0.25">
<path opacity="0.25" d="M83.3131 118.781C83.0357 118.781 82.7582 118.689 82.527 118.528L79.8683 116.618C79.7296 116.526 79.6602 116.319 79.7296 116.158L79.7989 115.974L75.6143 113.097L75.5218 113.167C75.3831 113.259 75.1982 113.259 75.0363 113.167L72.2389 111.165C71.6378 110.728 71.4528 109.899 71.869 109.278C72.3082 108.634 73.1637 108.496 73.7879 108.933L84.0529 116.319C84.6309 116.733 84.839 117.538 84.4691 118.137C84.2147 118.551 83.7524 118.781 83.3131 118.781Z" fill="#56B6CC"/>
</g>
</g>
<path d="M84.1932 118.918C83.8926 118.918 83.5921 118.826 83.3147 118.642L71.9167 110.451C71.2463 109.968 71.0844 109.024 71.57 108.357C72.0555 107.69 73.0034 107.529 73.6738 108.012L85.0717 116.203C85.7422 116.687 85.904 117.63 85.4185 118.297C85.118 118.711 84.6556 118.918 84.1932 118.918Z" fill="#9CF7F2"/>
<g opacity="0.25">
<g opacity="0.25">
<path opacity="0.25" d="M107.866 131.275C107.635 131.275 107.38 131.206 107.172 131.091L104.329 129.434C104.167 129.342 104.097 129.158 104.144 128.974L104.167 128.905L99.3811 126.121L99.3349 126.167C99.1962 126.305 98.9881 126.328 98.8262 126.236L96.1444 124.671C95.497 124.303 95.2196 123.474 95.5895 122.807C95.9594 122.117 96.8148 121.887 97.4853 122.278L108.56 128.744C109.207 129.135 109.438 129.963 109.045 130.607C108.791 131.045 108.328 131.275 107.866 131.275Z" fill="#56B6CC"/>
</g>
</g>
<path d="M108.768 131.367C108.513 131.367 108.259 131.298 108.005 131.16L95.867 124.096C95.1503 123.682 94.9191 122.761 95.3353 122.048C95.7514 121.335 96.6762 121.105 97.3929 121.519L109.531 128.583C110.247 128.997 110.479 129.917 110.062 130.631C109.785 131.114 109.276 131.367 108.768 131.367Z" fill="#9CF7F2"/>
<path d="M134.037 141.422C133.806 141.422 133.575 141.376 133.343 141.261L120.836 134.864C120.096 134.496 119.819 133.576 120.189 132.839C120.558 132.103 121.483 131.827 122.223 132.195L134.731 138.592C135.47 138.96 135.748 139.88 135.378 140.617C135.101 141.123 134.569 141.422 134.037 141.422Z" fill="#9CF7F2"/>
<path d="M146.337 145.126C145.736 145.126 145.158 144.758 144.927 144.16C144.627 143.378 145.02 142.526 145.806 142.227L158.938 137.257C159.724 136.958 160.579 137.349 160.88 138.132C161.18 138.914 160.787 139.765 160.001 140.064L146.869 145.034C146.684 145.103 146.499 145.126 146.337 145.126Z" fill="#9CF7F2"/>
<g opacity="0.25">
<g opacity="0.25">
<path opacity="0.25" d="M82.0416 182.907C81.5792 182.907 81.1399 182.677 80.9087 182.24C80.562 181.619 80.8163 180.837 81.4174 180.468L91.7518 174.118C92.3991 173.727 93.2545 173.957 93.6013 174.647C93.9019 175.245 93.6476 176.005 93.0696 176.35L91.1738 177.523C90.9426 177.661 90.642 177.638 90.434 177.431L90.3415 177.339L85.6251 180.1L85.6945 180.445C85.7407 180.675 85.6251 180.929 85.417 181.067L82.7352 182.7C82.504 182.838 82.2728 182.907 82.0416 182.907Z" fill="#56B6CC"/>
</g>
</g>
<path d="M80.7942 183.114C80.2856 183.114 79.8 182.861 79.5226 182.401C79.0833 181.688 79.3145 180.767 80.0081 180.353L91.984 173.013C92.7007 172.576 93.6255 172.806 94.0416 173.496C94.4809 174.21 94.2497 175.13 93.5561 175.544L81.5802 182.884C81.3259 183.045 81.0716 183.114 80.7942 183.114Z" fill="#9CF7F2"/>
<g opacity="0.25">
<g opacity="0.25">
<path opacity="0.25" d="M106.548 170.091C106.109 170.091 105.693 169.884 105.438 169.47C105.069 168.872 105.254 168.067 105.855 167.698L116.212 161.348C116.86 160.957 117.715 161.187 118.062 161.877C118.362 162.475 118.108 163.212 117.53 163.58L115.334 164.937C115.102 165.075 114.802 165.052 114.594 164.845L114.455 164.707L109.97 167.537L110.016 167.721C110.086 167.974 109.97 168.228 109.762 168.366L107.219 169.93C107.011 170.022 106.779 170.091 106.548 170.091Z" fill="#56B6CC"/>
</g>
</g>
<path d="M105.277 170.23C104.768 170.23 104.282 169.976 104.005 169.516C103.566 168.803 103.797 167.883 104.491 167.468L116.466 160.128C117.183 159.691 118.108 159.921 118.524 160.612C118.963 161.325 118.732 162.245 118.039 162.659L106.063 169.999C105.808 170.161 105.554 170.23 105.277 170.23Z" fill="#9CF7F2"/>
<path d="M131.147 160.128C130.315 160.128 129.645 159.461 129.645 158.633C129.645 157.804 130.315 157.137 131.147 157.137H145.204C146.036 157.137 146.707 157.804 146.707 158.633C146.707 159.461 146.036 160.128 145.204 160.128H131.147Z" fill="#9CF7F2"/>
<g opacity="0.25">
<g opacity="0.25">
<path opacity="0.25" d="M171.746 165.72C171.561 165.72 171.399 165.674 171.214 165.605L169.757 164.96C169.526 164.845 169.364 164.615 169.387 164.362L169.411 163.856L163.353 161.233L163.145 161.532C162.96 161.762 162.66 161.854 162.382 161.739L160.117 160.75C159.469 160.473 159.122 159.714 159.377 159.047C159.654 158.357 160.44 158.057 161.111 158.334L172.231 163.212C172.879 163.488 173.225 164.224 172.971 164.868C172.763 165.397 172.254 165.72 171.746 165.72Z" fill="#56B6CC"/>
</g>
</g>
<path d="M173.179 165.719C172.971 165.719 172.763 165.673 172.578 165.581L159.7 159.944C158.937 159.622 158.591 158.725 158.937 157.965C159.261 157.206 160.163 156.861 160.926 157.206L173.803 162.843C174.566 163.165 174.913 164.063 174.566 164.822C174.312 165.374 173.757 165.719 173.179 165.719Z" fill="#9CF7F2"/>
<g opacity="0.25">
<g opacity="0.25">
<path opacity="0.25" d="M198.033 175.774C197.848 175.774 197.686 175.728 197.501 175.659L195.166 174.624C194.889 174.509 194.704 174.233 194.704 173.934V173.404L190.057 171.311L189.71 171.679C189.479 171.909 189.155 171.978 188.855 171.863L186.312 170.758C185.71 170.482 185.341 169.815 185.549 169.171C185.78 168.411 186.612 168.02 187.329 168.342L198.519 173.243C199.166 173.52 199.513 174.256 199.258 174.923C199.05 175.452 198.542 175.774 198.033 175.774Z" fill="#56B6CC"/>
</g>
</g>
<path d="M199.304 175.729C199.096 175.729 198.888 175.683 198.703 175.59L185.825 169.953C185.062 169.631 184.716 168.734 185.062 167.974C185.409 167.215 186.288 166.87 187.051 167.215L199.928 172.852C200.691 173.175 201.038 174.072 200.691 174.831C200.437 175.406 199.882 175.729 199.304 175.729Z" fill="#9CF7F2"/>
<g opacity="0.25">
<g opacity="0.25">
<path opacity="0.25" d="M219.534 186.129C219.396 186.129 219.234 186.106 219.095 186.037L209.87 181.987C209.316 181.757 209.084 181.113 209.316 180.584C209.547 180.031 210.194 179.801 210.726 180.031L219.95 184.081C220.505 184.311 220.737 184.955 220.505 185.485C220.343 185.899 219.95 186.129 219.534 186.129Z" fill="#56B6CC"/>
</g>
</g>
<path d="M223.093 187.003C222.885 187.003 222.677 186.957 222.492 186.865L209.614 181.228C208.852 180.906 208.505 180.008 208.852 179.249C209.175 178.49 210.077 178.144 210.84 178.49L223.717 184.127C224.48 184.449 224.827 185.346 224.48 186.106C224.226 186.681 223.671 187.003 223.093 187.003Z" fill="#9CF7F2"/>
<g opacity="0.25">
<g opacity="0.25">
<path opacity="0.25" d="M171.076 136.889C170.498 136.889 169.966 136.544 169.758 135.992C169.481 135.278 169.851 134.45 170.568 134.174L182.867 129.503C183.607 129.227 184.439 129.595 184.694 130.354C184.948 131.068 184.532 131.873 183.815 132.149L180.856 133.277C180.648 133.346 180.416 133.3 180.231 133.162L179.862 132.793L175.769 134.404V134.795C175.769 135.048 175.631 135.255 175.4 135.347L171.562 136.797C171.423 136.866 171.261 136.889 171.076 136.889Z" fill="#56B6CC"/>
</g>
</g>
<path d="M170.22 136.751C169.619 136.751 169.041 136.383 168.81 135.785C168.509 135.002 168.902 134.151 169.688 133.852L182.82 128.882C183.606 128.583 184.462 128.974 184.762 129.756C185.063 130.538 184.67 131.39 183.884 131.689L170.752 136.659C170.567 136.728 170.382 136.751 170.22 136.751Z" fill="#9CF7F2"/>
<g opacity="0.25">
<g opacity="0.25">
<path opacity="0.25" d="M195.56 124.303C195.028 124.303 194.496 123.981 194.288 123.428C194.034 122.784 194.334 122.048 194.935 121.726L206.056 115.49C206.726 115.122 207.582 115.352 207.952 116.042C208.298 116.71 208.021 117.515 207.35 117.883L205.293 119.034C205.085 119.149 204.854 119.126 204.669 118.987L204.461 118.803L198.889 121.818L198.935 122.186C198.958 122.416 198.866 122.623 198.658 122.738L196.207 124.119C196.022 124.234 195.791 124.303 195.56 124.303Z" fill="#56B6CC"/>
</g>
</g>
<path d="M194.703 124.303C194.171 124.303 193.663 124.026 193.385 123.543C192.969 122.83 193.223 121.91 193.963 121.495L206.217 114.639C206.933 114.224 207.858 114.478 208.274 115.214C208.69 115.95 208.436 116.848 207.696 117.262L195.443 124.118C195.212 124.234 194.957 124.303 194.703 124.303Z" fill="#9CF7F2"/>
<g opacity="0.2">
<path opacity="0.2" d="M71.7083 108.219C71.7083 108.219 72.4713 107.299 73.6966 108.035L75.3612 109.232C75.3612 109.232 75.7542 107.322 73.7891 106.217L63.3853 101.04C63.3853 101.04 62.5068 100.58 61.7901 100.764C61.7438 101.731 61.7901 104.975 61.7901 106.678C61.9288 106.539 62.4143 105.964 62.6455 104.745C62.8073 103.916 63.7784 103.525 64.4719 104.008L71.7083 108.219Z" fill="#56B6CC"/>
</g>
<g opacity="0.2">
<path opacity="0.2" d="M79.383 182.148C79.383 182.148 78.9206 181.136 80.0072 180.353L82.1573 179.019C82.1573 179.019 80.7701 177.822 78.9437 178.812L68.8867 184.61C68.8867 184.61 66.5054 186.29 67.8232 188.545C67.8232 188.545 68.9561 190.708 71.7767 189.603L70.9675 188.568C70.5282 188.015 70.7132 187.187 71.3374 186.865L79.383 182.148Z" fill="#56B6CC"/>
</g>
<path d="M141.621 113.443C133.946 118.183 123.057 119.402 117.693 119.725C115.913 119.84 114.595 121.404 114.803 123.153C119.196 158.978 136.466 171.357 141.737 174.349C142.685 174.878 143.841 174.878 144.789 174.349C150.06 171.38 167.33 159.001 171.723 123.153C171.931 121.381 170.613 119.817 168.833 119.725C163.469 119.402 152.603 118.183 144.904 113.443C143.887 112.822 142.616 112.822 141.621 113.443Z" fill="url(#paint11_linear_2568_59688)"/>
<path opacity="0.3" d="M143.264 113.627V174.141C143.264 174.601 143.749 174.878 144.142 174.671C148.442 172.416 167.054 160.658 171.677 123.36C171.909 121.496 170.521 119.816 168.626 119.701C163.054 119.356 151.933 118.045 144.304 113.075C143.865 112.775 143.264 113.098 143.264 113.627Z" fill="url(#paint12_linear_2568_59688)"/>
<path d="M147.772 140.479C147.772 137.994 145.737 135.969 143.24 135.969C140.743 135.969 138.709 137.994 138.709 140.479C138.709 141.813 139.287 143.01 140.212 143.838L138.755 151.73H147.702L146.246 143.838C147.194 143.01 147.772 141.813 147.772 140.479Z" fill="#00BABA"/>
<path d="M233.36 36.7988H225.314V208.057H233.36V36.7988Z" fill="url(#paint13_linear_2568_59688)"/>
<path d="M237.821 36.7988H233.359V208.057H237.821V36.7988Z" fill="url(#paint14_linear_2568_59688)"/>
<path d="M254.86 0.375H208.274C203.743 0.375 200.09 4.03348 200.09 8.52029V54.9071C200.09 59.4169 203.766 63.0524 208.274 63.0524H254.86C259.391 63.0524 263.044 59.3939 263.044 54.9071V8.52029C263.044 4.01047 259.391 0.375 254.86 0.375Z" fill="url(#paint15_linear_2568_59688)"/>
<path d="M231.81 5.96631C232.691 5.96631 233.405 5.2555 233.405 4.37866C233.405 3.50183 232.691 2.79102 231.81 2.79102C230.929 2.79102 230.215 3.50183 230.215 4.37866C230.215 5.2555 230.929 5.96631 231.81 5.96631Z" fill="#61AAA6"/>
<path d="M231.81 60.2915C232.691 60.2915 233.405 59.5807 233.405 58.7039C233.405 57.827 232.691 57.1162 231.81 57.1162C230.929 57.1162 230.215 57.827 230.215 58.7039C230.215 59.5807 230.929 60.2915 231.81 60.2915Z" fill="#61AAA6"/>
<path d="M231.557 13.7896C221.639 13.7896 213.547 21.8198 213.547 31.7138C213.547 41.5848 221.616 49.6381 231.557 49.6381C241.498 49.6381 249.567 41.6078 249.567 31.7138C249.567 21.8198 241.498 13.7896 231.557 13.7896ZM246.099 31.7138C246.099 35.0732 244.943 38.1794 242.978 40.6414L222.587 20.3472C225.06 18.4144 228.181 17.2409 231.557 17.2409C239.579 17.2409 246.099 23.7296 246.099 31.7138ZM217.038 31.7138C217.038 28.3545 218.194 25.2482 220.159 22.7862L240.55 43.0804C238.077 45.0132 234.955 46.1867 231.58 46.1867C223.558 46.1637 217.038 39.675 217.038 31.7138Z" fill="#CCFFFC"/>
<path d="M292.73 216.617C279.506 210.657 257.011 206.746 231.464 206.746C205.917 206.746 183.422 210.657 170.197 216.617H292.73Z" fill="url(#paint16_linear_2568_59688)"/>
<path d="M52.6801 222.852V219.032L48.4492 217.882V221.816L52.6801 222.852Z" fill="#B6FFFA"/>
<path d="M4.70774 211.048V207.229L0.5 206.055V209.99L4.70774 211.048Z" fill="#B6FFFA"/>
<path d="M48.4492 217.882L52.6801 219.032L78.2733 212.889L73.8575 211.738L48.4492 217.882Z" fill="#00BABA"/>
<path d="M4.70774 207.228L30.3241 201.2L26.0239 199.912L0.5 206.055L4.70774 207.228Z" fill="#00BABA"/>
<path d="M52.6797 219.032V222.852L78.296 216.824V212.889L52.6797 219.032ZM68.7015 176.327L64.2625 178.49V216.133L69.0714 214.983L68.7015 176.327Z" fill="url(#paint17_linear_2568_59688)"/>
<path d="M64.264 216.133L60.3105 215.006V177.73L64.264 178.49V216.133Z" fill="url(#paint18_linear_2568_59688)"/>
<path d="M18.0469 204.076L21.1218 203.363V170.391L16.5904 165.122V204.421L4.70703 207.229V211.048L30.3234 205.02V201.2L18.0469 204.076Z" fill="url(#paint19_linear_2568_59688)"/>
<path d="M16.5921 204.421V165.122L12.6387 167.837V203.133L16.5921 204.421Z" fill="url(#paint20_linear_2568_59688)"/>
<path d="M67.4534 199.796V190.087L6.00195 175.476V185.324L67.4534 199.796Z" fill="#9DEDE9"/>
<path d="M67.4531 190.086L72.3313 188.798V198.301L67.4531 199.796V190.086Z" fill="#B6FFFA"/>
<path d="M72.3316 188.798L67.4534 190.087L6.00195 175.476L10.7646 174.325L72.3316 188.798Z" fill="#B6FFFA"/>
<path d="M67.4531 181.734V172.001L72.3313 170.851V180.699L67.4531 181.734Z" fill="#B6FFFA"/>
<path d="M67.4534 181.734L6.00195 167.607V157.414L67.4534 172.001V181.734Z" fill="#9DEDE9"/>
<path d="M72.3316 170.851L67.4534 172.001L6.00195 157.413L10.7646 156.378L72.3316 170.851Z" fill="#B6FFFA"/>
<path d="M67.5233 169.746L63.1768 171.012L57.998 179.732L63.1768 180.814L67.5233 173.934V172.162L72.3321 171.012L67.5233 169.746Z" fill="url(#paint21_linear_2568_59688)"/>
<path d="M57.0277 167.376L52.7969 168.596L47.8262 177.178L52.7969 178.26L57.9987 169.838L62.7613 168.711L57.0277 167.376Z" fill="url(#paint22_linear_2568_59688)"/>
<path d="M46.3912 164.938L42.5534 166.203L37.4902 174.855L42.5534 175.913L47.8246 167.446L52.0324 166.203L46.3912 164.938Z" fill="url(#paint23_linear_2568_59688)"/>
<path d="M36.2654 162.613L32.0808 163.971L26.8789 172.323L32.0808 173.428L37.4907 164.891L41.606 163.833L36.2654 162.613Z" fill="url(#paint24_linear_2568_59688)"/>
<path d="M25.838 160.083L21.6765 161.417L16.4746 169.93L21.6765 171.012L26.8784 162.729L31.2479 161.417L25.838 160.083Z" fill="url(#paint25_linear_2568_59688)"/>
<path d="M15.3198 157.689L11.2739 158.955L5.91016 167.606L11.2739 168.711L16.4757 160.105L20.8916 158.955L15.3198 157.689Z" fill="url(#paint26_linear_2568_59688)"/>
<path d="M67.5233 187.533L63.1768 188.775L57.998 197.519L63.1768 198.6L67.5233 191.72V189.949L72.3321 188.775L67.5233 187.533Z" fill="url(#paint27_linear_2568_59688)"/>
<path d="M57.0277 185.163L52.7969 186.382L47.8262 194.965L52.7969 196.046L57.9987 187.625L62.7613 186.474L57.0277 185.163Z" fill="url(#paint28_linear_2568_59688)"/>
<path d="M46.3912 182.724L42.5534 183.989L37.4902 192.641L42.5534 193.676L47.8246 185.232L52.0324 183.989L46.3912 182.724Z" fill="url(#paint29_linear_2568_59688)"/>
<path d="M36.2654 180.399L32.0808 181.757L26.8789 190.086L32.0808 191.214L37.4907 182.677L41.606 181.619L36.2654 180.399Z" fill="url(#paint30_linear_2568_59688)"/>
<path d="M25.838 177.846L21.6765 179.203L16.4746 187.694L21.6765 188.775L26.8784 180.515L31.2479 179.203L25.838 177.846Z" fill="url(#paint31_linear_2568_59688)"/>
<path d="M15.3198 175.476L11.2739 176.741L5.91016 185.393L11.2739 186.474L16.4757 177.892L20.8916 176.741L15.3198 175.476Z" fill="url(#paint32_linear_2568_59688)"/>
</g>
<defs>
<linearGradient id="paint0_linear_2568_59688" x1="82.868" y1="199.759" x2="94.7192" y2="199.759" gradientUnits="userSpaceOnUse">
<stop stop-color="#B8FFFD"/>
<stop offset="1" stop-color="#78D6D1"/>
</linearGradient>
<linearGradient id="paint1_linear_2568_59688" x1="182.835" y1="199.759" x2="194.686" y2="199.759" gradientUnits="userSpaceOnUse">
<stop stop-color="#B8FFFD"/>
<stop offset="1" stop-color="#78D6D1"/>
</linearGradient>
<linearGradient id="paint2_linear_2568_59688" x1="61.761" y1="137.754" x2="221.949" y2="137.754" gradientUnits="userSpaceOnUse">
<stop stop-color="#B8FFFD"/>
<stop offset="1" stop-color="#00BABA"/>
</linearGradient>
<linearGradient id="paint3_linear_2568_59688" x1="87.3131" y1="117.284" x2="96.8374" y2="109.423" gradientUnits="userSpaceOnUse">
<stop stop-color="#B8FFFD"/>
<stop offset="1" stop-color="#78D6D1"/>
</linearGradient>
<linearGradient id="paint4_linear_2568_59688" x1="87.3131" y1="169.595" x2="96.8374" y2="161.734" gradientUnits="userSpaceOnUse">
<stop stop-color="#B8FFFD"/>
<stop offset="1" stop-color="#78D6D1"/>
</linearGradient>
<linearGradient id="paint5_linear_2568_59688" x1="150.452" y1="137.754" x2="191.089" y2="137.754" gradientUnits="userSpaceOnUse">
<stop stop-color="#B8FFFD"/>
<stop offset="1" stop-color="#78D6D1"/>
</linearGradient>
<linearGradient id="paint6_linear_2568_59688" x1="145.091" y1="149.903" x2="178.558" y2="109.828" gradientUnits="userSpaceOnUse">
<stop offset="0.00558659" stop-color="#56B6CC" stop-opacity="0"/>
<stop offset="0.5" stop-color="#00BABA"/>
<stop offset="1" stop-color="#00BABA" stop-opacity="0"/>
</linearGradient>
<linearGradient id="paint7_linear_2568_59688" x1="199.112" y1="129.278" x2="160.913" y2="165.07" gradientUnits="userSpaceOnUse">
<stop stop-color="white" stop-opacity="0"/>
<stop offset="0.5" stop-color="white" stop-opacity="0.5"/>
<stop offset="1" stop-color="#00BABA" stop-opacity="0"/>
</linearGradient>
<linearGradient id="paint8_linear_2568_59688" x1="205.024" y1="103.614" x2="210.767" y2="117.319" gradientUnits="userSpaceOnUse">
<stop stop-color="#6BC1BF"/>
<stop offset="1" stop-color="#B8FFFD"/>
</linearGradient>
<linearGradient id="paint9_linear_2568_59688" x1="205.492" y1="160.142" x2="210.336" y2="173.483" gradientUnits="userSpaceOnUse">
<stop stop-color="#6BC1BF"/>
<stop offset="1" stop-color="#B8FFFD"/>
</linearGradient>
<linearGradient id="paint10_linear_2568_59688" x1="89.8313" y1="137.422" x2="94.4534" y2="137.422" gradientUnits="userSpaceOnUse">
<stop stop-color="#B8FFFD"/>
<stop offset="1" stop-color="#78D6D1"/>
</linearGradient>
<linearGradient id="paint11_linear_2568_59688" x1="143.255" y1="117.423" x2="143.255" y2="172.801" gradientUnits="userSpaceOnUse">
<stop stop-color="#CCFFFC"/>
<stop offset="1" stop-color="#00BABA"/>
</linearGradient>
<linearGradient id="paint12_linear_2568_59688" x1="157.484" y1="171.174" x2="157.484" y2="117.141" gradientUnits="userSpaceOnUse">
<stop stop-color="#CCFFFC"/>
<stop offset="1" stop-color="#00BABA"/>
</linearGradient>
<linearGradient id="paint13_linear_2568_59688" x1="229.332" y1="208.051" x2="229.332" y2="36.798" gradientUnits="userSpaceOnUse">
<stop stop-color="#3ADDD4"/>
<stop offset="1" stop-color="#B8FFFD"/>
</linearGradient>
<linearGradient id="paint14_linear_2568_59688" x1="235.59" y1="208.051" x2="235.59" y2="36.798" gradientUnits="userSpaceOnUse">
<stop stop-color="#B8FFFD"/>
<stop offset="1" stop-color="#3ADDD4"/>
</linearGradient>
<linearGradient id="paint15_linear_2568_59688" x1="231.566" y1="63.0411" x2="231.566" y2="0.364943" gradientUnits="userSpaceOnUse">
<stop stop-color="#3ADDD4"/>
<stop offset="1" stop-color="#B8FFFD"/>
</linearGradient>
<linearGradient id="paint16_linear_2568_59688" x1="231.468" y1="215.6" x2="231.468" y2="206.945" gradientUnits="userSpaceOnUse">
<stop stop-color="#E9FFFE"/>
<stop offset="1" stop-color="#00BABA"/>
</linearGradient>
<linearGradient id="paint17_linear_2568_59688" x1="52.6707" y1="199.593" x2="78.2767" y2="199.593" gradientUnits="userSpaceOnUse">
<stop stop-color="#6BC1BF"/>
<stop offset="1" stop-color="#B8FFFD"/>
</linearGradient>
<linearGradient id="paint18_linear_2568_59688" x1="62.2907" y1="216.124" x2="62.2907" y2="177.738" gradientUnits="userSpaceOnUse">
<stop stop-color="#6BC1BF"/>
<stop offset="1" stop-color="#B8FFFD"/>
</linearGradient>
<linearGradient id="paint19_linear_2568_59688" x1="4.71783" y1="188.077" x2="30.3238" y2="188.077" gradientUnits="userSpaceOnUse">
<stop stop-color="#6BC1BF"/>
<stop offset="1" stop-color="#B8FFFD"/>
</linearGradient>
<linearGradient id="paint20_linear_2568_59688" x1="14.6113" y1="204.427" x2="14.6113" y2="165.112" gradientUnits="userSpaceOnUse">
<stop stop-color="#6BC1BF"/>
<stop offset="1" stop-color="#B8FFFD"/>
</linearGradient>
<linearGradient id="paint21_linear_2568_59688" x1="69.9781" y1="169.471" x2="60.4001" y2="178.629" gradientUnits="userSpaceOnUse">
<stop stop-color="#00BABA"/>
<stop offset="1" stop-color="#CCFFFC"/>
</linearGradient>
<linearGradient id="paint22_linear_2568_59688" x1="59.4939" y1="167.422" x2="49.3726" y2="176.583" gradientUnits="userSpaceOnUse">
<stop stop-color="#00BABA"/>
<stop offset="1" stop-color="#CCFFFC"/>
</linearGradient>
<linearGradient id="paint23_linear_2568_59688" x1="47.9024" y1="165.505" x2="40.0311" y2="174.655" gradientUnits="userSpaceOnUse">
<stop stop-color="#00BABA"/>
<stop offset="1" stop-color="#CCFFFC"/>
</linearGradient>
<linearGradient id="paint24_linear_2568_59688" x1="29.66" y1="172.93" x2="36.9882" y2="163.629" gradientUnits="userSpaceOnUse">
<stop stop-color="#CCFFFC"/>
<stop offset="1" stop-color="#00BABA"/>
</linearGradient>
<linearGradient id="paint25_linear_2568_59688" x1="19.6085" y1="170.424" x2="26.8581" y2="160.815" gradientUnits="userSpaceOnUse">
<stop stop-color="#CCFFFC"/>
<stop offset="1" stop-color="#00BABA"/>
</linearGradient>
<linearGradient id="paint26_linear_2568_59688" x1="8.33421" y1="167.447" x2="16.7477" y2="158.141" gradientUnits="userSpaceOnUse">
<stop stop-color="#CCFFFC"/>
<stop offset="1" stop-color="#00BABA"/>
</linearGradient>
<linearGradient id="paint27_linear_2568_59688" x1="68.6934" y1="187.891" x2="60.5871" y2="196.501" gradientUnits="userSpaceOnUse">
<stop stop-color="#00BABA"/>
<stop offset="1" stop-color="#CCFFFC"/>
</linearGradient>
<linearGradient id="paint28_linear_2568_59688" x1="55.2911" y1="196.041" x2="55.2911" y2="185.152" gradientUnits="userSpaceOnUse">
<stop stop-color="#CCFFFC"/>
<stop offset="1" stop-color="#00BABA"/>
</linearGradient>
<linearGradient id="paint29_linear_2568_59688" x1="44.7659" y1="193.685" x2="44.7659" y2="182.72" gradientUnits="userSpaceOnUse">
<stop stop-color="#CCFFFC"/>
<stop offset="1" stop-color="#00BABA"/>
</linearGradient>
<linearGradient id="paint30_linear_2568_59688" x1="34.2427" y1="191.214" x2="34.2427" y2="180.403" gradientUnits="userSpaceOnUse">
<stop stop-color="#CCFFFC"/>
<stop offset="1" stop-color="#00BABA"/>
</linearGradient>
<linearGradient id="paint31_linear_2568_59688" x1="23.8639" y1="188.782" x2="23.8639" y2="177.854" gradientUnits="userSpaceOnUse">
<stop stop-color="#CCFFFC"/>
<stop offset="1" stop-color="#00BABA"/>
</linearGradient>
<linearGradient id="paint32_linear_2568_59688" x1="13.4093" y1="186.484" x2="13.4093" y2="175.48" gradientUnits="userSpaceOnUse">
<stop stop-color="#CCFFFC"/>
<stop offset="1" stop-color="#00BABA"/>
</linearGradient>
</defs>
</svg>
