<svg xmlns="http://www.w3.org/2000/svg" width="46" height="46" viewBox="0 0 46 46">
  <g id="BUY" transform="translate(0 0)">
    <g id="Group_16075" data-name="Group 16075" transform="translate(0 0)">
      <g id="Group_16074" data-name="Group 16074">
        <path id="Path_27465" data-name="Path 27465" d="M44.886,15.9h-4.1A19.177,19.177,0,1,1,29.289,4.9V.871A22.965,22.965,0,1,0,44.886,15.9Z" transform="translate(0 0)" fill="#515154"/>
      </g>
    </g>
    <g id="Group_16077" data-name="Group 16077" transform="translate(13.362 9.372)">
      <g id="Group_16076" data-name="Group 16076">
        <path id="Path_27466" data-name="Path 27466" d="M166.334,119.093a4.267,4.267,0,0,0,2.117-4.408c-.365-2.729-3.614-3.76-6.187-3.979V106.6h-2.528v4.07h-1.707V106.6H155.5v4.07h-5.1v2.619h1.9c.849,0,1.268.256,1.268.94V125.49c0,.94-.475,1.232-.976,1.232h-1.935V129.4h4.919v4.161h2.546V129.4h1.7v4.161h2.473V129.4h.538c5.211,0,6.945-2.546,6.945-6.023A4.482,4.482,0,0,0,166.334,119.093Zm-8.3-5.64h1.807c1.268,0,3.76.219,3.76,2.281a2.542,2.542,0,0,1-2.227,2.692h-3.34Zm2.8,13.023v-.018h-2.8v-5.421h3.258c.757,0,3.614.256,3.614,2.281S163.541,126.476,160.831,126.476Z" transform="translate(-150.4 -106.6)" fill="#515154"/>
      </g>
    </g>
    <path id="Path_27467" data-name="Path 27467" d="M344.013,74.871H333.135A2.138,2.138,0,0,1,331,72.735h0a2.138,2.138,0,0,1,2.135-2.135h10.878a2.138,2.138,0,0,1,2.135,2.135h0A2.138,2.138,0,0,1,344.013,74.871Z" transform="translate(-301.518 -64.157)" fill="#515154"/>
    <path id="Path_27468" data-name="Path 27468" d="M390.6,24.013V13.135A2.138,2.138,0,0,1,392.735,11h0a2.138,2.138,0,0,1,2.135,2.135V24.013a2.138,2.138,0,0,1-2.135,2.135h0A2.138,2.138,0,0,1,390.6,24.013Z" transform="translate(-355.679 -9.996)" fill="#515154"/>
  </g>
</svg>
