<?xml version="1.0" encoding="utf-8"?>
<!-- Generator: Adobe Illustrator 25.3.1, SVG Export Plug-In . SVG Version: 6.00 Build 0)  -->
<svg version="1.1" id="Layer_1" xmlns="http://www.w3.org/2000/svg" xmlns:xlink="http://www.w3.org/1999/xlink" x="0px" y="0px"
	 viewBox="0 0 131.2 131" style="enable-background:new 0 0 131.2 131;" xml:space="preserve">
<style type="text/css">
	.st0{fill:none;stroke:#000000;stroke-width:2;stroke-miterlimit:10;}
	.st1{fill:#EDEDED;}
	.st2{fill:#FFFFFF;}
	.st3{opacity:0.3;}
	.st4{clip-path:url(#SVGID_2_);fill:#FFFFFF;}
</style>
<image style="overflow:visible;" width="944" height="624" xlink:href="3EB757C3.jpg"  transform="matrix(1 0 0 1 712.0097 -300.88)">
</image>
<line class="st0" x1="1008.7" y1="-73.9" x2="1008.7" y2="-129.7"/>
<g>
	<path class="st1" d="M65.7,0C29.6,0,0.3,29.3,0.3,65.5s29.3,65.5,65.5,65.5s65.5-29.3,65.5-65.5S101.9,0,65.7,0z M65.7,109.3
		c-24.2,0-43.8-19.6-43.8-43.8s19.6-43.8,43.8-43.8s43.8,19.6,43.8,43.8S89.9,109.3,65.7,109.3z"/>
	<g>
		<rect x="65.1" class="st2" width="1.1" height="21.6"/>
	</g>
	<g>
		<rect x="0.3" y="64.9" class="st2" width="21.6" height="1.1"/>
	</g>
	<g>
		<rect x="65.1" y="109.3" class="st2" width="1.1" height="21.6"/>
	</g>
	<g>
		<rect x="109.6" y="64.9" class="st2" width="21.6" height="1.1"/>
	</g>
	<g class="st3">
		<defs>
			<circle id="SVGID_1_" class="st3" cx="65.5" cy="65.5" r="65.5"/>
		</defs>
		<clipPath id="SVGID_2_">
			<use xlink:href="#SVGID_1_"  style="overflow:visible;"/>
		</clipPath>
		<path class="st4" d="M63.4-5.7L63.4-5.7L79.6,6.4l8.1,24.1l0,0L104,42.6l8.1,24.1l0,0l16.2,12.1l5.5,16.2v-0.5l-5.3-15.8l0,0
			l-16.2-12.1l-8.1-24.1l0,0L87.8,30.4L79.7,6.3l0,0L63.5-5.8l-8.1-24.1l0,0l-10.7-7.9h-0.3l10.9,8.1L63.4-5.7z M61.3-2.7L61.3-2.7
			L77.6,9.4l8.1,24.1l0,0l16.2,12.1l8.1,24.1l0,0l16.2,12.1l7.5,22.2v-0.5l-7.4-21.9l0,0l-16.2-12.1l-8.1-24.1l0,0L85.8,33.4
			L77.7,9.3l0,0L61.5-2.8l-8.1-24.1l0,0L38.6-37.9h-0.3l15,11.1L61.3-2.7z M20.7-14.7L37-2.6l8.1,24.1l0,0l16.2,12.1l8.1,24.1l0,0
			l16.2,12.1l8.1,24.1l0,0l16.2,12.1l8.1,24.1l0,0l15.6,11.6v-0.2l-15.5-11.5l-8.1-24.1l0,0L93.9,93.7l-8.1-24.1l0,0L69.6,57.5
			l-8.1-24.1l0,0L45.2,21.3L37.1-2.8l0,0L20.9-14.9l-7.7-23h-0.2L20.7-14.7L20.7-14.7z M22.8-17.7L39-5.7l8.1,24.1l0,0l16.2,12.1
			l8.1,24.1l0,0l16.2,12.1l8.1,24.1l0,0l16.2,12.1l8.1,24.1l0,0l13.6,10.1v-0.2l-13.5-10l-8.1-24.1l0,0L96,90.6l-8.1-24.1l0,0
			L71.6,54.5l-8.1-24.1l0,0L47.2,18.3L39.1-5.8l0,0L22.9-17.9l-6.7-20H16L22.8-17.7L22.8-17.7z M81.6-32.8l16.2,12.1L106,3.4l0,0
			l16.2,12.1l8.1,24.1l0,0l3.4,2.5v-0.2l-3.3-2.5l-8.1-24.1l0,0L106.1,3.2L98-20.9l0,0L81.8-32.9l-1.7-4.9h-0.2L81.6-32.8L81.6-32.8
			z M83.7-35.8l16.2,12.1L108,0.3l0,0l16.2,12.1l8.1,24.1l0,0l1.4,1v-0.2l-1.3-1l-8.1-24.1l0,0L108.1,0.2L100-23.9l0,0L83.8-36
			l-0.6-1.9H83L83.7-35.8L83.7-35.8z M67.4-11.7L67.4-11.7L83.7,0.4l8.1,24.1l0,0L108,36.6l8.1,24.1l0,0l16.2,12.1l1.4,4.1v-0.5
			l-1.3-3.8l0,0l-16.2-12.1l-8.1-24.1l0,0L91.9,24.3L83.8,0.2l0,0L67.5-11.8l-8.1-24.1l0,0l-2.6-1.9h-0.3l2.8,2.1L67.4-11.7z
			 M65.4-8.7L65.4-8.7L81.6,3.4l8.1,24.1l0,0L106,39.6l8.1,24.1l0,0l16.2,12.1l3.4,10.2v-0.5l-3.3-9.8l0,0l-16.2-12.1l-8.1-24.1l0,0
			L89.9,27.3L81.8,3.3l0,0L65.5-8.8l-8.1-24.1l0,0l-6.6-4.9h-0.3l6.8,5.1L65.4-8.7z M30.9-29.8l16.2,12.1l8.1,24.1l0,0l16.2,12.1
			l8.1,24.1l0,0l16.2,12.1l8.1,24.1l0,0l16.2,12.1l8.1,24.1l0,0l5.5,4v-0.2l-5.3-4l-8.1-24.1l0,0l-16.2-12.1L96,54.5l0,0L79.7,42.4
			l-8.1-24.1l0,0L55.4,6.2l-8.1-24.1l0,0L31-29.9l-2.7-7.9h-0.2L30.9-29.8L30.9-29.8z M35-35.8l16.2,12.1l8.1,24.1l0,0l16.2,12.1
			l8.1,24.1l0,0l16.2,12.1l8.1,24.1l0,0l16.2,12.1l8.1,24.1l0,0l1.4,1v-0.2l-1.3-1l-8.1-24.1l0,0l-16.2-12.1L100,48.5l0,0L83.8,36.4
			l-8.1-24.1l0,0L59.4,0.2l-8.1-24.1l0,0L35.1-36l-0.6-1.9h-0.2L35-35.8L35-35.8z M32.9-32.8l16.2,12.1l8.1,24.1l0,0l16.2,12.1
			l8.1,24.1l0,0l16.2,12.1l8.1,24.1l0,0l16.2,12.1l8.1,24.1l0,0l3.4,2.5v-0.2l-3.3-2.5l-8.1-24.1l0,0l-16.2-12.1L98,51.5l0,0
			L81.8,39.4l-8.1-24.1l0,0L57.4,3.2l-8.1-24.1l0,0L33-32.9l-1.7-4.9h-0.2L32.9-32.8L32.9-32.8z M24.8-20.7L41-8.7l8.1,24.1l0,0
			l16.2,12.1l8.1,24.1l0,0l16.2,12.1l8.1,24.1l0,0l16.2,12.1l8.1,24.1l0,0l11.5,8.6v-0.2l-11.4-8.5l-8.1-24.1l0,0L98,87.6l-8.1-24.1
			l0,0L73.6,51.5l-8.1-24.1l0,0L49.3,15.3L41.2-8.8l0,0L24.9-20.9l-5.7-17H19L24.8-20.7L24.8-20.7z M18.7-11.7L18.7-11.7L35,0.4
			l8.1,24.1l0,0l16.2,12.1l8.1,24.1l0,0l16.2,12.1l8.1,24.1l0,0l16.2,12.1l8.1,24.1l0,0l16.2,12.1l1.4,4.1v-0.5l-1.3-3.8l0,0
			l-16.2-12.1l-8.1-24.1l0,0L91.9,96.7l-8.1-24.1l0,0L67.5,60.5l-8.1-24.1l0,0L43.2,24.3L35.1,0.2l0,0L18.8-11.8l-8.1-24.1l0,0
			l-2.6-1.9H7.8l2.8,2.1L18.7-11.7z M26.8-23.7l16.2,12.1l8.1,24.1l0,0l16.2,12.1l8.1,24.1l0,0l16.2,12.1l8.1,24.1l0,0l16.2,12.1
			l8.1,24.1l0,0l9.5,7.1v-0.2l-9.4-7l-8.1-24.1l0,0L100,84.6l-8.1-24.1l0,0L75.7,48.4l-8.1-24.1l0,0L51.3,12.3l-8.1-24.1l0,0
			L26.9-23.9l-4.7-14h-0.2L26.8-23.7L26.8-23.7z M79.6-29.8l16.2,12.1L104,6.4l0,0l16.2,12.1l8.1,24.1l0,0l5.5,4v-0.2l-5.3-4
			l-8.1-24.1l0,0L104.1,6.2L96-17.8l0,0L79.7-29.9l-2.7-7.9h-0.2L79.6-29.8L79.6-29.8z M8.6-32.8l8.1,24.1l0,0L32.9,3.4L41,27.5l0,0
			l16.2,12.1l8.1,24.1l0,0l16.2,12.1l8.1,24.1l0,0l16.2,12.1l8.1,24.1l0,0l16.2,12.1l3.4,10.2v-0.5l-3.3-9.8l0,0l-16.2-12.1
			l-8.1-24.1l0,0L89.9,99.7l-8.1-24.1l0,0L65.5,63.5l-8.1-24.1l0,0L41.2,27.3L33,3.3l0,0L16.8-8.8L8.7-32.9l0,0L2-37.9H1.7L8.6-32.8
			z M28.9-26.8l16.2,12.1l8.1,24.1l0,0l16.2,12.1l8.1,24.1l0,0l16.2,12.1l8.1,24.1l0,0l16.2,12.1l8.1,24.1l0,0l7.5,5.6v-0.2
			l-7.4-5.5l-8.1-24.1l0,0l-16.2-12.1l-8.1-24.1l0,0L77.7,45.4l-8.1-24.1l0,0L53.3,9.3l-8.1-24.1l0,0L29-26.9l-3.7-10.9h-0.2
			L28.9-26.8L28.9-26.8z M122.2-20.7l11.5,8.6v-0.2l-11.4-8.5l-5.7-17h-0.2L122.2-20.7L122.2-20.7z M124.3-23.7l9.5,7.1v-0.2l-9.4-7
			l-4.7-14h-0.2L124.3-23.7L124.3-23.7z M118.2-14.7l15.6,11.6v-0.2l-15.5-11.5l-7.7-23h-0.2L118.2-14.7L118.2-14.7z M126.3-26.8
			l7.5,5.6v-0.2l-7.4-5.5l-3.7-10.9h-0.2L126.3-26.8L126.3-26.8z M116.1-11.7L116.1-11.7l16.3,12.1l1.4,4.1V4l-1.3-3.8l0,0
			l-16.2-12.1l-8.1-24.1l0,0l-2.6-1.9h-0.3l2.8,2.1L116.1-11.7z M132.4-35.8l1.4,1V-35l-1.3-1l-0.6-1.9h-0.2L132.4-35.8L132.4-35.8z
			 M130.4-32.8l3.4,2.5v-0.2l-3.3-2.5l-1.7-4.9h-0.2L130.4-32.8L130.4-32.8z M77.6-26.8l16.2,12.1l8.1,24.1l0,0l16.2,12.1l8.1,24.1
			l0,0l7.5,5.6v-0.2l-7.4-5.5l-8.1-24.1l0,0L102.1,9.3l-8.1-24.1l0,0L77.7-26.9L74-37.9h-0.2L77.6-26.8L77.6-26.8z M128.3-29.8
			l5.5,4V-26l-5.3-4l-2.7-7.9h-0.2L128.3-29.8L128.3-29.8z M114.1-8.7L114.1-8.7l16.3,12.1l3.4,10.2v-0.5l-3.3-9.8l0,0L114.2-8.8
			l-8.1-24.1l0,0l-6.6-4.9h-0.3l6.8,5.1L114.1-8.7z M71.5-17.7L87.7-5.7l8.1,24.1l0,0l16.2,12.1l8.1,24.1l0,0l13.6,10.1v-0.2
			l-13.5-10l-8.1-24.1l0,0L96,18.3L87.9-5.8l0,0L71.6-17.9l-6.7-20h-0.2L71.5-17.7L71.5-17.7z M75.6-23.7l16.2,12.1l8.1,24.1l0,0
			l16.2,12.1l8.1,24.1l0,0l9.5,7.1v-0.2l-9.4-7l-8.1-24.1l0,0L100,12.3l-8.1-24.1l0,0L75.7-23.9l-4.7-14h-0.2L75.6-23.7L75.6-23.7z
			 M73.5-20.7L89.8-8.7l8.1,24.1l0,0l16.2,12.1l8.1,24.1l0,0l11.5,8.6v-0.2l-11.4-8.5l-8.1-24.1l0,0L98,15.3L89.9-8.8l0,0L73.6-20.9
			l-5.7-17h-0.2L73.5-20.7L73.5-20.7z M69.5-14.7L85.7-2.6l8.1,24.1l0,0l16.2,12.1l8.1,24.1l0,0l15.6,11.6V69l-15.5-11.5l-8.1-24.1
			l0,0L93.9,21.3L85.8-2.8l0,0L69.6-14.9l-7.7-23h-0.2L69.5-14.7L69.5-14.7z M112.1-5.7L112.1-5.7l16.3,12.1l5.5,16.2v-0.5
			l-5.3-15.8l0,0L112.2-5.8l-8.1-24.1l0,0l-10.7-7.9h-0.3l10.9,8.1L112.1-5.7z M110.1-2.7L110.1-2.7l16.3,12.1l7.5,22.2v-0.5
			l-7.4-21.9l0,0L110.2-2.8l-8.1-24.1l0,0L87.3-37.9H87l15,11.1L110.1-2.7z M120.2-17.7l13.6,10.1v-0.2l-13.5-10l-6.7-20h-0.2
			L120.2-17.7L120.2-17.7z M55.4,150.9l-8.1-24.1l0,0L31,114.8l-8.1-24.1l0,0L6.6,78.6l-8.1-24.1l0,0l-1.4-1v0.2l1.3,1l8.1,24.1l0,0
			l16.2,12.1l8.1,24.1l0,0L47.1,127l8.1,24.1l0,0l16.2,12.1l0.6,1.9h0.2l-0.7-2.1L55.4,150.9z M75.7,157l-16.2-12.1l-8.1-24.1l0,0
			l-16.2-12.1L27,84.7l0,0L10.7,72.6L2.6,48.5l0,0l-5.5-4v0.2l5.3,4l8.1,24.1l0,0l16.2,12.1l8.1,24.1l0,0L51.2,121l8.1,24.1l0,0
			l16.2,12.1l2.7,7.9h0.2L75.7,157L75.7,157z M89.9,135.9L89.9,135.9l-16.3-12.1l-8.1-24.1l0,0L49.3,87.6l-8.1-24.1l0,0L24.9,51.5
			l-8.1-24.1l0,0L0.6,15.3L-2.9,5.1v0.5l3.3,9.8l0,0l16.2,12.1l8.1,24.1l0,0L41,63.7l8.1,24.1l0,0l16.2,12.1l8.1,24.1l0,0L89.8,136
			l8.1,24.1l0,0l6.6,4.9h0.3L98,160L89.9,135.9z M87.9,138.9L87.9,138.9l-16.3-12.1l-8.1-24.1l0,0L47.2,90.6l-8.1-24.1l0,0
			L22.9,54.5l-8.1-24.1l0,0L-1.5,18.3l-1.4-4.1v0.5l1.3,3.8l0,0l16.2,12.1l8.1,24.1l0,0L39,66.7l8.1,24.1l0,0l16.2,12.1l8.1,24.1
			l0,0L87.7,139l8.1,24.1l0,0l2.6,1.9h0.3L96,163L87.9,138.9z M-2.9,158.9v0.5l1.3,3.8l0,0l2.6,1.9h0.3l-2.8-2.1L-2.9,158.9z
			 M81.8,147.9l-16.2-12.1l-8.1-24.1l0,0L41.2,99.7L33,75.6l0,0L16.8,63.5L8.7,39.4l0,0l-11.5-8.6v0.2l11.4,8.5l8.1,24.1l0,0
			l16.2,12.1L41,99.8l0,0l16.2,12.1l8.1,24.1l0,0l16.2,12.1l5.7,17h0.2L81.8,147.9L81.8,147.9z M79.7,150.9l-16.2-12.1l-8.1-24.1
			l0,0l-16.2-12.1L31,78.6l0,0L14.8,66.5L6.7,42.5l0,0l-9.5-7.1v0.2l9.4,7l8.1,24.1l0,0l16.2,12.1l8.1,24.1l0,0l16.2,12.1l8.1,24.1
			l0,0l16.2,12.1l4.7,14h0.2L79.7,150.9L79.7,150.9z M77.7,154l-16.2-12.1l-8.1-24.1l0,0l-16.2-12.1L29,81.6l0,0L12.7,69.5L4.6,45.5
			l0,0l-7.5-5.6v0.2l7.4,5.5l8.1,24.1l0,0l16.2,12.1l8.1,24.1l0,0l16.2,12.1l8.1,24.1l0,0l16.2,12.1l3.7,10.9h0.2L77.7,154L77.7,154
			z M124.4,157l-16.2-12.1l-8.1-24.1l0,0l-16.2-12.1l-8.1-24.1l0,0L59.4,72.6l-8.1-24.1l0,0L35.1,36.4L27,12.3l0,0L10.7,0.2
			L2.6-23.9l0,0l-5.5-4v0.2l5.3,4l8.1,24.1l0,0l16.2,12.1l8.1,24.1l0,0l16.2,12.1l8.1,24.1l0,0l16.2,12.1l8.1,24.1l0,0L99.9,121
			L108,145l0,0l16.2,12.1l2.7,7.9h0.2L124.4,157L124.4,157z M122.4,160l-16.2-12.1L98,123.8l0,0l-16.2-12.1l-8.1-24.1l0,0L57.4,75.6
			l-8.1-24.1l0,0L33,39.4l-8.1-24.1l0,0L8.7,3.2L0.6-20.9l0,0l-3.4-2.5v0.2l3.3,2.5L8.6,3.4l0,0l16.2,12.1l8.1,24.1l0,0l16.2,12.1
			l8.1,24.1l0,0l16.2,12.1l8.1,24.1l0,0L97.9,124l8.1,24.1l0,0l16.2,12.1l1.7,4.9h0.2L122.4,160L122.4,160z M104.1,150.9L96,126.9
			l0,0l-16.2-12.1l-8.1-24.1l0,0L55.4,78.6l-8.1-24.1l0,0L31,42.4l-8.1-24.1l0,0L6.6,6.2l-8.1-24.1l0,0l-1.4-1v0.2l1.3,1L6.5,6.4
			l0,0l16.2,12.1l8.1,24.1l0,0l16.2,12.1l8.1,24.1l0,0l16.2,12.1l8.1,24.1l0,0L95.9,127l8.1,24.1l0,0l16.2,12.1l0.6,1.9h0.2
			l-0.7-2.1L104.1,150.9z M91.9,132.9L91.9,132.9l-16.3-12.1l-8.1-24.1l0,0L51.3,84.6l-8.1-24.1l0,0L26.9,48.4l-8.1-24.1l0,0
			L2.6,12.3L-2.9-3.9v0.5l5.3,15.8l0,0l16.2,12.1l8.1,24.1l0,0l16.2,12.1l8.1,24.1l0,0l16.2,12.1l8.1,24.1l0,0L91.8,133l8.1,24.1
			l0,0l10.7,7.9h0.3L100,157L91.9,132.9z M128.4,150.9l-16.2-12.1l-8.1-24.1l0,0l-16.2-12.1l-8.1-24.1l0,0L63.5,66.5l-8.1-24.1l0,0
			L39.1,30.4L31,6.3l0,0L14.8-5.8L6.7-29.9l0,0L-2.9-37v0.2l9.4,7l8.1,24.1l0,0L30.9,6.4L39,30.5l0,0l16.2,12.1l8.1,24.1l0,0
			l16.2,12.1l8.1,24.1l0,0l16.2,12.1l8.1,24.1l0,0l16.2,12.1l4.7,14h0.2L128.4,150.9L128.4,150.9z M93.9,129.9L93.9,129.9
			l-16.3-12.1l-8.1-24.1l0,0L53.3,81.6l-8.1-24.1l0,0L29,45.4l-8.1-24.1l0,0L4.6,9.3L-2.9-13v0.5L4.5,9.4l0,0l16.2,12.1l8.1,24.1
			l0,0l16.2,12.1l8.1,24.1l0,0l16.2,12.1l8.1,24.1l0,0L93.8,130l8.1,24.1l0,0l14.7,10.9h0.3l-15-11.1L93.9,129.9z M83.8,144.9
			l-16.2-12.1l-8.1-24.1l0,0L43.2,96.7l-8.1-24.1l0,0L18.8,60.5l-8.1-24.1l0,0L-2.9,26.3v0.2l13.5,10l8.1,24.1l0,0L35,72.7l8.1,24.1
			l0,0l16.2,12.1l8.1,24.1l0,0l16.2,12.1l6.7,20h0.2L83.8,144.9L83.8,144.9z M126.4,154l-16.2-12.1l-8.1-24.1l0,0l-16.2-12.1
			l-8.1-24.1l0,0L61.5,69.5l-8.1-24.1l0,0L37.1,33.4L29,9.3l0,0L12.7-2.8L4.6-26.9l0,0l-7.5-5.6v0.2l7.4,5.5l8.1,24.1l0,0L28.9,9.4
			L37,33.5l0,0l16.2,12.1l8.1,24.1l0,0l16.2,12.1l8.1,24.1l0,0l16.2,12.1l8.1,24.1l0,0l16.2,12.1l3.7,10.9h0.2L126.4,154L126.4,154z
			 M73.6,160l-16.2-12.1l-8.1-24.1l0,0L33,111.8l-8.1-24.1l0,0L8.7,75.6L0.6,51.5l0,0l-3.4-2.5v0.2l3.3,2.5l8.1,24.1l0,0l16.2,12.1
			l8.1,24.1l0,0L49.2,124l8.1,24.1l0,0l16.2,12.1l1.7,4.9h0.2L73.6,160L73.6,160z M29,154l-16.2-12.1l-8.1-24.1l0,0l-7.5-5.6v0.2
			l7.4,5.5l8.1,24.1l0,0l16.2,12.1l3.7,10.9h0.2L29,154L29,154z M33,147.9l-16.2-12.1l-8.1-24.1l0,0l-11.5-8.6v0.2l11.4,8.5
			l8.1,24.1l0,0l16.2,12.1l5.7,17h0.2L33,147.9L33,147.9z M35.1,144.9l-16.2-12.1l-8.1-24.1l0,0L-2.9,98.7v0.2l13.5,10l8.1,24.1l0,0
			L35,145.1l6.7,20h0.2L35.1,144.9L35.1,144.9z M31,150.9l-16.2-12.1l-8.1-24.1l0,0l-9.5-7.1v0.2l9.4,7l8.1,24.1l0,0l16.2,12.1
			l4.7,14h0.2L31,150.9L31,150.9z M37.1,141.9l-16.2-12.1l-8.1-24.1l0,0L-2.9,94.1v0.2l15.5,11.5l8.1,24.1l0,0L37,142.1l7.7,23h0.2
			L37.1,141.9L37.1,141.9z M-2.9,149.8v0.5l3.3,9.8l0,0l6.6,4.9h0.3L0.6,160L-2.9,149.8z M-2.9,131.7v0.5l7.4,21.9l0,0l14.7,10.9
			h0.3L4.6,154L-2.9,131.7z M-2.9,140.8v0.5l5.3,15.8l0,0l10.7,7.9h0.3L2.6,157L-2.9,140.8z M39.1,138.9L39.1,138.9l-16.3-12.1
			l-8.1-24.1l0,0L-1.5,90.6l-1.4-4.1V87l1.3,3.8l0,0l16.2,12.1l8.1,24.1l0,0L39,139l8.1,24.1l0,0l2.6,1.9H50l-2.8-2.1L39.1,138.9z
			 M26.9,157l-16.2-12.1l-8.1-24.1l0,0l-5.5-4v0.2l5.3,4l8.1,24.1l0,0l16.2,12.1l2.7,7.9h0.2L26.9,157L26.9,157z M45.2,129.9
			L45.2,129.9L29,117.8l-8.1-24.1l0,0L4.6,81.6l-7.5-22.2v0.5l7.4,21.9l0,0l16.2,12.1l8.1,24.1l0,0L45.1,130l8.1,24.1l0,0L68,165.1
			h0.3l-15-11.1L45.2,129.9z M41.2,135.9L41.2,135.9l-16.3-12.1l-8.1-24.1l0,0L0.6,87.6l-3.4-10.2V78l3.3,9.8l0,0l16.2,12.1
			l8.1,24.1l0,0L41,136l8.1,24.1l0,0l6.6,4.9h0.3l-6.8-5.1L41.2,135.9z M43.2,132.9L43.2,132.9l-16.3-12.1l-8.1-24.1l0,0L2.6,84.6
			l-5.5-16.2v0.5l5.3,15.8l0,0l16.2,12.1l8.1,24.1l0,0L43.1,133l8.1,24.1l0,0l10.7,7.9h0.3L51.3,157L43.2,132.9z M24.9,160
			L8.7,147.9l-8.1-24.1l0,0l-3.4-2.5v0.2l3.3,2.5l8.1,24.1l0,0l16.2,12.1l1.7,4.9h0.2L24.9,160L24.9,160z M6.6,150.9l-8.1-24.1l0,0
			l-1.4-1v0.2l1.3,1l8.1,24.1l0,0l16.2,12.1l0.6,1.9h0.2l-0.7-2.1L6.6,150.9z M85.8,141.9l-16.2-12.1l-8.1-24.1l0,0L45.2,93.7
			l-8.1-24.1l0,0L20.9,57.5l-8.1-24.1l0,0L-2.9,21.8V22l15.5,11.5l8.1,24.1l0,0L37,69.7l8.1,24.1l0,0l16.2,12.1l8.1,24.1l0,0
			l16.2,12.1l7.7,23h0.2L85.8,141.9L85.8,141.9z"/>
	</g>
	<circle class="st2" cx="65.2" cy="65.2" r="44.1"/>
</g>
</svg>
