<svg width="80" height="80" viewBox="0 0 80 80" fill="none" xmlns="http://www.w3.org/2000/svg">
<path d="M69.4126 17.68L39.9993 46.9867L10.5859 17.68C11.026 17.52 11.5059 17.4133 11.9993 17.4133H67.9993C68.4926 17.4133 68.9726 17.52 69.4126 17.68Z" fill="#00BABA"/>
<path opacity="0.8" fill-rule="evenodd" clip-rule="evenodd" d="M8 21.4134C8 20.8569 8.11662 20.3269 8.3243 19.8442L28.4083 39.8497L8.2653 59.9787C8.10164 59.5432 8 59.0776 8 58.5868V21.4134ZM40 50.7501C40.4007 50.7501 40.8015 50.5977 41.1074 50.293L49.2559 42.1764L69.3994 62.3192C68.9619 62.4846 68.4936 62.5868 68 62.5868H12C11.5031 62.5868 11.0316 62.4838 10.5916 62.3163L30.7449 42.1772L38.8926 50.293C39.1985 50.5977 39.5993 50.7501 40 50.7501ZM51.5898 39.851L71.6751 19.8442C71.8828 20.3269 71.9994 20.8569 71.9994 21.4134V58.5868C71.9994 59.0821 71.8968 59.5521 71.7303 59.9909L51.5898 39.851Z" fill="url(#paint0_linear_1454_22682)"/>
<defs>
<linearGradient id="paint0_linear_1454_22682" x1="8" y1="41.2155" x2="71.6794" y2="41.2155" gradientUnits="userSpaceOnUse">
<stop stop-color="#02BABA"/>
<stop offset="1" stop-color="#A7E3E3"/>
</linearGradient>
</defs>
</svg>
