<svg width="178" height="181" viewBox="0 0 178 181" fill="none" xmlns="http://www.w3.org/2000/svg">
<g clip-path="url(#clip0_1571_36953)">
<path d="M177.562 181.627C171.616 150.53 134.439 126.581 89.4382 126.581C44.4375 126.581 7.2603 150.53 1.31445 181.627H177.562Z" fill="url(#paint0_linear_1571_36953)"/>
<path d="M90.6274 89.5909L90.3145 157.489L93.569 159.057L137.693 139.621L137.944 94.105L90.6274 89.5909Z" fill="url(#paint1_linear_1571_36953)"/>
<path d="M90.628 89.5909V157.552L46.8164 137.176V94.9827L90.628 89.5909Z" fill="url(#paint2_linear_1571_36953)"/>
<path opacity="0.4" d="M54.0762 135.734C57.7689 131.408 63.2766 124.199 68.7843 114.105C76.9208 99.3087 86.4341 75.4846 86.7471 44.7015L93.444 44.1372L101.33 44.7642C101.643 75.4846 110.843 99.246 118.667 114.042C123.987 124.073 129.369 131.346 132.874 135.672L93.3814 154.104L54.0762 135.734Z" fill="url(#paint3_linear_1571_36953)"/>
<path opacity="0.9" d="M60.084 134.418C70.8491 120.688 89.1874 91.1583 90.5017 48.2751L93.5059 48.0243L97.6993 48.3378C99.0137 91.1583 116.663 120.625 127.053 134.355L93.5059 150.029L60.084 134.418Z" fill="url(#paint4_linear_1571_36953)"/>
<path d="M147.27 141.941C147.27 141.941 131.811 132.976 120.858 130.719C120.858 130.719 106.025 166.58 77.2969 181H117.103C117.103 181 136.067 166.518 147.27 141.941Z" fill="url(#paint5_linear_1571_36953)"/>
<path d="M1.43945 181H62.0871C62.0871 181 104.522 165.891 109.717 128.336C104.209 122.067 14.0822 123.571 1.43945 181Z" fill="url(#paint6_linear_1571_36953)"/>
<path d="M93.5696 159.057V103.823L46.8164 94.9827V137.176L93.5696 159.057Z" fill="url(#paint7_linear_1571_36953)"/>
<path d="M93.5684 159.057V103.823L137.943 94.105L137.693 139.621L93.5684 159.057Z" fill="url(#paint8_linear_1571_36953)"/>
<path opacity="0.3" d="M46.816 101.252L40.1816 115.421L46.816 117.49V122.631L84.6816 134.543L92.6929 106.205L46.816 101.252Z" fill="black"/>
<path d="M46.8163 94.9827L37.1777 115.045L84.682 128.274L93.5069 103.76L46.8163 94.9827Z" fill="url(#paint9_linear_1571_36953)"/>
<path opacity="0.3" d="M93.5684 103.823L98.1999 136.361L137.755 121.628L138.006 112.788L137.943 100.374L93.5684 103.823Z" fill="black"/>
<path d="M93.4434 103.76L101.58 131.408L148.27 114.732L137.943 94.105L93.4434 103.76Z" fill="url(#paint10_linear_1571_36953)"/>
<path d="M50.5078 118.807C56.2033 120.311 61.9614 121.816 67.6569 123.383L84.806 128.023L84.493 128.211L88.8116 115.985L93.1928 103.76L93.5057 102.882L93.7561 103.76L97.8243 117.615L101.83 131.471L101.58 131.346L117.164 125.954L101.705 131.659L101.517 131.722L101.454 131.534L97.261 117.741L93.1302 103.948H93.6935L89.3123 116.174L84.9312 128.399L84.8686 128.65L84.6182 128.587L67.5317 123.76C61.8362 122.13 56.1407 120.437 50.5078 118.807Z" fill="url(#paint11_linear_1571_36953)"/>
<path d="M93.4444 103.76C89.564 103.133 85.6209 102.506 81.7405 101.816C77.86 101.127 73.9796 100.374 70.0991 99.6848C66.2187 98.9324 62.3382 98.1801 58.4578 97.4278L52.6371 96.2366C50.6969 95.7977 48.7566 95.4215 46.8164 94.9827C48.7566 95.2961 50.6969 95.6096 52.6997 95.9231L58.5203 96.9262C62.4008 97.6159 66.2812 98.3682 70.1617 99.0578C74.0421 99.8102 77.9226 100.563 81.803 101.315C85.6835 102.13 89.564 102.945 93.4444 103.76Z" fill="url(#paint12_linear_1571_36953)"/>
<path d="M137.943 94.105C134.25 95.0454 130.62 95.9231 126.928 96.8008C123.235 97.6786 119.542 98.4936 115.85 99.3086C112.157 100.124 108.464 100.939 104.772 101.691L99.2012 102.82C97.3235 103.196 95.5085 103.572 93.6309 103.885C95.4459 103.384 97.3235 102.945 99.1386 102.506L104.646 101.189C108.339 100.312 112.032 99.4967 115.724 98.6817C119.417 97.8667 123.11 97.0516 126.802 96.2993C130.495 95.547 134.188 94.7946 137.943 94.105Z" fill="url(#paint13_linear_1571_36953)"/>
<path d="M106.024 40.877L94.0069 47.648L82.1152 40.5635L94.1321 33.7925L106.024 40.877Z" fill="#00A59D"/>
<path d="M94.0069 47.6481L93.8192 62.9457L82.1152 40.5636L94.0069 47.6481Z" fill="url(#paint14_linear_1571_36953)"/>
<path d="M106.023 40.8771L93.8184 62.9457L94.0061 47.6481L106.023 40.8771Z" fill="url(#paint15_linear_1571_36953)"/>
<path d="M106.211 38.1812L94.1945 44.9522L82.2402 37.8677L94.2571 31.0967L106.211 38.1812Z" fill="#00AB51"/>
<path d="M94.1945 44.9522L94.5075 19.2473L82.2402 37.8677L94.1945 44.9522Z" fill="url(#paint16_linear_1571_36953)"/>
<path d="M106.212 38.1812L94.1953 44.9522L94.5083 19.2473L106.212 38.1812Z" fill="url(#paint17_linear_1571_36953)"/>
<path d="M110.468 83.008C110.468 83.008 106.087 74.6696 105.586 59.9363" stroke="#00BABA" stroke-width="0.5" stroke-miterlimit="10" stroke-linecap="round" stroke-linejoin="round"/>
<path d="M108.778 69.2778C108.778 69.2778 107.026 65.955 106.838 60.0616" stroke="#00BABA" stroke-width="0.5" stroke-miterlimit="10" stroke-linecap="round" stroke-linejoin="round"/>
<path d="M79.8613 69.2778C79.8613 69.2778 81.6138 65.955 81.8016 60.0616" stroke="#00BABA" stroke-width="0.5" stroke-miterlimit="10" stroke-linecap="round" stroke-linejoin="round"/>
<path d="M78.0469 83.008C78.0469 83.008 82.428 74.6696 82.9287 59.9363" stroke="#00BABA" stroke-width="0.5" stroke-miterlimit="10" stroke-linecap="round" stroke-linejoin="round"/>
<path d="M49.0063 61.629C48.6934 61.629 48.3179 61.6917 48.0049 61.6917C46.8158 58.8078 43.9993 56.8015 40.7447 56.8015C37.1772 56.8015 34.173 59.1839 33.2342 62.4441C32.9212 62.3814 32.5457 62.3187 32.1702 62.3187C28.9782 62.3187 26.4121 64.8892 26.4121 68.0866C26.4121 68.6508 26.4747 69.2151 26.6625 69.7167H34.7363H37.6779H42.9979H46.7532H55.0148C55.2025 69.1524 55.2651 68.5255 55.2651 67.8985C55.2651 64.3876 52.4487 61.629 49.0063 61.629Z" fill="url(#paint18_linear_1571_36953)"/>
<path d="M140.949 48.5885C140.761 48.5885 140.573 48.5885 140.386 48.6512C139.76 47.0838 138.195 45.9553 136.443 45.9553C134.502 45.9553 132.875 47.2719 132.374 49.0274C132.187 48.9647 131.999 48.9647 131.811 48.9647C130.059 48.9647 128.682 50.344 128.682 52.0994C128.682 52.4129 128.744 52.7264 128.807 52.9771H133.188H134.815H137.694H139.76H144.266C144.391 52.6637 144.391 52.3502 144.391 51.974C144.329 50.1559 142.826 48.5885 140.949 48.5885Z" fill="url(#paint19_linear_1571_36953)"/>
<path d="M67.4704 23.7614C67.2826 23.7614 67.0948 23.7614 66.9071 23.8241C66.2812 22.2567 64.7165 21.1282 62.964 21.1282C61.0238 21.1282 59.3965 22.4448 58.8958 24.2002C58.708 24.1375 58.5203 24.1375 58.3325 24.1375C56.5801 24.1375 55.2031 25.5168 55.2031 27.2723C55.2031 27.5857 55.2657 27.8992 55.3283 28.15H59.7095H61.3367H64.2158H66.2812H70.7875C70.9127 27.8365 70.9127 27.523 70.9127 27.1469C70.8501 25.266 69.348 23.7614 67.4704 23.7614Z" fill="url(#paint20_linear_1571_36953)"/>
<path opacity="0.4" d="M71.2249 80.1867H70.2861V79.2463C70.2861 79.0582 70.1609 78.8701 69.9106 78.8701C69.7228 78.8701 69.535 78.9955 69.535 79.2463V80.1867H68.5962C68.4085 80.1867 68.2207 80.3121 68.2207 80.5629C68.2207 80.751 68.3459 80.9391 68.5962 80.9391H69.535V81.8795C69.535 82.0676 69.6602 82.2556 69.9106 82.2556C70.0983 82.2556 70.2861 82.1303 70.2861 81.8795V80.8764H71.2249C71.4127 80.8764 71.6004 80.751 71.6004 80.5002C71.6004 80.3121 71.4127 80.1867 71.2249 80.1867Z" fill="url(#paint21_linear_1571_36953)"/>
<path opacity="0.1" d="M117.478 59.56L116.476 58.5569L117.478 57.5538C117.666 57.3657 117.666 57.0522 117.478 56.8015C117.29 56.6134 116.977 56.6134 116.727 56.8015L115.725 57.8046L114.724 56.8015C114.536 56.6134 114.223 56.6134 113.973 56.8015C113.785 56.9895 113.785 57.303 113.973 57.5538L114.974 58.5569L113.973 59.56C113.785 59.7481 113.785 60.0616 113.973 60.3124C114.161 60.5005 114.474 60.5005 114.724 60.3124L115.725 59.3093L116.727 60.3124C116.914 60.5005 117.227 60.5005 117.478 60.3124C117.666 60.1243 117.666 59.8108 117.478 59.56Z" fill="url(#paint22_linear_1571_36953)"/>
<path opacity="0.3" d="M80.6125 34.2314L79.6111 33.2283L80.6125 32.2252C80.8003 32.0371 80.8003 31.7236 80.6125 31.4729C80.4248 31.2848 80.1118 31.2848 79.8615 31.4729L78.8601 32.476L77.8587 31.4729C77.6709 31.2848 77.358 31.2848 77.1076 31.4729C76.9199 31.6609 76.9199 31.9744 77.1076 32.2252L78.109 33.2283L77.1076 34.2314C76.9199 34.4195 76.9199 34.733 77.1076 34.9838C77.2954 35.1718 77.6083 35.1718 77.8587 34.9838L78.8601 33.9806L79.8615 34.9838C80.0492 35.1718 80.3622 35.1718 80.6125 34.9838C80.8003 34.733 80.8003 34.4195 80.6125 34.2314Z" fill="url(#paint23_linear_1571_36953)"/>
<path opacity="0.4" d="M70.2857 57.0523C72.0486 57.0523 73.4777 55.6208 73.4777 53.8549C73.4777 52.089 72.0486 50.6575 70.2857 50.6575C68.5229 50.6575 67.0938 52.089 67.0938 53.8549C67.0938 55.6208 68.5229 57.0523 70.2857 57.0523Z" stroke="url(#paint24_linear_1571_36953)" stroke-miterlimit="10"/>
<path opacity="0.2" d="M116.726 46.4568C117.866 46.4568 118.791 45.5305 118.791 44.3879C118.791 43.2453 117.866 42.319 116.726 42.319C115.585 42.319 114.66 43.2453 114.66 44.3879C114.66 45.5305 115.585 46.4568 116.726 46.4568Z" stroke="url(#paint25_linear_1571_36953)" stroke-miterlimit="10"/>
<path opacity="0.1" d="M87.3095 17.3665C88.4502 17.3665 89.3749 16.4402 89.3749 15.2976C89.3749 14.1549 88.4502 13.2286 87.3095 13.2286C86.1689 13.2286 85.2441 14.1549 85.2441 15.2976C85.2441 16.4402 86.1689 17.3665 87.3095 17.3665Z" stroke="url(#paint26_linear_1571_36953)" stroke-miterlimit="10"/>
</g>
<defs>
<linearGradient id="paint0_linear_1571_36953" x1="90.6229" y1="178.427" x2="55.4287" y2="135.003" gradientUnits="userSpaceOnUse">
<stop stop-color="#B8FFFD"/>
<stop offset="1" stop-color="#6BC1BF"/>
</linearGradient>
<linearGradient id="paint1_linear_1571_36953" x1="114.115" y1="86.4789" x2="114.115" y2="155.907" gradientUnits="userSpaceOnUse">
<stop stop-color="#00CED3"/>
<stop offset="0.2289" stop-color="#00C5C8"/>
<stop offset="0.5817" stop-color="#00BDBD"/>
<stop offset="1" stop-color="#00BABA"/>
</linearGradient>
<linearGradient id="paint2_linear_1571_36953" x1="68.7313" y1="157.557" x2="68.7313" y2="89.6013" gradientUnits="userSpaceOnUse">
<stop stop-color="#00BABA"/>
<stop offset="0.448" stop-color="#00BCBC"/>
<stop offset="0.6852" stop-color="#00C3C4"/>
<stop offset="0.8726" stop-color="#00CFD2"/>
<stop offset="1" stop-color="#00DBE0"/>
</linearGradient>
<linearGradient id="paint3_linear_1571_36953" x1="93.5151" y1="154.13" x2="93.5151" y2="44.1827" gradientUnits="userSpaceOnUse">
<stop stop-color="#00BABA"/>
<stop offset="1" stop-color="#00BABA" stop-opacity="0"/>
</linearGradient>
<linearGradient id="paint4_linear_1571_36953" x1="93.5527" y1="149.98" x2="93.5527" y2="47.9576" gradientUnits="userSpaceOnUse">
<stop stop-color="#E5F6FA"/>
<stop offset="1" stop-color="#00BABA" stop-opacity="0.3"/>
</linearGradient>
<linearGradient id="paint5_linear_1571_36953" x1="77.2833" y1="155.84" x2="147.252" y2="155.84" gradientUnits="userSpaceOnUse">
<stop stop-color="#E4FEFC"/>
<stop offset="1" stop-color="#D8FFFF"/>
</linearGradient>
<linearGradient id="paint6_linear_1571_36953" x1="1.43776" y1="153.392" x2="109.757" y2="153.392" gradientUnits="userSpaceOnUse">
<stop stop-color="#CBFDFC"/>
<stop offset="1" stop-color="#D2FCFB"/>
</linearGradient>
<linearGradient id="paint7_linear_1571_36953" x1="53.8321" y1="98.8011" x2="90.2016" y2="146.877" gradientUnits="userSpaceOnUse">
<stop stop-color="#6BC1BF"/>
<stop offset="1" stop-color="#B8FFFD"/>
</linearGradient>
<linearGradient id="paint8_linear_1571_36953" x1="94.3505" y1="153.624" x2="133.26" y2="95.5216" gradientUnits="userSpaceOnUse">
<stop stop-color="#B8FFFD"/>
<stop offset="1" stop-color="#6BC1BF"/>
</linearGradient>
<linearGradient id="paint9_linear_1571_36953" x1="45.5068" y1="95.4826" x2="91.7061" y2="127.765" gradientUnits="userSpaceOnUse">
<stop stop-color="#00BABA"/>
<stop offset="1" stop-color="#8DFFFC"/>
</linearGradient>
<linearGradient id="paint10_linear_1571_36953" x1="94.2905" y1="107.817" x2="148.153" y2="118.247" gradientUnits="userSpaceOnUse">
<stop stop-color="#8DFFFC"/>
<stop offset="1" stop-color="#00BABA"/>
</linearGradient>
<linearGradient id="paint11_linear_1571_36953" x1="74.9744" y1="135.554" x2="95.8486" y2="104.383" gradientUnits="userSpaceOnUse">
<stop stop-color="white" stop-opacity="0.2"/>
<stop offset="0.5" stop-color="white"/>
<stop offset="1" stop-color="white" stop-opacity="0.2"/>
</linearGradient>
<linearGradient id="paint12_linear_1571_36953" x1="46.7539" y1="99.3939" x2="93.4841" y2="99.3939" gradientUnits="userSpaceOnUse">
<stop stop-color="white" stop-opacity="0.2"/>
<stop offset="0.5" stop-color="white" stop-opacity="0.2"/>
<stop offset="1" stop-color="white"/>
</linearGradient>
<linearGradient id="paint13_linear_1571_36953" x1="93.5212" y1="98.9646" x2="137.984" y2="98.9646" gradientUnits="userSpaceOnUse">
<stop stop-color="white"/>
<stop offset="0.5" stop-color="white" stop-opacity="0.2"/>
<stop offset="1" stop-color="white" stop-opacity="0.2"/>
</linearGradient>
<linearGradient id="paint14_linear_1571_36953" x1="97.4486" y1="60.4615" x2="83.298" y2="39.7346" gradientUnits="userSpaceOnUse">
<stop stop-color="#00D6D0"/>
<stop offset="1" stop-color="#00BABA"/>
</linearGradient>
<linearGradient id="paint15_linear_1571_36953" x1="105.577" y1="48.6266" x2="92.1783" y2="56.2635" gradientUnits="userSpaceOnUse">
<stop stop-color="#00BABA"/>
<stop offset="1" stop-color="#00C9C3"/>
</linearGradient>
<linearGradient id="paint16_linear_1571_36953" x1="99.2281" y1="40.2965" x2="86.5499" y2="26.5907" gradientUnits="userSpaceOnUse">
<stop stop-color="#71FFF8"/>
<stop offset="1" stop-color="#00BABA"/>
</linearGradient>
<linearGradient id="paint17_linear_1571_36953" x1="91.3502" y1="32.7926" x2="104.249" y2="29.7967" gradientUnits="userSpaceOnUse">
<stop stop-color="#00CCC6"/>
<stop offset="1" stop-color="#00BABA"/>
</linearGradient>
<linearGradient id="paint18_linear_1571_36953" x1="40.8649" y1="69.3007" x2="40.8649" y2="56.9608" gradientUnits="userSpaceOnUse">
<stop stop-color="#E9FFFE"/>
<stop offset="1" stop-color="#00BABA"/>
</linearGradient>
<linearGradient id="paint19_linear_1571_36953" x1="136.502" y1="52.8015" x2="136.502" y2="46.0849" gradientUnits="userSpaceOnUse">
<stop stop-color="#E9FFFE"/>
<stop offset="1" stop-color="#00BABA"/>
</linearGradient>
<linearGradient id="paint20_linear_1571_36953" x1="63.029" y1="27.9417" x2="63.029" y2="21.225" gradientUnits="userSpaceOnUse">
<stop stop-color="#E9FFFE"/>
<stop offset="1" stop-color="#00BABA"/>
</linearGradient>
<linearGradient id="paint21_linear_1571_36953" x1="69.9618" y1="82.0511" x2="69.9618" y2="78.927" gradientUnits="userSpaceOnUse">
<stop stop-color="#00A09C"/>
<stop offset="1" stop-color="#00BABA"/>
</linearGradient>
<linearGradient id="paint22_linear_1571_36953" x1="114.198" y1="60.1942" x2="117.449" y2="56.9488" gradientUnits="userSpaceOnUse">
<stop stop-color="#0096AA"/>
<stop offset="1" stop-color="#00CED3"/>
</linearGradient>
<linearGradient id="paint23_linear_1571_36953" x1="77.3001" y1="34.8235" x2="80.5511" y2="31.5781" gradientUnits="userSpaceOnUse">
<stop stop-color="#43C4D6"/>
<stop offset="1" stop-color="#92E4EF"/>
</linearGradient>
<linearGradient id="paint24_linear_1571_36953" x1="70.3084" y1="57.3407" x2="70.3084" y2="50.3352" gradientUnits="userSpaceOnUse">
<stop stop-color="#0096AA"/>
<stop offset="1" stop-color="#00CED3"/>
</linearGradient>
<linearGradient id="paint25_linear_1571_36953" x1="116.718" y1="46.7915" x2="116.718" y2="41.994" gradientUnits="userSpaceOnUse">
<stop stop-color="#0096AA"/>
<stop offset="1" stop-color="#00CED3"/>
</linearGradient>
<linearGradient id="paint26_linear_1571_36953" x1="87.3294" y1="17.7203" x2="87.3294" y2="12.9227" gradientUnits="userSpaceOnUse">
<stop stop-color="#0096AA"/>
<stop offset="1" stop-color="#00CED3"/>
</linearGradient>
<clipPath id="clip0_1571_36953">
<rect width="178" height="181" fill="white"/>
</clipPath>
</defs>
</svg>
