<?xml version="1.0" encoding="utf-8"?>
<!-- Generator: Adobe Illustrator 25.3.1, SVG Export Plug-In . SVG Version: 6.00 Build 0)  -->
<svg version="1.1" id="Layer_1" xmlns="http://www.w3.org/2000/svg" xmlns:xlink="http://www.w3.org/1999/xlink" x="0px" y="0px"
	 viewBox="0 0 100 100" style="enable-background:new 0 0 100 100;" xml:space="preserve">
<style type="text/css">
	.st0{fill:#EAEEF9;}
	.st1{fill:url(#SVGID_1_);}
	.st2{fill:#CED7E2;}
	.st3{fill:#DAE2EB;}
	.st4{fill:#FFFFFF;}
	.st5{fill:#D4DCE6;}
	.st6{fill:#E3EAF1;}
	.st7{fill:#2D5887;}
	.st8{fill:#F5F8FF;}
	.st9{fill:url(#SVGID_2_);}
	.st10{fill:#172D45;}
	.st11{fill:url(#SVGID_3_);}
	.st12{fill:url(#SVGID_4_);}
	.st13{fill:none;stroke:#172D45;stroke-miterlimit:10;}
	.st14{fill:url(#SVGID_5_);}
	.st15{fill:url(#SVGID_6_);}
	.st16{fill:url(#SVGID_7_);}
	.st17{fill:url(#SVGID_8_);}
	.st18{fill:url(#SVGID_9_);}
	.st19{fill:url(#SVGID_10_);}
	.st20{fill:url(#SVGID_11_);}
	.st21{fill:#D5DDEA;}
	.st22{fill:url(#SVGID_12_);}
	.st23{fill:url(#SVGID_13_);}
	.st24{fill:url(#SVGID_14_);}
	.st25{fill:none;stroke:#7D9FFF;stroke-miterlimit:10;}
	.st26{fill:url(#SVGID_15_);}
	.st27{fill:url(#SVGID_16_);}
	.st28{fill:url(#SVGID_17_);}
	.st29{fill:#F0B90B;}
	.st30{fill:url(#SVGID_18_);}
	.st31{fill:url(#SVGID_19_);}
	.st32{fill:url(#SVGID_20_);}
	.st33{fill:#1C3754;}
	.st34{fill:url(#SVGID_21_);}
	.st35{fill:url(#SVGID_22_);}
</style>
<circle class="st0" cx="-917.4" cy="-346.3" r="119.3"/>
<circle class="st0" cx="-837.6" cy="-16.9" r="119.3"/>
<circle class="st0" cx="-1220.7" cy="267.2" r="119.3"/>
<radialGradient id="SVGID_1_" cx="-908.9322" cy="-241.3412" r="88.5921" gradientUnits="userSpaceOnUse">
	<stop  offset="0" style="stop-color:#000000;stop-opacity:0.2"/>
	<stop  offset="1" style="stop-color:#000000;stop-opacity:5.000000e-02"/>
</radialGradient>
<ellipse class="st1" cx="-908.9" cy="-241.3" rx="125.3" ry="2.9"/>
<path class="st2" d="M-839.1-242.6h-150.4c-2.9,0-5.2-2.3-5.2-5.2v-200.7c0-2.9,2.3-5.2,5.2-5.2h150.4c2.9,0,5.2,2.3,5.2,5.2v200.7
	C-833.9-244.9-836.2-242.6-839.1-242.6z"/>
<g>
	
		<image style="overflow:visible;opacity:0.23;" width="635" height="803" xlink:href="45B0AC13.png"  transform="matrix(0.24 0 0 0.24 -988.6295 -441.8913)">
	</image>
	<g>
		<rect x="-987.5" y="-440.7" class="st3" width="146" height="186.3"/>
	</g>
</g>
<path class="st4" d="M-987.5-440.7h146l-3.9,83.3c0,0-4.8,82.6-91.9,82.6h-74.1C-1011.3-274.7-991.3-295.9-987.5-440.7z"/>
<g>
	<path class="st5" d="M-868.5-404.3h-94.7c-0.9,0-1.7-0.7-1.7-1.7v-0.7c0-0.9,0.7-1.7,1.7-1.7h94.7c0.9,0,1.7,0.7,1.7,1.7v0.7
		C-866.8-405-867.6-404.3-868.5-404.3z"/>
	<path class="st6" d="M-917.5-395.9h-45.7c-0.9,0-1.7-0.7-1.7-1.7v-0.7c0-0.9,0.7-1.7,1.7-1.7h45.7c0.9,0,1.7,0.7,1.7,1.7v0.7
		C-915.8-396.7-916.6-395.9-917.5-395.9z"/>
	<path class="st6" d="M-933.8-367h-31.9c-0.9,0-1.7-0.7-1.7-1.7v-0.7c0-0.9,0.7-1.7,1.7-1.7h31.9c0.9,0,1.7,0.7,1.7,1.7v0.7
		C-932.1-367.7-932.9-367-933.8-367z"/>
	<path class="st6" d="M-906.1-358.4h-60.2c-0.9,0-1.7-0.7-1.7-1.7v-0.7c0-0.9,0.7-1.7,1.7-1.7h60.2c0.9,0,1.7,0.7,1.7,1.7v0.7
		C-904.5-359.2-905.2-358.4-906.1-358.4z"/>
	<path class="st6" d="M-910.9-349.2h-57.6c-0.9,0-1.7-0.7-1.7-1.7v-0.7c0-0.9,0.7-1.7,1.7-1.7h57.6c0.9,0,1.7,0.7,1.7,1.7v0.7
		C-909.3-349.9-910-349.2-910.9-349.2z"/>
	<path class="st6" d="M-892.9-327.9h-46.5c-0.9,0-1.7-0.7-1.7-1.7v-0.7c0-0.9,0.7-1.7,1.7-1.7h46.5c0.9,0,1.7,0.7,1.7,1.7v0.7
		C-891.3-328.6-892-327.9-892.9-327.9z"/>
	<path class="st6" d="M-931.7-319.3H-973c-0.9,0-1.7-0.7-1.7-1.7v-0.7c0-0.9,0.7-1.7,1.7-1.7h41.3c0.9,0,1.7,0.7,1.7,1.7v0.7
		C-930.1-320.1-930.8-319.3-931.7-319.3z"/>
	<path class="st5" d="M-868.4-395.9h-38c-0.9,0-1.7-0.7-1.7-1.7v-0.7c0-0.9,0.7-1.7,1.7-1.7h38c0.9,0,1.7,0.7,1.7,1.7v0.7
		C-866.8-396.7-867.5-395.9-868.4-395.9z"/>
	<path class="st5" d="M-871.3-367h-53.4c-0.9,0-1.7-0.7-1.7-1.7v-0.7c0-0.9,0.7-1.7,1.7-1.7h53.4c0.9,0,1.7,0.7,1.7,1.7v0.7
		C-869.7-367.7-870.4-367-871.3-367z"/>
	<path class="st5" d="M-872.2-358.4h-22c-0.9,0-1.7-0.7-1.7-1.7v-0.7c0-0.9,0.7-1.7,1.7-1.7h22c0.9,0,1.7,0.7,1.7,1.7v0.7
		C-870.5-359.2-871.3-358.4-872.2-358.4z"/>
	<path class="st5" d="M-949.3-327.9h-22c-0.9,0-1.7-0.7-1.7-1.7v-0.7c0-0.9,0.7-1.7,1.7-1.7h22c0.9,0,1.7,0.7,1.7,1.7v0.7
		C-947.6-328.6-948.4-327.9-949.3-327.9z"/>
	<path class="st5" d="M-945.6-310.7h-28.9c-0.9,0-1.7-0.7-1.7-1.7v-0.7c0-0.9,0.7-1.7,1.7-1.7h28.9c0.9,0,1.7,0.7,1.7,1.7v0.7
		C-943.9-311.5-944.6-310.7-945.6-310.7z"/>
	<path class="st5" d="M-894.5-319.3H-923c-0.9,0-1.7-0.7-1.7-1.7v-0.7c0-0.9,0.7-1.7,1.7-1.7h28.5c0.9,0,1.7,0.7,1.7,1.7v0.7
		C-892.9-320.1-893.6-319.3-894.5-319.3z"/>
	<path class="st5" d="M-930.6-387.6h-34c-0.9,0-1.7-0.7-1.7-1.7v-0.7c0-0.9,0.7-1.7,1.7-1.7h34c0.9,0,1.7,0.7,1.7,1.7v0.7
		C-929-388.3-929.7-387.6-930.6-387.6z"/>
</g>
<path class="st0" d="M-845.3-357.4c0,0-0.9,82.6-91.9,82.6c0,0,41.8-18.7,44.2-58.2C-893-333-855.1-327.7-845.3-357.4z"/>
<path class="st7" d="M-882.5-455.9h-22c0-5.5-4.5-10-10-10s-10,4.5-10,10h-20.7c-1.9,0-3.4,1.5-3.4,3.4v5.6
	c0,7.8,6.3,14.1,14.1,14.1h41.2c7.8,0,14.1-6.3,14.1-14.1v-5.6C-879-454.4-880.6-455.9-882.5-455.9z M-914.4-450.7
	c-2.9,0-5.2-2.3-5.2-5.2c0-2.9,2.3-5.2,5.2-5.2s5.2,2.3,5.2,5.2C-909.2-453.1-911.6-450.7-914.4-450.7z"/>
<g>
	<circle class="st0" cx="-628.8" cy="-356.6" r="95.5"/>
	<g>
		<g>
			<rect x="-719.3" y="-338" class="st8" width="181.9" height="44.4"/>
			<circle class="st2" cx="-628.5" cy="-304.3" r="4.1"/>
		</g>
		<path class="st8" d="M-723.9-261.1h194.4c1.2,0,2.1-0.9,2.1-2.1v-0.2c0-1.2-0.9-2.1-2.1-2.1h-194.4c-1.2,0-2.1,0.9-2.1,2.1v0.2
			C-726-262-725.1-261.1-723.9-261.1z"/>
		<path class="st8" d="M-652.5-293.6c0,0-5.1,28.2-20.7,28.2h89.5c0,0-20-7.2-20-28.2H-652.5z"/>
		<linearGradient id="SVGID_2_" gradientUnits="userSpaceOnUse" x1="-628.527" y1="-265.4437" x2="-628.527" y2="-293.6293">
			<stop  offset="0" style="stop-color:#000000;stop-opacity:0"/>
			<stop  offset="0.9355" style="stop-color:#000000;stop-opacity:0.2806"/>
			<stop  offset="1" style="stop-color:#000000;stop-opacity:0.3"/>
		</linearGradient>
		<path class="st9" d="M-652.5-293.6c0,0-5.1,28.2-20.7,28.2h89.5c0,0-20-7.2-20-28.2H-652.5z"/>
	</g>
	<path class="st10" d="M-542-316.8h-171.6c-2.5,0-4.6-2.1-4.6-4.6v-104.2c0-2.5,2.1-4.6,4.6-4.6H-542c2.5,0,4.6,2.1,4.6,4.6v104.2
		C-537.4-318.9-539.5-316.8-542-316.8z"/>
	<rect x="-712.1" y="-423" class="st4" width="167.4" height="100.6"/>
	<g>
		<g>
			<linearGradient id="SVGID_3_" gradientUnits="userSpaceOnUse" x1="-677.1928" y1="-372.7133" x2="-571.8414" y2="-372.7133">
				<stop  offset="0" style="stop-color:#5C79FF"/>
				<stop  offset="0.3174" style="stop-color:#6583FF"/>
				<stop  offset="0.8548" style="stop-color:#7C9EFF"/>
				<stop  offset="1" style="stop-color:#83A6FF"/>
			</linearGradient>
			<path class="st11" d="M-603.8-386c0-2.8,0-5.6,0-8.5c0-7.5-5.4-13-12.9-13c-15.9,0-31.7,0-47.6,0c-1.9,0-3.9,0.4-5.5,1.2
				c-5,2.3-7.3,6.5-7.3,11.9c0,9.4,0,18.9,0,28.3c0,5,0,10.1,0,15.1c0.1,7.1,5.9,12.9,13,12.9c15.9,0,31.8,0,47.7,0
				c0.7,0,1.4,0,2-0.1c6.2-1.1,10.5-6,10.6-12.4c0-3,0-6,0-9C-603.8-364.7-603.8-381.3-603.8-386z M-586.7-395.4l-14,10.9l0.1,23.5
				l13.9,10.9c6,4.7,14.9,0.4,14.9-7.2v-30.8C-571.8-395.8-580.7-400.1-586.7-395.4z"/>
		</g>
	</g>
	
		<text transform="matrix(1 0 0 1 -658.4166 -367.6496)" class="st4" style="font-family:'IRANSansWeb-Black'; font-size:19.2119px;">Rec</text>
	<g>
		<g>
			<linearGradient id="SVGID_4_" gradientUnits="userSpaceOnUse" x1="-694.2787" y1="-410.448" x2="-680.7708" y2="-410.448">
				<stop  offset="0" style="stop-color:#5C79FF"/>
				<stop  offset="0.3174" style="stop-color:#6583FF"/>
				<stop  offset="0.8548" style="stop-color:#7C9EFF"/>
				<stop  offset="1" style="stop-color:#83A6FF"/>
			</linearGradient>
			<path class="st12" d="M-690-410.6c0.2-0.3,0.2-0.6,0.2-1c0-0.6-0.2-1-0.6-1.3c-0.4-0.3-0.9-0.5-1.6-0.5h-2.3v5.9h1.4v-2.1h0.8
				l1,2.1h1.5v-0.1l-1.2-2.4C-690.4-410.1-690.2-410.4-690-410.6z M-691.4-410.9c-0.1,0.1-0.3,0.2-0.6,0.2h-0.9v-1.6h0.9
				c0.3,0,0.5,0.1,0.6,0.2c0.1,0.1,0.2,0.3,0.2,0.6C-691.2-411.3-691.2-411.1-691.4-410.9z M-687-412c-0.4,0-0.8,0.1-1.1,0.3
				c-0.3,0.2-0.6,0.5-0.7,0.8c-0.2,0.3-0.2,0.7-0.2,1.2v0.1c0,0.6,0.2,1.2,0.6,1.6c0.4,0.4,1,0.6,1.6,0.6c0.4,0,0.7-0.1,1-0.2
				c0.3-0.1,0.6-0.3,0.7-0.6l-0.6-0.7c-0.2,0.3-0.6,0.4-1,0.4c-0.3,0-0.5-0.1-0.6-0.2c-0.2-0.1-0.3-0.3-0.3-0.6h2.7v-0.5
				c0-0.7-0.2-1.2-0.5-1.6C-685.9-411.8-686.4-412-687-412z M-686.4-410.2h-1.4c0.1-0.5,0.3-0.8,0.7-0.8c0.2,0,0.4,0.1,0.5,0.2
				c0.1,0.1,0.2,0.3,0.2,0.5V-410.2z M-682.2-408.7c-0.1,0.1-0.3,0.2-0.4,0.2c-0.2,0-0.4-0.1-0.5-0.3c-0.1-0.2-0.2-0.5-0.2-0.9
				c0-0.3,0-0.4,0-0.6c0.1-0.4,0.3-0.7,0.6-0.7c0.2,0,0.3,0.1,0.4,0.2c0.1,0.1,0.2,0.3,0.2,0.5h1.3c0-0.5-0.2-1-0.5-1.3
				c-0.3-0.3-0.8-0.5-1.3-0.5c-0.4,0-0.8,0.1-1.1,0.3c-0.3,0.2-0.5,0.4-0.7,0.8c-0.2,0.3-0.2,0.7-0.2,1.2v0.1c0,0.7,0.2,1.3,0.5,1.6
				c0.4,0.4,0.9,0.6,1.5,0.6c0.5,0,1-0.2,1.3-0.5c0.3-0.3,0.5-0.7,0.5-1.2h-1.3C-682-408.9-682.1-408.8-682.2-408.7z"/>
		</g>
	</g>
	<polyline class="st13" points="-707.4,-401.9 -707.4,-418.9 -689.3,-418.9 	"/>
	<polyline class="st13" points="-548.7,-401.9 -548.7,-418.9 -566.8,-418.9 	"/>
	<polyline class="st13" points="-707.4,-345.5 -707.4,-328.5 -689.3,-328.5 	"/>
	<polyline class="st13" points="-548.7,-345.5 -548.7,-328.5 -566.8,-328.5 	"/>
	<linearGradient id="SVGID_5_" gradientUnits="userSpaceOnUse" x1="-703.4608" y1="-410.431" x2="-696.3003" y2="-410.431">
		<stop  offset="0" style="stop-color:#5C79FF"/>
		<stop  offset="0.3174" style="stop-color:#6583FF"/>
		<stop  offset="0.8548" style="stop-color:#7C9EFF"/>
		<stop  offset="1" style="stop-color:#83A6FF"/>
	</linearGradient>
	<circle class="st14" cx="-699.9" cy="-410.4" r="3.6"/>
	<g>
		<linearGradient id="SVGID_6_" gradientUnits="userSpaceOnUse" x1="-580.4256" y1="-316.8172" x2="-507.0882" y2="-316.8172">
			<stop  offset="0" style="stop-color:#5C79FF"/>
			<stop  offset="0.3174" style="stop-color:#6583FF"/>
			<stop  offset="0.8548" style="stop-color:#7C9EFF"/>
			<stop  offset="1" style="stop-color:#83A6FF"/>
		</linearGradient>
		<circle class="st15" cx="-543.8" cy="-316.8" r="36.7"/>
		<g>
			<g>
				<linearGradient id="SVGID_7_" gradientUnits="userSpaceOnUse" x1="-566.5109" y1="-316.8172" x2="-518.134" y2="-316.8172">
					<stop  offset="0" style="stop-color:#FFFFFF"/>
					<stop  offset="0.1829" style="stop-color:#F5F8FF"/>
					<stop  offset="0.4935" style="stop-color:#DAE5FE"/>
					<stop  offset="0.8917" style="stop-color:#AFC7FC"/>
					<stop  offset="1" style="stop-color:#A2BEFC"/>
				</linearGradient>
				<path class="st16" d="M-532.8-322.9c0-1.3,0-2.6,0-3.9c0-3.5-2.5-5.9-5.9-6c-7.3,0-14.6,0-21.8,0c-0.9,0-1.8,0.2-2.5,0.5
					c-2.3,1.1-3.4,3-3.4,5.5c0,4.3,0,8.7,0,13c0,2.3,0,4.6,0,6.9c0,3.5,2.5,5.9,6,5.9c7.2,0,14.5,0,21.7,0c0.4,0,0.7,0,1.1-0.1
					c2.9-0.5,4.8-2.8,4.9-5.7c0-1.4,0-2.8,0-4.1C-532.8-313.1-532.8-320.7-532.8-322.9z M-525.8-326.5l-5.6,4.4l0.1,10.8l5.5,4.3
					c3.1,2.4,7.7,0.2,7.7-3.7v-12C-518.1-326.8-522.7-329-525.8-326.5z"/>
			</g>
		</g>
	</g>
	<path class="st10" d="M-710.4-264.9h-36c-3.8,0-6.9-3.1-6.9-6.9v-84.4c0-3.8,3.1-6.9,6.9-6.9h36c3.8,0,6.9,3.1,6.9,6.9v84.4
		C-703.4-268-706.5-264.9-710.4-264.9z"/>
	<path class="st4" d="M-750.1-272v-84.1c0-2.2,1.8-3.9,3.9-3.9h35.7c2.2,0,3.9,1.8,3.9,3.9v84.1c0,2.2-1.8,3.9-3.9,3.9h-35.7
		C-748.3-268-750.1-269.8-750.1-272z"/>
	<path class="st10" d="M-719.3-356h-17.2c-2.1,0-3.9-1.7-3.9-3.9v-0.3c0-0.7,0.6-1.3,1.3-1.3h22.3c0.7,0,1.3,0.6,1.3,1.3v0.3
		C-715.5-357.7-717.2-356-719.3-356z"/>
	<polyline class="st13" points="-738.5,-353.5 -746.5,-353.5 -746.5,-345.6 	"/>
	<polyline class="st13" points="-738.5,-272.2 -746.5,-272.2 -746.5,-280.1 	"/>
	<polyline class="st13" points="-718.2,-353.5 -710.2,-353.5 -710.2,-345.6 	"/>
	<polyline class="st13" points="-718.2,-272.2 -710.2,-272.2 -710.2,-280.1 	"/>
	<g>
		<g>
			<linearGradient id="SVGID_8_" gradientUnits="userSpaceOnUse" x1="-744.6034" y1="-314.0161" x2="-710.2107" y2="-314.0161">
				<stop  offset="0" style="stop-color:#5C79FF"/>
				<stop  offset="0.3174" style="stop-color:#6583FF"/>
				<stop  offset="0.8548" style="stop-color:#7C9EFF"/>
				<stop  offset="1" style="stop-color:#83A6FF"/>
			</linearGradient>
			<path class="st17" d="M-724.9-325.3c-5.2,0-10.3,0-15.5,0c-0.6,0-1.3,0.1-1.8,0.4c-1.6,0.8-2.4,2.1-2.4,3.9c0,3.1,0,6.2,0,9.2
				c0,1.6,0,3.3,0,4.9c0,2.3,1.9,4.2,4.3,4.2c5.2,0,10.4,0,15.6,0c0.2,0,0.4,0,0.7,0c2-0.3,3.4-2,3.5-4.1c0-1,0-2,0-2.9
				c0-1.7,0-7.1,0-8.6c0-0.9,0-1.8,0-2.8C-720.7-323.6-722.4-325.3-724.9-325.3z M-715.4-321.2l-4.2,3.3l0,7.7l4.2,3.3
				c2.1,1.6,5.2,0.1,5.2-2.5v-9.2C-710.2-321.3-713.3-322.8-715.4-321.2z"/>
		</g>
	</g>
	<text transform="matrix(1 0 0 1 -738.4733 -312.3625)" class="st4" style="font-family:'IRANSansWeb-Black'; font-size:6.2719px;">Rec</text>
	<g>
		<g>
			<linearGradient id="SVGID_9_" gradientUnits="userSpaceOnUse" x1="-738.2676" y1="-348.3485" x2="-730.5385" y2="-348.3485">
				<stop  offset="0" style="stop-color:#5C79FF"/>
				<stop  offset="0.3174" style="stop-color:#6583FF"/>
				<stop  offset="0.8548" style="stop-color:#7C9EFF"/>
				<stop  offset="1" style="stop-color:#83A6FF"/>
			</linearGradient>
			<path class="st18" d="M-735.8-348.5c0.1-0.2,0.1-0.3,0.1-0.6c0-0.3-0.1-0.6-0.3-0.7c-0.2-0.2-0.5-0.3-0.9-0.3h-1.3v3.4h0.8v-1.2
				h0.4l0.6,1.2h0.9v0l-0.7-1.4C-736.1-348.2-735.9-348.3-735.8-348.5z M-736.6-348.6c-0.1,0.1-0.2,0.1-0.3,0.1h-0.5v-0.9h0.5
				c0.2,0,0.3,0,0.3,0.1c0.1,0.1,0.1,0.2,0.1,0.3C-736.5-348.8-736.5-348.7-736.6-348.6z M-731.4-347.3c-0.1,0.1-0.1,0.1-0.3,0.1
				c-0.1,0-0.2,0-0.3-0.1c-0.1-0.1-0.1-0.3-0.1-0.5c0-0.1,0-0.3,0-0.3c0-0.3,0.2-0.4,0.4-0.4c0.1,0,0.2,0,0.3,0.1
				c0.1,0.1,0.1,0.2,0.1,0.3h0.7c0-0.3-0.1-0.6-0.3-0.7c-0.2-0.2-0.4-0.3-0.8-0.3c-0.2,0-0.4,0.1-0.6,0.2c-0.2,0.1-0.3,0.3-0.4,0.4
				c-0.1,0.2-0.1,0.4-0.1,0.7v0c0,0.4,0.1,0.7,0.3,0.9c0.2,0.2,0.5,0.3,0.9,0.3c0.3,0,0.6-0.1,0.8-0.3c0.2-0.2,0.3-0.4,0.3-0.7h-0.7
				C-731.3-347.5-731.3-347.4-731.4-347.3z M-734.1-349.2c-0.2,0-0.5,0.1-0.6,0.2c-0.2,0.1-0.3,0.3-0.4,0.5
				c-0.1,0.2-0.1,0.4-0.1,0.7v0.1c0,0.4,0.1,0.7,0.4,0.9s0.5,0.3,0.9,0.3c0.2,0,0.4,0,0.6-0.1c0.2-0.1,0.3-0.2,0.4-0.3l-0.4-0.4
				c-0.1,0.2-0.3,0.3-0.6,0.3c-0.1,0-0.3,0-0.4-0.1c-0.1-0.1-0.2-0.2-0.2-0.3h1.5v-0.3c0-0.4-0.1-0.7-0.3-0.9
				C-733.5-349.1-733.8-349.2-734.1-349.2z M-733.7-348.2h-0.8c0-0.3,0.2-0.5,0.4-0.5c0.1,0,0.2,0,0.3,0.1
				C-733.8-348.5-733.7-348.4-733.7-348.2L-733.7-348.2z"/>
		</g>
	</g>
	<linearGradient id="SVGID_10_" gradientUnits="userSpaceOnUse" x1="-743.5214" y1="-348.3388" x2="-739.4243" y2="-348.3388">
		<stop  offset="0" style="stop-color:#5C79FF"/>
		<stop  offset="0.3174" style="stop-color:#6583FF"/>
		<stop  offset="0.8548" style="stop-color:#7C9EFF"/>
		<stop  offset="1" style="stop-color:#83A6FF"/>
	</linearGradient>
	<circle class="st19" cx="-741.5" cy="-348.3" r="2"/>
</g>
<g>
	
		<image style="overflow:visible;opacity:0.2;" width="1067" height="804" xlink:href="45B0AC11.png"  transform="matrix(0.24 0 0 0.24 -958.6295 -106.3713)">
	</image>
	<g>
		<linearGradient id="SVGID_11_" gradientUnits="userSpaceOnUse" x1="-837.5587" y1="52.3926" x2="-837.5587" y2="-86.1752">
			<stop  offset="0" style="stop-color:#EDF1F6"/>
			<stop  offset="0.7183" style="stop-color:#F7F9FB"/>
			<stop  offset="1" style="stop-color:#FCFDFE"/>
		</linearGradient>
		<path class="st20" d="M-744.9,52.4h-185.3c-4.6,0-8.2-3.7-8.2-8.2V-77.9c0-4.6,3.7-8.2,8.2-8.2h185.3c4.6,0,8.2,3.7,8.2,8.2V44.2
			C-736.7,48.7-740.4,52.4-744.9,52.4z"/>
	</g>
</g>
<path class="st21" d="M-757-37.6h-36.3c-3.1,0-5.6-2.5-5.6-5.6v-18c0-3.1,2.5-5.6,5.6-5.6h36.3c3.1,0,5.6,2.5,5.6,5.6v18
	C-751.4-40.1-753.9-37.6-757-37.6z"/>
<path class="st21" d="M-893.5,14.6h-30.8c-2.3,0-4.1-1.8-4.1-4.1V9.3c0-2.3,1.8-4.1,4.1-4.1h30.8c2.3,0,4.1,1.8,4.1,4.1v1.2
	C-889.4,12.8-891.3,14.6-893.5,14.6z"/>
<path class="st21" d="M-901.3,40.1h-23c-2.3,0-4.1-1.8-4.1-4.1v-1.2c0-2.3,1.8-4.1,4.1-4.1h23c2.3,0,4.1,1.8,4.1,4.1V36
	C-897.2,38.2-899.1,40.1-901.3,40.1z"/>
<path class="st21" d="M-845.9,14.6h-30.8c-2.3,0-4.1-1.8-4.1-4.1V9.3c0-2.3,1.8-4.1,4.1-4.1h30.8c2.3,0,4.1,1.8,4.1,4.1v1.2
	C-841.8,12.8-843.7,14.6-845.9,14.6z"/>
<path class="st21" d="M-863.2,40.1h-23c-2.3,0-4.1-1.8-4.1-4.1v-1.2c0-2.3,1.8-4.1,4.1-4.1h23c2.3,0,4.1,1.8,4.1,4.1V36
	C-859.1,38.2-861,40.1-863.2,40.1z"/>
<path class="st21" d="M-798.4,14.6h-30.8c-2.3,0-4.1-1.8-4.1-4.1V9.3c0-2.3,1.8-4.1,4.1-4.1h30.8c2.3,0,4.1,1.8,4.1,4.1v1.2
	C-794.2,12.8-796.1,14.6-798.4,14.6z"/>
<path class="st21" d="M-750.8,14.6h-30.8c-2.3,0-4.1-1.8-4.1-4.1V9.3c0-2.3,1.8-4.1,4.1-4.1h30.8c2.3,0,4.1,1.8,4.1,4.1v1.2
	C-746.7,12.8-748.5,14.6-750.8,14.6z"/>
<text transform="matrix(1 0 0 1 -928.4661 -47.027)" class="st21" style="font-family:'IRANYekan-ExtraBold'; font-size:13.7363px;">BANK</text>
<linearGradient id="SVGID_12_" gradientUnits="userSpaceOnUse" x1="-777.0365" y1="60.3586" x2="-691.8373" y2="60.3586">
	<stop  offset="0" style="stop-color:#5C79FF"/>
	<stop  offset="0.3174" style="stop-color:#6583FF"/>
	<stop  offset="0.8548" style="stop-color:#7C9EFF"/>
	<stop  offset="1" style="stop-color:#83A6FF"/>
</linearGradient>
<circle class="st22" cx="-734.4" cy="60.4" r="42.6"/>
<linearGradient id="SVGID_13_" gradientUnits="userSpaceOnUse" x1="-754.9827" y1="60.3585" x2="-713.8912" y2="60.3585">
	<stop  offset="0" style="stop-color:#FFFFFF"/>
	<stop  offset="0.3038" style="stop-color:#F5F8FF"/>
	<stop  offset="0.8132" style="stop-color:#DBE4FF"/>
	<stop  offset="1" style="stop-color:#D0DBFF"/>
</linearGradient>
<path class="st23" d="M-720,54.3h-8.4v-8.4c0-3.4-2.7-6.1-6.1-6.1h0c-3.4,0-6.1,2.7-6.1,6.1v8.4h-8.4c-3.4,0-6.1,2.7-6.1,6.1v0
	c0,3.4,2.7,6.1,6.1,6.1h8.4v8.4c0,3.4,2.7,6.1,6.1,6.1h0c3.4,0,6.1-2.7,6.1-6.1v-8.4h8.4c3.4,0,6.1-2.7,6.1-6.1v0
	C-713.9,57-716.6,54.3-720,54.3z"/>
<linearGradient id="SVGID_14_" gradientUnits="userSpaceOnUse" x1="-1337.0861" y1="230.4517" x2="-1175.8854" y2="230.4517">
	<stop  offset="0" style="stop-color:#5C79FF"/>
	<stop  offset="0.3174" style="stop-color:#6583FF"/>
	<stop  offset="0.8548" style="stop-color:#7C9EFF"/>
	<stop  offset="1" style="stop-color:#83A6FF"/>
</linearGradient>
<path class="st24" d="M-1207.6,294l-125.5-39.7c-3-1-4.7-4.2-3.8-7.3l24.2-76.3c1-3,4.2-4.7,7.3-3.8l125.5,39.7c3,1,4.7,4.2,3.8,7.3
	l-24.2,76.3C-1201.3,293.3-1204.5,294.9-1207.6,294z"/>
<g>
	
		<text transform="matrix(0.9534 0.3018 -0.3018 0.9534 -1310.1764 186.1701)" class="st4" style="font-family:'IRANYekan-ExtraBold'; font-size:12.9782px;">BANK</text>
</g>
<path class="st4" d="M-1194.2,228.2l-14.9-4.7c-2.2-0.7-3.4-3-2.7-5.2l2.6-8.2c0.7-2.2,3-3.4,5.2-2.7l14.9,4.7
	c2.2,0.7,3.4,3,2.7,5.2l-2.6,8.2C-1189.6,227.7-1192,228.9-1194.2,228.2z"/>
<g>
	<path class="st4" d="M-1303.6,243.1l-17-5.4c-1.3-0.4-2.1-1.9-1.7-3.2l0.1-0.4c0.4-1.3,1.9-2.1,3.2-1.7l17,5.4
		c1.3,0.4,2.1,1.9,1.7,3.2l-0.1,0.4C-1300.8,242.8-1302.2,243.5-1303.6,243.1z"/>
	<path class="st4" d="M-1276.9,251.5l-17-5.4c-1.3-0.4-2.1-1.9-1.7-3.2l0.1-0.4c0.4-1.3,1.9-2.1,3.2-1.7l17,5.4
		c1.3,0.4,2.1,1.9,1.7,3.2l-0.1,0.4C-1274.1,251.2-1275.6,252-1276.9,251.5z"/>
	<path class="st4" d="M-1250.2,260l-17-5.4c-1.3-0.4-2.1-1.9-1.7-3.2l0.1-0.4c0.4-1.3,1.9-2.1,3.2-1.7l17,5.4
		c1.3,0.4,2.1,1.9,1.7,3.2l-0.1,0.4C-1247.5,259.7-1248.9,260.4-1250.2,260z"/>
	<path class="st4" d="M-1223.6,268.4l-17-5.4c-1.3-0.4-2.1-1.9-1.7-3.2l0.1-0.4c0.4-1.3,1.9-2.1,3.2-1.7l17,5.4
		c1.3,0.4,2.1,1.9,1.7,3.2l-0.1,0.4C-1220.8,268.1-1222.2,268.9-1223.6,268.4z"/>
</g>
<g>
	<g>
		<g>
			<path class="st4" d="M-1118,343.2l-17.9,18.5c-4.4,4.6-11.5,5.3-16.8,1.8l-24.1-16.2c0,0-22.3-20.8-22.3-35.6l-33.7-33.7
				c-4.8-4.8-4.8-12.5,0-17.3l0,0c4.8-4.8,12.5-4.8,17.3,0l30.9,30.9v-15.1l-9.3-5.6l7.3-24.2l44.9,10.6c5.5,1.1,9.7,5.6,10.5,11.2
				c2,15.4,6.8,45.5,14.9,58.9C-1113.1,332.4-1113.9,338.9-1118,343.2z"/>
			<path class="st25" d="M-1118,343.2l-17.9,18.5c-4.4,4.6-11.5,5.3-16.8,1.8l-24.1-16.2c0,0-22.3-20.8-22.3-35.6l-33.7-33.7
				c-4.8-4.8-4.8-12.5,0-17.3l0,0c4.8-4.8,12.5-4.8,17.3,0l30.9,30.9v-15.1l-9.3-5.6l7.3-24.2l44.9,10.6c5.5,1.1,9.7,5.6,10.5,11.2
				c2,15.4,6.8,45.5,14.9,58.9C-1113.1,332.4-1113.9,338.9-1118,343.2z"/>
		</g>
		<g>
			<path class="st4" d="M-1199.1,311.6v14.8c0,0-0.2,7.3-9.9,5s-9.9-27.2-9.9-27.2s-14.5,18.8-13-17.8l11,3.5L-1199.1,311.6z"/>
			<path class="st25" d="M-1199.1,311.6v14.8c0,0-0.2,7.3-9.9,5s-9.9-27.2-9.9-27.2s-14.5,18.8-13-17.8l11,3.5L-1199.1,311.6z"/>
		</g>
	</g>
</g>
<circle class="st0" cx="-83.3" cy="-364.1" r="119.3"/>
<g>
	<linearGradient id="SVGID_15_" gradientUnits="userSpaceOnUse" x1="-76.2348" y1="-466.0709" x2="-61.9992" y2="-466.0709">
		<stop  offset="0" style="stop-color:#9AE1DB"/>
		<stop  offset="1" style="stop-color:#19BAB5"/>
	</linearGradient>
	<path class="st26" d="M-74.6-450.4L-74.6-450.4c-1.3-0.5-2-1.9-1.5-3.2l9.2-26.6c0.4-1.2,1.6-1.8,2.8-1.6h0c1.5,0.3,2.5,1.8,2,3.3
		l-9.2,26.6C-71.8-450.7-73.3-450-74.6-450.4z"/>
</g>
<path class="st4" d="M-18.1-454.1h-130.5c-7.3,0-13.2,5.9-13.2,13.2v173c0,7.3,5.9,13.2,13.2,13.2h130.5c7.3,0,13.2-5.9,13.2-13.2
	v-173C-4.9-448.2-10.8-454.1-18.1-454.1z M-83.3-428.3c-4.9,0-8.8-3.9-8.8-8.8c0-4.9,3.9-8.8,8.8-8.8c4.9,0,8.8,3.9,8.8,8.8
	C-74.6-432.3-78.5-428.3-83.3-428.3z"/>
<g>
	<linearGradient id="SVGID_16_" gradientUnits="userSpaceOnUse" x1="-104.7355" y1="-459.3852" x2="-81.8582" y2="-459.3852">
		<stop  offset="0" style="stop-color:#9AE1DB"/>
		<stop  offset="1" style="stop-color:#19BAB5"/>
	</linearGradient>
	<path class="st27" d="M-86.6-438.4l-17.9-40c-0.7-1.5,0.2-3.2,1.9-3.5h0c1.1-0.2,2.2,0.4,2.7,1.4l17.9,40c0.6,1.3,0,2.7-1.3,3.3
		l0,0C-84.6-436.5-86.1-437.1-86.6-438.4z"/>
</g>
<linearGradient id="SVGID_17_" gradientUnits="userSpaceOnUse" x1="-50.0852" y1="-325.7738" x2="-131.4765" y2="-310.1216">
	<stop  offset="0" style="stop-color:#9AE1DB"/>
	<stop  offset="1" style="stop-color:#19BAB5"/>
</linearGradient>
<path class="st28" d="M-38.1-322.3l-26.6-12.2c0,0-8.3,9.1-18.6,9.1c-13,0-18.5-8.9-18.5-8.9l-26.7,12c-4.4,2-7.3,6.4-7.3,11.3l0,0
	h52.3h0.4h52.3l0,0C-30.8-315.9-33.7-320.3-38.1-322.3z"/>
<path class="st29" d="M-64.7-292.9h-39.8c-1.5,0-2.7-1.2-2.7-2.7l0,0c0-1.5,1.2-2.7,2.7-2.7h39.8c1.5,0,2.7,1.2,2.7,2.7l0,0
	C-62-294.1-63.2-292.9-64.7-292.9z"/>
<path class="st0" d="M-64.7-267.5h-39.8c-1.5,0-2.7-1.2-2.7-2.7v0c0-1.5,1.2-2.7,2.7-2.7h39.8c1.5,0,2.7,1.2,2.7,2.7v0
	C-62-268.7-63.2-267.5-64.7-267.5z"/>
<path class="st0" d="M-49.5-280.2h-70.2c-1.5,0-2.7-1.2-2.7-2.7l0,0c0-1.5,1.2-2.7,2.7-2.7h70.2c1.5,0,2.7,1.2,2.7,2.7l0,0
	C-46.8-281.4-48-280.2-49.5-280.2z"/>
<linearGradient id="SVGID_18_" gradientUnits="userSpaceOnUse" x1="-51.4827" y1="-259.97" x2="33.7165" y2="-259.97">
	<stop  offset="0" style="stop-color:#19BAB5"/>
	<stop  offset="1" style="stop-color:#9AE1DB"/>
</linearGradient>
<circle class="st30" cx="-8.9" cy="-260" r="42.6"/>
<g>
	<g>
		<linearGradient id="SVGID_19_" gradientUnits="userSpaceOnUse" x1="-35.3506" y1="-259.97" x2="17.5844" y2="-259.97">
			<stop  offset="0" style="stop-color:#FCFDFE"/>
			<stop  offset="0.2844" style="stop-color:#F2F6FE"/>
			<stop  offset="0.7658" style="stop-color:#D7E2FF"/>
			<stop  offset="1" style="stop-color:#C8D6FF"/>
		</linearGradient>
		<path class="st31" d="M-6.4-255.4c0.5-1.6-0.3-3-1.8-3.4c-1.5-0.4-2.9,0.4-3.3,1.9c-0.8,2.5-1.6,4.9-3,7.2c-1.2,2-2.5,3.9-3.8,5.8
			c-0.6,0.9-0.8,1.8-0.3,2.8c0.4,0.9,1.2,1.4,2.1,1.6c1,0.1,1.8-0.2,2.4-1C-10.6-245-8-250-6.4-255.4z M-22.1-257.9
			c0.2-1,0.2-2,0.3-3c0.2-1.8,0.7-3.6,1.5-5.2c0.9-1.8-0.3-3.9-2.3-3.9c-1.1,0-2,0.5-2.5,1.5c-1.4,2.7-2.2,5.5-2.2,8.5
			c0,2.2-1.3,4-3.3,4.7c-0.6,0.2-1.2,0.2-1.8,0.3c-1.1,0.1-2,0.9-2.3,1.9c-0.6,1.9,0.9,3.5,3,3.4C-26.9-249.9-23-253.2-22.1-257.9z
			 M-32.9-257.2c1.3,0.1,2.5-0.7,2.8-1.9c0.1-0.5,0.1-0.9,0.2-1.4c0.2-1.5,0.3-3,0.6-4.4c0.9-3.7,2.7-6.9,5.4-9.7
			c1.1-1.1,1-2.8-0.1-3.8c-1.1-1-2.7-1-3.8,0.1c-4.7,4.9-7.2,10.6-7.5,17.2c0,0.7,0,1.1,0,1.6C-35.2-258.3-34.2-257.3-32.9-257.2z
			 M-18.4-278.7c0.7-0.3,1.3-0.6,2-0.9c4.9-1.8,9.8-1.8,14.7-0.1c1.5,0.5,3-0.2,3.5-1.7c0.5-1.4-0.3-2.8-1.7-3.4
			c-2.9-1.1-5.9-1.6-7.9-1.6c-5.2,0-9.1,0.9-12.8,2.8c-1.4,0.7-1.9,2.2-1.3,3.5C-21.3-278.7-19.8-278.1-18.4-278.7z M10.1-278.2
			c-1.1-1.2-2.8-1.3-3.9-0.2c-1.1,1-1.1,2.7,0,3.9c0.7,0.8,1.5,1.6,2.1,2.5c3.5,4.9,4.4,10.5,3.7,16.3c-0.4,3.4-1.2,6.6-2.5,9.8
			c-0.2,0.5-0.2,1.1-0.1,1.6c0.2,1.2,1.2,2,2.3,2.1c1.3,0.1,2.3-0.5,2.8-1.8c2-5,3-10.1,3.1-17.9C17.6-266.7,15.1-273,10.1-278.2z
			 M4.5-272.3c-0.1-0.1-0.2-0.1-0.2-0.2c-0.1-0.1-0.2-0.2-0.3-0.2c-2.8-2-7.4-5.4-13.1-5.4c-0.4,0-1.1,0.1-1.8,0.1
			c-2.2,0.2-4.3,0.8-6.2,1.8c-0.6,0.3-1,0.8-1.2,1.4h0v0c-0.2,0.4-0.2,0.9-0.2,1.3c0.2,1.1,1,2.1,2.2,2.2c0.6,0.1,1.3-0.1,1.9-0.3
			c3.1-1.4,6.4-1.7,9.6-0.5c5,1.8,7.9,5.4,8.8,10.6c0.3,1.6,1.5,2.7,3,2.5c1.5-0.2,2.5-1.5,2.3-3.1C8.8-266,7.2-269.4,4.5-272.3z
			 M-5-246.4c-1.1-0.3-2.4,0.1-3,1.2c-1.6,2.6-3.4,5-5.7,7.1c-1.1,1-1.1,2.7-0.1,3.8c1,1,2.7,1.1,3.8,0.1c2.6-2.4,4.7-5,6.5-8.1
			c0.2-0.4,0.4-0.9,0.5-1.4C-3-245.1-3.8-246.1-5-246.4z M6.2-255.1c-1.5-0.2-2.8,0.7-3.1,2.3c-0.4,2.6-1,5.1-2.1,7.5
			c-0.9,2.1-2,4.1-3.1,6.2c-0.5,1-0.5,1.9,0,2.8c0.5,0.9,1.3,1.3,2.3,1.3c1-0.1,1.7-0.5,2.2-1.3c3-4.8,5-10,5.9-15.7
			C8.7-253.5,7.7-254.9,6.2-255.1z M0.1-250.9c0.7-2.7,1.1-5.4,1.2-8.2c0-0.2,0-0.4,0-0.5c0.1-4.9-3.3-9.1-8.1-10.1
			c-4.7-1-9.5,1.5-11.5,5.9c-0.7,1.5-0.8,3.2-0.9,4.8c-0.1,2.7-1,5.1-2.7,7.2c-1.7,2.1-3.8,3.6-6.4,4.4c-1.5,0.5-2.2,1.9-1.8,3.3
			c0.5,1.5,1.9,2.2,3.4,1.7c1-0.3,2-0.7,3-1.2c6.2-3.4,9.5-8.7,9.9-15.8c0-1,0.1-1.9,0.6-2.8c1.1-1.9,3.3-2.9,5.4-2.3
			c2.2,0.6,3.6,2.5,3.6,4.9c0,2.6-0.4,5.1-1,7.6c-0.4,1.4,0.5,2.9,1.9,3.2C-1.7-248.4-0.3-249.3,0.1-250.9z"/>
	</g>
</g>
<image style="overflow:visible;" width="323" height="274" xlink:href="45B0AC17.jpg"  transform="matrix(1 0 0 1 -1667.0974 -817.9348)">
</image>
<path class="st4" d="M-70.7-335.2v-11.2l-12.6-4l-12.6,4v11.2l-6,0.7c0,0,7.7,9.1,18.6,9.1s18.6-9.1,18.6-9.1L-70.7-335.2z"/>
<linearGradient id="SVGID_20_" gradientUnits="userSpaceOnUse" x1="-83.3383" y1="-334.7721" x2="-83.3383" y2="-353.9787">
	<stop  offset="0" style="stop-color:#1D1D1B;stop-opacity:0"/>
	<stop  offset="0.3853" style="stop-color:#161614;stop-opacity:0.1926"/>
	<stop  offset="0.9527" style="stop-color:#020202;stop-opacity:0.4763"/>
	<stop  offset="1" style="stop-color:#000000;stop-opacity:0.5"/>
</linearGradient>
<rect x="-95.9" y="-354" class="st32" width="25.2" height="19.2"/>
<path class="st33" d="M-102.9-352.4c0,0-6.6,4.6,0,8.6s15.7,8.1,15.7,20.1c0,12-14.3,9.8-14.3,9.8s2.2-1.4,2.2-6.3
	s-5.8-10.3-13-10.3s-17.4-4.6-17.4-13.7s10.6-19.1,20.3-19.1l7.1,2.8L-102.9-352.4z"/>
<path class="st4" d="M-52.4-378.2c0.8-4,1-7.2,0.7-8.8c-1.5-7.2-32.2-15.1-32.2-15.1h-16.9l-14.3,20.4c0,0,0.2,1.3,0.7,3.4
	c-8.6,10.3,3.9,12.9,4.1,12.9c4.5,10.9,12.6,23.1,26.4,23.1c13.8,0,22.7-11.6,27.6-23.2C-54.6-365.9-44.6-368.8-52.4-378.2z"/>
<path class="st33" d="M-115.8-380c0,0,13.5-4,18.7-16.9c0,0,14.3,16.6,45.4,9.8c0,0-2-30.2-33.3-30.2S-117-382.8-115.8-380z"/>
<g>
	<linearGradient id="SVGID_21_" gradientUnits="userSpaceOnUse" x1="81.3003" y1="86.0841" x2="4.6887" y2="100.8171">
		<stop  offset="0" style="stop-color:#9AE1DB"/>
		<stop  offset="1" style="stop-color:#19BAB5"/>
	</linearGradient>
	<path class="st34" d="M92.5,89.4l-25-11.5c0,0-7.8,8.6-17.5,8.6c-12.3,0-17.4-8.4-17.4-8.4L7.5,89.4c-4.2,1.9-6.9,6-6.9,10.6v0
		h49.3h0.3h49.3v0C99.4,95.4,96.7,91.2,92.5,89.4z"/>
	<path class="st4" d="M61.9,77.2V66.7L50,63l-11.9,3.7v10.5l-5.7,0.6c0,0,7.2,8.6,17.5,8.6s17.5-8.6,17.5-8.6L61.9,77.2z"/>
	<linearGradient id="SVGID_22_" gradientUnits="userSpaceOnUse" x1="50" y1="77.6142" x2="50" y2="59.5355">
		<stop  offset="0" style="stop-color:#1D1D1B;stop-opacity:0"/>
		<stop  offset="0.3853" style="stop-color:#161614;stop-opacity:0.1926"/>
		<stop  offset="0.9527" style="stop-color:#020202;stop-opacity:0.4763"/>
		<stop  offset="1" style="stop-color:#000000;stop-opacity:0.5"/>
	</linearGradient>
	<rect x="38.1" y="59.5" class="st35" width="23.7" height="18.1"/>
	<path class="st33" d="M31.6,61c0,0-6.2,4.3,0,8.1c6.2,3.8,14.8,7.6,14.8,18.9s-13.5,9.2-13.5,9.2s2.1-1.3,2.1-5.9
		c0-4.6-5.5-9.7-12.3-9.7S6.3,77.2,6.3,68.7s10-18,19.1-18l6.7,2.7L31.6,61z"/>
	<path class="st4" d="M79.2,36.7c0.8-3.7,0.9-6.8,0.6-8.3c-1.4-6.8-30.3-14.2-30.3-14.2H33.5L20.1,33.4c0,0,0.2,1.2,0.7,3.2
		c-8.1,9.7,3.7,12.1,3.9,12.2C28.8,59,36.5,70.5,49.5,70.5c13,0,21.3-11,25.9-21.8C77.1,48.3,86.5,45.6,79.2,36.7z"/>
	<path class="st33" d="M19.5,35.1c0,0,12.7-3.8,17.6-15.9c0,0,13.5,15.7,42.7,9.2c0,0-1.9-28.4-31.4-28.4S18.4,32.4,19.5,35.1z"/>
</g>
</svg>
