<svg id="SvgjsSvg1027" width="288" height="288" xmlns="http://www.w3.org/2000/svg" version="1.1" xmlns:xlink="http://www.w3.org/1999/xlink" xmlns:svgjs="http://svgjs.com/svgjs"><defs id="SvgjsDefs1028"></defs><g id="SvgjsG1029"><svg xmlns="http://www.w3.org/2000/svg" enable-background="new 0 0 24 24" viewBox="0 0 24 24" width="288" height="288"><path fill="#959db0" d="M12,0C5.383,0,0,5.383,0,12s5.383,12,12,12s12-5.383,12-12S18.617,0,12,0z" class="color303c42 svgShape"></path><path fill="#d3d8de" d="M15.858,11C15.411,9.28,13.859,8,12,8c-2.206,0-4,1.794-4,4s1.794,4,4,4c1.859,0,3.411-1.28,3.858-3   h2.052c-0.478,2.833-2.942,5-5.91,5c-3.309,0-6-2.691-6-6s2.691-6,6-6c2.967,0,5.431,2.167,5.91,5H15.858z" class="colorgray svgShape"></path><path fill="#959db0" d="M12,13h2.816c-0.414,1.161-1.514,2-2.816,2c-1.654,0-3-1.346-3-3s1.346-3,3-3   c1.302,0,2.402,0.839,2.816,2H12c-0.553,0-1,0.448-1,1S11.447,13,12,13z" class="color666 svgShape"></path><path fill="#d3d8de" d="M18.92,11H22c0.548,0,0.989,0.441,0.997,0.986h0.002c-0.004-2.847-1.103-5.437-2.888-7.39   l-2.827,2.827C18.142,8.413,18.725,9.643,18.92,11z" class="colorgray svgShape"></path><path fill="#eef0f3" d="M22,13h-3.08c-0.488,3.387-3.401,6-6.92,6c-3.859,0-7-3.14-7-7s3.141-7,7-7   c1.75,0,3.348,0.65,4.577,1.716l2.827-2.827C17.448,2.101,14.853,1,12,1C5.935,1,1,5.935,1,12s4.935,11,11,11s11-4.935,11-11   C23,12.552,22.553,13,22,13z" class="colore6e6e6 svgShape"></path><polygon fill="#eef0f3" points="23 11.998 23 12 23 11.998" class="colore6e6e6 svgShape"></polygon><path fill="#959db0" d="M12 4c.552 0 1-.449 1-1s-.448-1-1-1-1 .449-1 1S11.448 4 12 4zM12 2.999L12.5 3 12 2.999C12 3 12 3 12 2.999zM12 20c-.552 0-1 .449-1 1s.448 1 1 1 1-.449 1-1S12.552 20 12 20zM12 21C12 21 12 21 12 21h.5H12z" class="color303c42 svgShape"></path><linearGradient id="a" x1="14.354" x2="22.169" y1="9.563" y2="17.377" gradientUnits="userSpaceOnUse"><stop offset="0" stop-opacity=".23" stop-color="#7c859c" class="stopColor000000 svgShape"></stop><stop offset="1" stop-opacity=".08" stop-color="#7c859c" class="stopColor000000 svgShape"></stop></linearGradient><path fill="url(#a)" d="M14.816,13H12c-0.295,0-0.552-0.132-0.735-0.335l-0.015,0.001l2.036,2.036   C13.994,14.36,14.549,13.749,14.816,13z M17.91,13h-2.052c-0.269,1.035-0.943,1.904-1.837,2.437l1.435,1.435   C16.724,15.968,17.64,14.599,17.91,13z M22,13h-3.08c-0.27,1.876-1.287,3.512-2.736,4.601l2.848,2.848   C21.455,18.43,23,15.393,23,12C23,12.552,22.553,13,22,13z"></path><path fill="#959db0" d="M5.636 6.636c.256 0 .512-.098.707-.292.189-.189.293-.44.293-.708 0-.267-.104-.518-.293-.706v0c-.391-.39-1.023-.39-1.414 0C4.74 5.117 4.636 5.368 4.636 5.635c0 .268.104.519.293.708C5.124 6.538 5.38 6.636 5.636 6.636zM5.989 5.283L5.636 5.636c0 0 0 0-.001 0L5.989 5.283zM17.657 17.657c-.189.189-.293.44-.293.708 0 .267.104.518.293.706.195.195.451.292.707.292s.512-.097.707-.292c.188-.188.293-.439.293-.707 0-.268-.104-.519-.293-.708C18.681 17.267 18.048 17.267 17.657 17.657zM18.364 18.364C18.364 18.364 18.364 18.363 18.364 18.364l.354-.354L18.364 18.364zM3 11c-.552 0-1 .449-1 1s.448 1 1 1 1-.449 1-1S3.552 11 3 11zM3 12L3 12v-.5V12zM4.929 17.657c-.189.189-.293.44-.293.708 0 .267.104.518.293.706.195.195.451.292.707.292s.512-.097.707-.292c.188-.188.293-.439.293-.707 0-.268-.104-.519-.293-.708C5.952 17.267 5.319 17.267 4.929 17.657zM5.282 18.01l.353.353c.001 0 .001.001.001.001L5.282 18.01z" class="color303c42 svgShape"></path><path fill="#eef0f3" d="M12,13h10c0.552,0,1-0.448,1-1v0c0-0.552-0.448-1-1-1H12c-0.552,0-1,0.448-1,1v0   C11,12.552,11.448,13,12,13z" class="colore6e6e6 svgShape"></path><linearGradient id="b" x1="1.125" x2="22.875" y1="6.929" y2="17.071" gradientUnits="userSpaceOnUse"><stop offset="0" stop-color="#ffffff" stop-opacity=".2" class="stopColorfff svgShape"></stop><stop offset="1" stop-color="#ffffff" stop-opacity="0" class="stopColorfff svgShape"></stop></linearGradient><path fill="url(#b)" d="M12,0C5.383,0,0,5.383,0,12s5.383,12,12,12s12-5.383,12-12S18.617,0,12,0z"></path></svg></g></svg>