<svg width="32" height="32" viewBox="0 0 32 32" fill="none" xmlns="http://www.w3.org/2000/svg">
<path d="M16.0002 3.20001C8.94228 3.20001 3.2002 8.94209 3.2002 16V21.3031C3.2002 22.6138 4.34836 23.68 5.7602 23.68H7.0402C7.37967 23.68 7.70525 23.5452 7.94529 23.3051C8.18534 23.0651 8.3202 22.7395 8.3202 22.4V15.817C8.3202 15.4775 8.18534 15.1519 7.94529 14.9119C7.70525 14.6718 7.37967 14.537 7.0402 14.537H5.87796C6.58964 9.58337 10.852 5.76001 16.0002 5.76001C21.1484 5.76001 25.4108 9.58337 26.1224 14.537H24.9602C24.6207 14.537 24.2951 14.6718 24.0551 14.9119C23.8151 15.1519 23.6802 15.4775 23.6802 15.817V23.68C23.6802 25.0919 22.532 26.24 21.1202 26.24H18.5602V24.96H13.4402V28.8H21.1202C23.9439 28.8 26.2402 26.5037 26.2402 23.68C27.652 23.68 28.8002 22.6138 28.8002 21.3031V16C28.8002 8.94209 23.0581 3.20001 16.0002 3.20001Z" fill="#00BABA"/>
</svg>
