<svg width="74" height="74" viewBox="0 0 74 74" fill="none" xmlns="http://www.w3.org/2000/svg">
<path fill-rule="evenodd" clip-rule="evenodd" d="M70.2992 22.2619C70.2992 17 66.0272 12.728 60.7652 12.728H13.2332C7.97124 12.728 3.69922 17 3.69922 22.2619V41.3298C3.69922 46.5918 7.97124 50.8638 13.2332 50.8638H31.1859L36.9803 62.456L42.7888 50.8638H60.7652C66.0272 50.8638 70.2992 46.5918 70.2992 41.3298V22.2619ZM36.9992 27.528C38.9596 27.528 40.5512 29.1196 40.5512 31.08C40.5512 33.0404 38.9596 34.632 36.9992 34.632C35.0388 34.632 33.4472 33.0404 33.4472 31.08C33.4472 29.1196 35.0388 27.528 36.9992 27.528ZM53.4272 27.528C55.3876 27.528 56.9792 29.1196 56.9792 31.08C56.9792 33.0404 55.3876 34.632 53.4272 34.632C51.4668 34.632 49.8752 33.0404 49.8752 31.08C49.8752 29.1196 51.4668 27.528 53.4272 27.528ZM20.5712 27.528C22.5316 27.528 24.1232 29.1196 24.1232 31.08C24.1232 33.0404 22.5316 34.632 20.5712 34.632C18.6108 34.632 17.0192 33.0404 17.0192 31.08C17.0192 29.1196 18.6108 27.528 20.5712 27.528Z" fill="url(#paint0_linear_1458_22711)"/>
<defs>
<linearGradient id="paint0_linear_1458_22711" x1="3.69922" y1="37.592" x2="69.9662" y2="37.592" gradientUnits="userSpaceOnUse">
<stop stop-color="#02BABA"/>
<stop offset="1" stop-color="#A7E3E3"/>
</linearGradient>
</defs>
</svg>
