<?xml version="1.0" encoding="utf-8"?>
<!-- Generator: Adobe Illustrator 25.3.1, SVG Export Plug-In . SVG Version: 6.00 Build 0)  -->
<svg version="1.1" id="Layer_1" xmlns="http://www.w3.org/2000/svg" xmlns:xlink="http://www.w3.org/1999/xlink" x="0px" y="0px"
	 viewBox="0 0 100 100" style="enable-background:new 0 0 100 100;" xml:space="preserve">
<style type="text/css">
	.st0{fill:#EAEEF9;}
	.st1{fill:url(#SVGID_1_);}
	.st2{fill:#CED7E2;}
	.st3{fill:#DAE2EB;}
	.st4{fill:#FFFFFF;}
	.st5{fill:#D4DCE6;}
	.st6{fill:#E3EAF1;}
	.st7{fill:#2D5887;}
	.st8{fill:#F5F8FF;}
	.st9{fill:url(#SVGID_2_);}
	.st10{fill:#172D45;}
	.st11{fill:url(#SVGID_3_);}
	.st12{fill:url(#SVGID_4_);}
	.st13{fill:none;stroke:#172D45;stroke-miterlimit:10;}
	.st14{fill:url(#SVGID_5_);}
	.st15{fill:url(#SVGID_6_);}
	.st16{fill:url(#SVGID_7_);}
	.st17{fill:url(#SVGID_8_);}
	.st18{fill:url(#SVGID_9_);}
	.st19{fill:url(#SVGID_10_);}
	.st20{fill:url(#SVGID_11_);}
	.st21{fill:#D5DDEA;}
	.st22{fill:url(#SVGID_12_);}
	.st23{fill:url(#SVGID_13_);}
	.st24{fill:url(#SVGID_14_);}
	.st25{fill:none;stroke:#7D9FFF;stroke-miterlimit:10;}
	.st26{fill:url(#SVGID_15_);}
	.st27{fill:#1C3754;}
	.st28{fill:url(#SVGID_16_);}
</style>
<circle class="st0" cx="-785.6" cy="71" r="119.3"/>
<circle class="st0" cx="-705.7" cy="400.4" r="119.3"/>
<circle class="st0" cx="-1088.9" cy="684.5" r="119.3"/>
<radialGradient id="SVGID_1_" cx="-777.1174" cy="175.9849" r="88.5921" gradientUnits="userSpaceOnUse">
	<stop  offset="0" style="stop-color:#000000;stop-opacity:0.2"/>
	<stop  offset="1" style="stop-color:#000000;stop-opacity:5.000000e-02"/>
</radialGradient>
<ellipse class="st1" cx="-777.1" cy="176" rx="125.3" ry="2.9"/>
<path class="st2" d="M-707.3,174.7h-150.4c-2.9,0-5.2-2.3-5.2-5.2V-31.2c0-2.9,2.3-5.2,5.2-5.2h150.4c2.9,0,5.2,2.3,5.2,5.2v200.7
	C-702.1,172.4-704.4,174.7-707.3,174.7z"/>
<g>
	
		<image style="overflow:visible;opacity:0.23;" width="635" height="803" xlink:href="C9746B0C.png"  transform="matrix(0.24 0 0 0.24 -856.8148 -24.5652)">
	</image>
	<g>
		<rect x="-855.6" y="-23.3" class="st3" width="146" height="186.3"/>
	</g>
</g>
<path class="st4" d="M-855.6-23.3h146l-3.9,83.3c0,0-4.8,82.6-91.9,82.6h-74.1C-879.5,142.6-859.5,121.5-855.6-23.3z"/>
<g>
	<path class="st5" d="M-736.7,13.1h-94.7c-0.9,0-1.7-0.7-1.7-1.7v-0.7c0-0.9,0.7-1.7,1.7-1.7h94.7c0.9,0,1.7,0.7,1.7,1.7v0.7
		C-735,12.3-735.7,13.1-736.7,13.1z"/>
	<path class="st6" d="M-785.7,21.4h-45.7c-0.9,0-1.7-0.7-1.7-1.7V19c0-0.9,0.7-1.7,1.7-1.7h45.7c0.9,0,1.7,0.7,1.7,1.7v0.7
		C-784,20.7-784.7,21.4-785.7,21.4z"/>
	<path class="st6" d="M-802,50.3h-31.9c-0.9,0-1.7-0.7-1.7-1.7v-0.7c0-0.9,0.7-1.7,1.7-1.7h31.9c0.9,0,1.7,0.7,1.7,1.7v0.7
		C-800.3,49.6-801.1,50.3-802,50.3z"/>
	<path class="st6" d="M-774.3,58.9h-60.2c-0.9,0-1.7-0.7-1.7-1.7v-0.7c0-0.9,0.7-1.7,1.7-1.7h60.2c0.9,0,1.7,0.7,1.7,1.7v0.7
		C-772.7,58.2-773.4,58.9-774.3,58.9z"/>
	<path class="st6" d="M-779.1,68.1h-57.6c-0.9,0-1.7-0.7-1.7-1.7v-0.7c0-0.9,0.7-1.7,1.7-1.7h57.6c0.9,0,1.7,0.7,1.7,1.7v0.7
		C-777.4,67.4-778.2,68.1-779.1,68.1z"/>
	<path class="st6" d="M-761.1,89.4h-46.5c-0.9,0-1.7-0.7-1.7-1.7V87c0-0.9,0.7-1.7,1.7-1.7h46.5c0.9,0,1.7,0.7,1.7,1.7v0.7
		C-759.5,88.7-760.2,89.4-761.1,89.4z"/>
	<path class="st6" d="M-799.9,98h-41.3c-0.9,0-1.7-0.7-1.7-1.7v-0.7c0-0.9,0.7-1.7,1.7-1.7h41.3c0.9,0,1.7,0.7,1.7,1.7v0.7
		C-798.3,97.3-799,98-799.9,98z"/>
	<path class="st5" d="M-736.6,21.4h-38c-0.9,0-1.7-0.7-1.7-1.7V19c0-0.9,0.7-1.7,1.7-1.7h38c0.9,0,1.7,0.7,1.7,1.7v0.7
		C-735,20.7-735.7,21.4-736.6,21.4z"/>
	<path class="st5" d="M-739.5,50.3h-53.4c-0.9,0-1.7-0.7-1.7-1.7v-0.7c0-0.9,0.7-1.7,1.7-1.7h53.4c0.9,0,1.7,0.7,1.7,1.7v0.7
		C-737.9,49.6-738.6,50.3-739.5,50.3z"/>
	<path class="st5" d="M-740.4,58.9h-22c-0.9,0-1.7-0.7-1.7-1.7v-0.7c0-0.9,0.7-1.7,1.7-1.7h22c0.9,0,1.7,0.7,1.7,1.7v0.7
		C-738.7,58.2-739.5,58.9-740.4,58.9z"/>
	<path class="st5" d="M-817.5,89.4h-22c-0.9,0-1.7-0.7-1.7-1.7V87c0-0.9,0.7-1.7,1.7-1.7h22c0.9,0,1.7,0.7,1.7,1.7v0.7
		C-815.8,88.7-816.6,89.4-817.5,89.4z"/>
	<path class="st5" d="M-813.8,106.6h-28.9c-0.9,0-1.7-0.7-1.7-1.7v-0.7c0-0.9,0.7-1.7,1.7-1.7h28.9c0.9,0,1.7,0.7,1.7,1.7v0.7
		C-812.1,105.9-812.8,106.6-813.8,106.6z"/>
	<path class="st5" d="M-762.7,98h-28.5c-0.9,0-1.7-0.7-1.7-1.7v-0.7c0-0.9,0.7-1.7,1.7-1.7h28.5c0.9,0,1.7,0.7,1.7,1.7v0.7
		C-761.1,97.3-761.8,98-762.7,98z"/>
	<path class="st5" d="M-798.8,29.7h-34c-0.9,0-1.7-0.7-1.7-1.7v-0.7c0-0.9,0.7-1.7,1.7-1.7h34c0.9,0,1.7,0.7,1.7,1.7v0.7
		C-797.1,29-797.9,29.7-798.8,29.7z"/>
</g>
<path class="st0" d="M-713.5,59.9c0,0-0.9,82.6-91.9,82.6c0,0,41.8-18.7,44.2-58.2C-761.2,84.3-723.2,89.7-713.5,59.9z"/>
<path class="st7" d="M-750.7-38.6h-22c0-5.5-4.5-10-10-10c-5.5,0-10,4.5-10,10h-20.7c-1.9,0-3.4,1.5-3.4,3.4v5.6
	c0,7.8,6.3,14.1,14.1,14.1h41.2c7.8,0,14.1-6.3,14.1-14.1v-5.6C-747.2-37.1-748.8-38.6-750.7-38.6z M-782.6-33.4
	c-2.9,0-5.2-2.3-5.2-5.2c0-2.9,2.3-5.2,5.2-5.2s5.2,2.3,5.2,5.2C-777.4-35.7-779.8-33.4-782.6-33.4z"/>
<g>
	<circle class="st0" cx="-497" cy="60.8" r="95.5"/>
	<g>
		<g>
			<rect x="-587.5" y="79.3" class="st8" width="181.9" height="44.4"/>
			<circle class="st2" cx="-496.7" cy="113" r="4.1"/>
		</g>
		<path class="st8" d="M-592.1,156.3h194.4c1.2,0,2.1-0.9,2.1-2.1V154c0-1.2-0.9-2.1-2.1-2.1h-194.4c-1.2,0-2.1,0.9-2.1,2.1v0.2
			C-594.2,155.3-593.3,156.3-592.1,156.3z"/>
		<path class="st8" d="M-520.7,123.7c0,0-5.1,28.2-20.7,28.2h89.5c0,0-20-7.2-20-28.2H-520.7z"/>
		<linearGradient id="SVGID_2_" gradientUnits="userSpaceOnUse" x1="-496.7123" y1="151.8824" x2="-496.7123" y2="123.6968">
			<stop  offset="0" style="stop-color:#000000;stop-opacity:0"/>
			<stop  offset="0.9355" style="stop-color:#000000;stop-opacity:0.2806"/>
			<stop  offset="1" style="stop-color:#000000;stop-opacity:0.3"/>
		</linearGradient>
		<path class="st9" d="M-520.7,123.7c0,0-5.1,28.2-20.7,28.2h89.5c0,0-20-7.2-20-28.2H-520.7z"/>
	</g>
	<path class="st10" d="M-410.2,100.5h-171.6c-2.5,0-4.6-2.1-4.6-4.6V-8.3c0-2.5,2.1-4.6,4.6-4.6h171.6c2.5,0,4.6,2.1,4.6,4.6V95.9
		C-405.6,98.5-407.6,100.5-410.2,100.5z"/>
	<rect x="-580.3" y="-5.7" class="st4" width="167.4" height="100.6"/>
	<g>
		<g>
			<linearGradient id="SVGID_3_" gradientUnits="userSpaceOnUse" x1="-545.3781" y1="44.6127" x2="-440.0267" y2="44.6127">
				<stop  offset="0" style="stop-color:#5C79FF"/>
				<stop  offset="0.3174" style="stop-color:#6583FF"/>
				<stop  offset="0.8548" style="stop-color:#7C9EFF"/>
				<stop  offset="1" style="stop-color:#83A6FF"/>
			</linearGradient>
			<path class="st11" d="M-472,31.3c0-2.8,0-5.6,0-8.5c0-7.5-5.4-13-12.9-13c-15.9,0-31.7,0-47.6,0c-1.9,0-3.9,0.4-5.5,1.2
				c-5,2.3-7.3,6.5-7.3,11.9c0,9.4,0,18.9,0,28.3c0,5,0,10.1,0,15.1c0.1,7.1,5.9,12.9,13,12.9c15.9,0,31.8,0,47.7,0
				c0.7,0,1.4,0,2-0.1c6.2-1.1,10.5-6,10.6-12.4c0-3,0-6,0-9C-472,52.6-472,36.1-472,31.3z M-454.9,22l-14,10.9l0.1,23.5l13.9,10.9
				c6,4.7,14.9,0.4,14.9-7.2V29.2C-440,21.5-448.9,17.2-454.9,22z"/>
		</g>
	</g>
	<text transform="matrix(1 0 0 1 -526.6019 49.6765)" class="st4" style="font-family:'IRANSansWeb-Black'; font-size:19.2119px;">Rec</text>
	<g>
		<g>
			<linearGradient id="SVGID_4_" gradientUnits="userSpaceOnUse" x1="-562.464" y1="6.8781" x2="-548.9561" y2="6.8781">
				<stop  offset="0" style="stop-color:#5C79FF"/>
				<stop  offset="0.3174" style="stop-color:#6583FF"/>
				<stop  offset="0.8548" style="stop-color:#7C9EFF"/>
				<stop  offset="1" style="stop-color:#83A6FF"/>
			</linearGradient>
			<path class="st12" d="M-558.2,6.7c0.2-0.3,0.2-0.6,0.2-1c0-0.6-0.2-1-0.6-1.3c-0.4-0.3-0.9-0.5-1.6-0.5h-2.3v5.9h1.4V7.7h0.8
				l1,2.1h1.5V9.7l-1.2-2.4C-558.6,7.2-558.4,7-558.2,6.7z M-559.6,6.4c-0.1,0.1-0.3,0.2-0.6,0.2h-0.9V5h0.9c0.3,0,0.5,0.1,0.6,0.2
				c0.1,0.1,0.2,0.3,0.2,0.6C-559.3,6.1-559.4,6.3-559.6,6.4z M-555.2,5.3c-0.4,0-0.8,0.1-1.1,0.3c-0.3,0.2-0.6,0.5-0.7,0.8
				c-0.2,0.3-0.2,0.7-0.2,1.2v0.1c0,0.6,0.2,1.2,0.6,1.6c0.4,0.4,1,0.6,1.6,0.6c0.4,0,0.7-0.1,1-0.2c0.3-0.1,0.6-0.3,0.7-0.6
				l-0.6-0.7c-0.2,0.3-0.6,0.4-1,0.4c-0.3,0-0.5-0.1-0.6-0.2c-0.2-0.1-0.3-0.3-0.3-0.6h2.7V7.5c0-0.7-0.2-1.2-0.5-1.6
				C-554.1,5.5-554.6,5.3-555.2,5.3z M-554.5,7.2h-1.4c0.1-0.5,0.3-0.8,0.7-0.8c0.2,0,0.4,0.1,0.5,0.2c0.1,0.1,0.2,0.3,0.2,0.5V7.2z
				 M-550.4,8.6c-0.1,0.1-0.3,0.2-0.4,0.2c-0.2,0-0.4-0.1-0.5-0.3c-0.1-0.2-0.2-0.5-0.2-0.9c0-0.3,0-0.4,0-0.6
				c0.1-0.4,0.3-0.7,0.6-0.7c0.2,0,0.3,0.1,0.4,0.2c0.1,0.1,0.2,0.3,0.2,0.5h1.3c0-0.5-0.2-1-0.5-1.3c-0.3-0.3-0.8-0.5-1.3-0.5
				c-0.4,0-0.8,0.1-1.1,0.3c-0.3,0.2-0.5,0.4-0.7,0.8c-0.2,0.3-0.2,0.7-0.2,1.2v0.1c0,0.7,0.2,1.3,0.5,1.6c0.4,0.4,0.9,0.6,1.5,0.6
				c0.5,0,1-0.2,1.3-0.5c0.3-0.3,0.5-0.7,0.5-1.2h-1.3C-550.2,8.4-550.3,8.5-550.4,8.6z"/>
		</g>
	</g>
	<polyline class="st13" points="-575.6,15.4 -575.6,-1.6 -557.4,-1.6 	"/>
	<polyline class="st13" points="-416.9,15.4 -416.9,-1.6 -435,-1.6 	"/>
	<polyline class="st13" points="-575.6,71.8 -575.6,88.8 -557.4,88.8 	"/>
	<polyline class="st13" points="-416.9,71.8 -416.9,88.8 -435,88.8 	"/>
	<linearGradient id="SVGID_5_" gradientUnits="userSpaceOnUse" x1="-571.646" y1="6.8951" x2="-564.4855" y2="6.8951">
		<stop  offset="0" style="stop-color:#5C79FF"/>
		<stop  offset="0.3174" style="stop-color:#6583FF"/>
		<stop  offset="0.8548" style="stop-color:#7C9EFF"/>
		<stop  offset="1" style="stop-color:#83A6FF"/>
	</linearGradient>
	<circle class="st14" cx="-568.1" cy="6.9" r="3.6"/>
	<g>
		<linearGradient id="SVGID_6_" gradientUnits="userSpaceOnUse" x1="-448.6109" y1="100.5089" x2="-375.2734" y2="100.5089">
			<stop  offset="0" style="stop-color:#5C79FF"/>
			<stop  offset="0.3174" style="stop-color:#6583FF"/>
			<stop  offset="0.8548" style="stop-color:#7C9EFF"/>
			<stop  offset="1" style="stop-color:#83A6FF"/>
		</linearGradient>
		<circle class="st15" cx="-411.9" cy="100.5" r="36.7"/>
		<g>
			<g>
				<linearGradient id="SVGID_7_" gradientUnits="userSpaceOnUse" x1="-434.6962" y1="100.5089" x2="-386.3193" y2="100.5089">
					<stop  offset="0" style="stop-color:#FFFFFF"/>
					<stop  offset="0.1829" style="stop-color:#F5F8FF"/>
					<stop  offset="0.4935" style="stop-color:#DAE5FE"/>
					<stop  offset="0.8917" style="stop-color:#AFC7FC"/>
					<stop  offset="1" style="stop-color:#A2BEFC"/>
				</linearGradient>
				<path class="st16" d="M-401,94.4c0-1.3,0-2.6,0-3.9c0-3.5-2.5-5.9-5.9-6c-7.3,0-14.6,0-21.8,0c-0.9,0-1.8,0.2-2.5,0.5
					c-2.3,1.1-3.4,3-3.4,5.5c0,4.3,0,8.7,0,13c0,2.3,0,4.6,0,6.9c0,3.5,2.5,5.9,6,5.9c7.2,0,14.5,0,21.7,0c0.4,0,0.7,0,1.1-0.1
					c2.9-0.5,4.8-2.8,4.9-5.7c0-1.4,0-2.8,0-4.1C-401,104.2-401,96.6-401,94.4z M-394,90.8l-5.6,4.4l0.1,10.8l5.5,4.3
					c3.1,2.4,7.7,0.2,7.7-3.7v-12C-386.3,90.6-390.9,88.3-394,90.8z"/>
			</g>
		</g>
	</g>
	<path class="st10" d="M-578.5,152.4h-36c-3.8,0-6.9-3.1-6.9-6.9V61.1c0-3.8,3.1-6.9,6.9-6.9h36c3.8,0,6.9,3.1,6.9,6.9v84.4
		C-571.6,149.3-574.7,152.4-578.5,152.4z"/>
	<path class="st4" d="M-618.3,145.4V61.3c0-2.2,1.8-3.9,3.9-3.9h35.7c2.2,0,3.9,1.8,3.9,3.9v84.1c0,2.2-1.8,3.9-3.9,3.9h-35.7
		C-616.5,149.3-618.3,147.5-618.3,145.4z"/>
	<path class="st10" d="M-587.5,61.4h-17.2c-2.1,0-3.9-1.7-3.9-3.9v-0.3c0-0.7,0.6-1.3,1.3-1.3h22.3c0.7,0,1.3,0.6,1.3,1.3v0.3
		C-583.7,59.6-585.4,61.4-587.5,61.4z"/>
	<polyline class="st13" points="-606.7,63.8 -614.7,63.8 -614.7,71.7 	"/>
	<polyline class="st13" points="-606.7,145.1 -614.7,145.1 -614.7,137.3 	"/>
	<polyline class="st13" points="-586.4,63.8 -578.4,63.8 -578.4,71.7 	"/>
	<polyline class="st13" points="-586.4,145.1 -578.4,145.1 -578.4,137.3 	"/>
	<g>
		<g>
			<linearGradient id="SVGID_8_" gradientUnits="userSpaceOnUse" x1="-612.7887" y1="103.3101" x2="-578.3959" y2="103.3101">
				<stop  offset="0" style="stop-color:#5C79FF"/>
				<stop  offset="0.3174" style="stop-color:#6583FF"/>
				<stop  offset="0.8548" style="stop-color:#7C9EFF"/>
				<stop  offset="1" style="stop-color:#83A6FF"/>
			</linearGradient>
			<path class="st17" d="M-593.1,92c-5.2,0-10.3,0-15.5,0c-0.6,0-1.3,0.1-1.8,0.4c-1.6,0.8-2.4,2.1-2.4,3.9c0,3.1,0,6.2,0,9.2
				c0,1.6,0,3.3,0,4.9c0,2.3,1.9,4.2,4.3,4.2c5.2,0,10.4,0,15.6,0c0.2,0,0.4,0,0.7,0c2-0.3,3.4-2,3.5-4.1c0-1,0-2,0-2.9
				c0-1.7,0-7.1,0-8.6c0-0.9,0-1.8,0-2.8C-588.9,93.8-590.6,92-593.1,92z M-583.6,96.2l-4.2,3.3l0,7.7l4.2,3.3
				c2.1,1.6,5.2,0.1,5.2-2.5v-9.2C-578.4,96-581.5,94.5-583.6,96.2z"/>
		</g>
	</g>
	<text transform="matrix(1 0 0 1 -606.6585 104.9636)" class="st4" style="font-family:'IRANSansWeb-Black'; font-size:6.2719px;">Rec</text>
	<g>
		<g>
			<linearGradient id="SVGID_9_" gradientUnits="userSpaceOnUse" x1="-606.4528" y1="68.9776" x2="-598.7237" y2="68.9776">
				<stop  offset="0" style="stop-color:#5C79FF"/>
				<stop  offset="0.3174" style="stop-color:#6583FF"/>
				<stop  offset="0.8548" style="stop-color:#7C9EFF"/>
				<stop  offset="1" style="stop-color:#83A6FF"/>
			</linearGradient>
			<path class="st18" d="M-604,68.9c0.1-0.2,0.1-0.3,0.1-0.6c0-0.3-0.1-0.6-0.3-0.7c-0.2-0.2-0.5-0.3-0.9-0.3h-1.3v3.4h0.8v-1.2h0.4
				l0.6,1.2h0.9v0l-0.7-1.4C-604.2,69.1-604.1,69-604,68.9z M-604.8,68.7c-0.1,0.1-0.2,0.1-0.3,0.1h-0.5v-0.9h0.5
				c0.2,0,0.3,0,0.3,0.1c0.1,0.1,0.1,0.2,0.1,0.3C-604.7,68.5-604.7,68.6-604.8,68.7z M-599.5,70c-0.1,0.1-0.1,0.1-0.3,0.1
				c-0.1,0-0.2,0-0.3-0.1c-0.1-0.1-0.1-0.3-0.1-0.5c0-0.1,0-0.3,0-0.3c0-0.3,0.2-0.4,0.4-0.4c0.1,0,0.2,0,0.3,0.1
				c0.1,0.1,0.1,0.2,0.1,0.3h0.7c0-0.3-0.1-0.6-0.3-0.7c-0.2-0.2-0.4-0.3-0.8-0.3c-0.2,0-0.4,0.1-0.6,0.2c-0.2,0.1-0.3,0.3-0.4,0.4
				c-0.1,0.2-0.1,0.4-0.1,0.7v0c0,0.4,0.1,0.7,0.3,0.9c0.2,0.2,0.5,0.3,0.9,0.3c0.3,0,0.6-0.1,0.8-0.3c0.2-0.2,0.3-0.4,0.3-0.7h-0.7
				C-599.5,69.8-599.5,69.9-599.5,70z M-602.3,68.1c-0.2,0-0.5,0.1-0.6,0.2c-0.2,0.1-0.3,0.3-0.4,0.5c-0.1,0.2-0.1,0.4-0.1,0.7v0.1
				c0,0.4,0.1,0.7,0.4,0.9s0.5,0.3,0.9,0.3c0.2,0,0.4,0,0.6-0.1c0.2-0.1,0.3-0.2,0.4-0.3l-0.4-0.4c-0.1,0.2-0.3,0.3-0.6,0.3
				c-0.1,0-0.3,0-0.4-0.1c-0.1-0.1-0.2-0.2-0.2-0.3h1.5v-0.3c0-0.4-0.1-0.7-0.3-0.9C-601.7,68.2-601.9,68.1-602.3,68.1z
				 M-601.9,69.1h-0.8c0-0.3,0.2-0.5,0.4-0.5c0.1,0,0.2,0,0.3,0.1C-601.9,68.9-601.9,69-601.9,69.1L-601.9,69.1z"/>
		</g>
	</g>
	<linearGradient id="SVGID_10_" gradientUnits="userSpaceOnUse" x1="-611.7067" y1="68.9873" x2="-607.6095" y2="68.9873">
		<stop  offset="0" style="stop-color:#5C79FF"/>
		<stop  offset="0.3174" style="stop-color:#6583FF"/>
		<stop  offset="0.8548" style="stop-color:#7C9EFF"/>
		<stop  offset="1" style="stop-color:#83A6FF"/>
	</linearGradient>
	<circle class="st19" cx="-609.7" cy="69" r="2"/>
</g>
<g>
	
		<image style="overflow:visible;opacity:0.2;" width="1067" height="804" xlink:href="C9746B0D.png"  transform="matrix(0.24 0 0 0.24 -826.8148 310.9548)">
	</image>
	<g>
		<linearGradient id="SVGID_11_" gradientUnits="userSpaceOnUse" x1="-705.744" y1="469.7187" x2="-705.744" y2="331.1509">
			<stop  offset="0" style="stop-color:#EDF1F6"/>
			<stop  offset="0.7183" style="stop-color:#F7F9FB"/>
			<stop  offset="1" style="stop-color:#FCFDFE"/>
		</linearGradient>
		<path class="st20" d="M-613.1,469.7h-185.3c-4.6,0-8.2-3.7-8.2-8.2V339.4c0-4.6,3.7-8.2,8.2-8.2h185.3c4.6,0,8.2,3.7,8.2,8.2
			v122.1C-604.9,466-608.5,469.7-613.1,469.7z"/>
	</g>
</g>
<path class="st21" d="M-625.2,379.7h-36.3c-3.1,0-5.6-2.5-5.6-5.6v-18c0-3.1,2.5-5.6,5.6-5.6h36.3c3.1,0,5.6,2.5,5.6,5.6v18
	C-619.6,377.2-622.1,379.7-625.2,379.7z"/>
<path class="st21" d="M-761.7,431.9h-30.8c-2.3,0-4.1-1.8-4.1-4.1v-1.2c0-2.3,1.8-4.1,4.1-4.1h30.8c2.3,0,4.1,1.8,4.1,4.1v1.2
	C-757.6,430.1-759.5,431.9-761.7,431.9z"/>
<path class="st21" d="M-769.5,457.4h-23c-2.3,0-4.1-1.8-4.1-4.1v-1.2c0-2.3,1.8-4.1,4.1-4.1h23c2.3,0,4.1,1.8,4.1,4.1v1.2
	C-765.4,455.6-767.3,457.4-769.5,457.4z"/>
<path class="st21" d="M-714.1,431.9H-745c-2.3,0-4.1-1.8-4.1-4.1v-1.2c0-2.3,1.8-4.1,4.1-4.1h30.8c2.3,0,4.1,1.8,4.1,4.1v1.2
	C-710,430.1-711.9,431.9-714.1,431.9z"/>
<path class="st21" d="M-731.4,457.4h-23c-2.3,0-4.1-1.8-4.1-4.1v-1.2c0-2.3,1.8-4.1,4.1-4.1h23c2.3,0,4.1,1.8,4.1,4.1v1.2
	C-727.3,455.6-729.2,457.4-731.4,457.4z"/>
<path class="st21" d="M-666.5,431.9h-30.8c-2.3,0-4.1-1.8-4.1-4.1v-1.2c0-2.3,1.8-4.1,4.1-4.1h30.8c2.3,0,4.1,1.8,4.1,4.1v1.2
	C-662.4,430.1-664.3,431.9-666.5,431.9z"/>
<path class="st21" d="M-618.9,431.9h-30.8c-2.3,0-4.1-1.8-4.1-4.1v-1.2c0-2.3,1.8-4.1,4.1-4.1h30.8c2.3,0,4.1,1.8,4.1,4.1v1.2
	C-614.8,430.1-616.7,431.9-618.9,431.9z"/>
<text transform="matrix(1 0 0 1 -796.6514 370.2991)" class="st21" style="font-family:'IRANYekan-ExtraBold'; font-size:13.7363px;">BANK</text>
<linearGradient id="SVGID_12_" gradientUnits="userSpaceOnUse" x1="-645.2217" y1="477.6846" x2="-560.0226" y2="477.6846">
	<stop  offset="0" style="stop-color:#5C79FF"/>
	<stop  offset="0.3174" style="stop-color:#6583FF"/>
	<stop  offset="0.8548" style="stop-color:#7C9EFF"/>
	<stop  offset="1" style="stop-color:#83A6FF"/>
</linearGradient>
<circle class="st22" cx="-602.6" cy="477.7" r="42.6"/>
<linearGradient id="SVGID_13_" gradientUnits="userSpaceOnUse" x1="-623.1679" y1="477.6846" x2="-582.0764" y2="477.6846">
	<stop  offset="0" style="stop-color:#FFFFFF"/>
	<stop  offset="0.3038" style="stop-color:#F5F8FF"/>
	<stop  offset="0.8132" style="stop-color:#DBE4FF"/>
	<stop  offset="1" style="stop-color:#D0DBFF"/>
</linearGradient>
<path class="st23" d="M-588.2,471.6h-8.4v-8.4c0-3.4-2.7-6.1-6.1-6.1h0c-3.4,0-6.1,2.7-6.1,6.1v8.4h-8.4c-3.4,0-6.1,2.7-6.1,6.1v0
	c0,3.4,2.7,6.1,6.1,6.1h8.4v8.4c0,3.4,2.7,6.1,6.1,6.1h0c3.4,0,6.1-2.7,6.1-6.1v-8.4h8.4c3.4,0,6.1-2.7,6.1-6.1v0
	C-582.1,474.3-584.8,471.6-588.2,471.6z"/>
<linearGradient id="SVGID_14_" gradientUnits="userSpaceOnUse" x1="-1205.2714" y1="647.7778" x2="-1044.0707" y2="647.7778">
	<stop  offset="0" style="stop-color:#5C79FF"/>
	<stop  offset="0.3174" style="stop-color:#6583FF"/>
	<stop  offset="0.8548" style="stop-color:#7C9EFF"/>
	<stop  offset="1" style="stop-color:#83A6FF"/>
</linearGradient>
<path class="st24" d="M-1075.8,711.3l-125.5-39.7c-3-1-4.7-4.2-3.8-7.3l24.2-76.3c1-3,4.2-4.7,7.3-3.8l125.5,39.7
	c3,1,4.7,4.2,3.8,7.3l-24.2,76.3C-1069.5,710.6-1072.7,712.3-1075.8,711.3z"/>
<g>
	
		<text transform="matrix(0.9534 0.3018 -0.3018 0.9534 -1178.3617 603.4962)" class="st4" style="font-family:'IRANYekan-ExtraBold'; font-size:12.9782px;">BANK</text>
</g>
<path class="st4" d="M-1062.4,645.5l-14.9-4.7c-2.2-0.7-3.4-3-2.7-5.2l2.6-8.2c0.7-2.2,3-3.4,5.2-2.7l14.9,4.7
	c2.2,0.7,3.4,3,2.7,5.2l-2.6,8.2C-1057.8,645-1060.2,646.2-1062.4,645.5z"/>
<g>
	<path class="st4" d="M-1171.8,660.4l-17-5.4c-1.3-0.4-2.1-1.9-1.7-3.2l0.1-0.4c0.4-1.3,1.9-2.1,3.2-1.7l17,5.4
		c1.3,0.4,2.1,1.9,1.7,3.2l-0.1,0.4C-1169,660.1-1170.4,660.9-1171.8,660.4z"/>
	<path class="st4" d="M-1145.1,668.9l-17-5.4c-1.3-0.4-2.1-1.9-1.7-3.2l0.1-0.4c0.4-1.3,1.9-2.1,3.2-1.7l17,5.4
		c1.3,0.4,2.1,1.9,1.7,3.2l-0.1,0.4C-1142.3,668.5-1143.7,669.3-1145.1,668.9z"/>
	<path class="st4" d="M-1118.4,677.3l-17-5.4c-1.3-0.4-2.1-1.9-1.7-3.2l0.1-0.4c0.4-1.3,1.9-2.1,3.2-1.7l17,5.4
		c1.3,0.4,2.1,1.9,1.7,3.2l-0.1,0.4C-1115.6,677-1117.1,677.7-1118.4,677.3z"/>
	<path class="st4" d="M-1091.8,685.8l-17-5.4c-1.3-0.4-2.1-1.9-1.7-3.2l0.1-0.4c0.4-1.3,1.9-2.1,3.2-1.7l17,5.4
		c1.3,0.4,2.1,1.9,1.7,3.2l-0.1,0.4C-1089,685.4-1090.4,686.2-1091.8,685.8z"/>
</g>
<g>
	<g>
		<g>
			<path class="st4" d="M-986.2,760.5l-17.9,18.5c-4.4,4.6-11.5,5.3-16.8,1.8l-24.1-16.2c0,0-22.3-20.8-22.3-35.6l-33.7-33.7
				c-4.8-4.8-4.8-12.5,0-17.3l0,0c4.8-4.8,12.5-4.8,17.3,0l30.9,30.9v-15.1l-9.3-5.6l7.3-24.2l44.9,10.6c5.5,1.1,9.7,5.6,10.5,11.2
				c2,15.4,6.8,45.5,14.9,58.9C-981.3,749.7-982.1,756.2-986.2,760.5z"/>
			<path class="st25" d="M-986.2,760.5l-17.9,18.5c-4.4,4.6-11.5,5.3-16.8,1.8l-24.1-16.2c0,0-22.3-20.8-22.3-35.6l-33.7-33.7
				c-4.8-4.8-4.8-12.5,0-17.3l0,0c4.8-4.8,12.5-4.8,17.3,0l30.9,30.9v-15.1l-9.3-5.6l7.3-24.2l44.9,10.6c5.5,1.1,9.7,5.6,10.5,11.2
				c2,15.4,6.8,45.5,14.9,58.9C-981.3,749.7-982.1,756.2-986.2,760.5z"/>
		</g>
		<g>
			<path class="st4" d="M-1067.3,728.9v14.8c0,0-0.2,7.3-9.9,5c-9.7-2.2-9.9-27.2-9.9-27.2s-14.5,18.8-13-17.8l11,3.5L-1067.3,728.9
				z"/>
			<path class="st25" d="M-1067.3,728.9v14.8c0,0-0.2,7.3-9.9,5c-9.7-2.2-9.9-27.2-9.9-27.2s-14.5,18.8-13-17.8l11,3.5
				L-1067.3,728.9z"/>
		</g>
	</g>
</g>
<g>
	<g>
		<rect x="33.2" y="58.8" class="st4" width="34.5" height="29"/>
		<linearGradient id="SVGID_15_" gradientUnits="userSpaceOnUse" x1="50.4979" y1="75.7694" x2="50.4979" y2="58.8412">
			<stop  offset="0" style="stop-color:#1D1D1B;stop-opacity:0"/>
			<stop  offset="0.3853" style="stop-color:#161614;stop-opacity:0.1926"/>
			<stop  offset="0.9527" style="stop-color:#020202;stop-opacity:0.4763"/>
			<stop  offset="1" style="stop-color:#000000;stop-opacity:0.5"/>
		</linearGradient>
		<rect x="33.2" y="58.8" class="st26" width="34.5" height="16.9"/>
		<path class="st4" d="M76.2,37.9l-2-21.4H51.8h-0.2H29.2l-2,21.4c-1.2,0.6-1.9,1.9-1.7,3.2l1.1,8.9c0.2,1.5,1.4,2.6,2.9,2.6H31
			l0.3,1.6c0.4,2.2,1.6,4.2,3.3,5.7l13.6,11c1.9,1.5,4.6,1.5,6.6,0l13.9-11c1.8-1.4,3-3.4,3.3-5.7l0.3-1.6h1.5
			c1.5,0,2.7-1.1,2.9-2.6l1.1-8.9C78.1,39.8,77.4,38.5,76.2,37.9z"/>
		<path class="st27" d="M26.9,36.6c0,0,11.1-2,8.1-15.1l4,2.8h20.4c7.8,0,14.6,5.1,16.8,12.6l0,0c0,0,9.1-19.7-8.8-25.4
			c0,0-3.8-12.8-20.2-9.3c0,0-13.4,0.8-19.3-1.5l2.5,7C30.4,7.7,16.5,13.4,26.9,36.6z"/>
		<linearGradient id="SVGID_16_" gradientUnits="userSpaceOnUse" x1="81.0071" y1="86.2145" x2="5.1132" y2="100.8095">
			<stop  offset="0" style="stop-color:#9AE1DB"/>
			<stop  offset="1" style="stop-color:#19BAB5"/>
		</linearGradient>
		<path class="st28" d="M92.1,89.5L67.3,78.3c0,0-5.1,8.7-17.3,8.8c-12.2-0.1-17.3-8.8-17.3-8.8L7.9,89.5C3.7,91.3,1,95.5,1,100v0
			h48.8h0.3H99v0C99,95.5,96.3,91.3,92.1,89.5z"/>
	</g>
</g>
</svg>
