<svg width="64" height="64" viewBox="0 0 64 64" fill="none" xmlns="http://www.w3.org/2000/svg">
<path d="M57.6673 23.8322V14.8914C57.6673 12.0571 55.313 9.77599 52.4477 9.83409L9.87104 10.693C7.90582 10.7326 6.33398 12.319 6.33398 14.2632V23.833H57.6673V23.8322Z" fill="#50C4C4"/>
<path d="M51.6871 18.0112L20.2953 30.3905C19.5976 30.6659 18.8091 30.382 18.5343 29.7568L12.4886 15.991C12.2138 15.3658 12.557 14.6357 13.2548 14.3604L44.6466 1.981C45.3443 1.70564 46.1328 1.98949 46.4076 2.61468L52.4533 16.3805C52.7281 17.0057 52.3849 17.7358 51.6871 18.0112Z" fill="url(#paint0_linear_1238_86224)"/>
<path d="M43.8995 7.72531L38.7488 9.61264C38.0779 9.85841 37.3347 9.51387 37.0888 8.84292C36.8431 8.172 37.1876 7.42884 37.8585 7.18296L43.0094 5.29575C43.6803 5.04998 44.4235 5.39452 44.6693 6.06547C44.9151 6.7363 44.5706 7.47955 43.8995 7.72531Z" fill="#00BABA"/>
<path d="M6.33398 18H46.4412C52.6413 18 57.6673 19.7626 57.6673 21.9369V51.3964C57.6673 53.5707 52.6413 55.3333 46.4412 55.3333H6.33398V18Z" fill="#50C4C4"/>
<path d="M46.2986 24.5L11.6673 20.8409C9.40819 20.8409 7.31191 19.7679 6.35559 18.04C6.34811 18.0266 6.34063 18.0133 6.33398 18V20.8409V54.2096C6.33398 56.2454 8.28984 57.8962 10.7018 57.8962L46.2994 61.5553C48.7115 61.5553 50.6673 59.9045 50.6673 57.8687V28.1859C50.6665 26.1501 48.7106 24.5 46.2986 24.5Z" fill="url(#paint1_linear_1238_86224)"/>
<path d="M7 24C7 24 7.22739 24.4833 8 25" stroke="#00BABA" stroke-linecap="round" stroke-linejoin="round" stroke-dasharray="4 4"/>
<path d="M11 25.5C13.5629 25.5613 34.6678 28.2404 42.8579 28.8106C44.6404 28.9345 46.0018 30.0378 46.0018 31.3572V53.7753C46.0018 55.2557 44.302 56.427 42.2977 56.3274L11 52.5" stroke="#00BABA" stroke-linecap="round" stroke-linejoin="round" stroke-dasharray="4 4"/>
<path d="M8 52C7.53188 51.7354 7.17536 51.407 7 51" stroke="#00BABA" stroke-linecap="round" stroke-linejoin="round" stroke-dasharray="4 4"/>
<path d="M39 45C40.6566 45 42 43.6566 42 42C42 40.3434 40.6566 39 39 39C37.3434 39 36 40.3434 36 42C36 43.6566 37.3434 45 39 45Z" fill="#00BABA"/>
<defs>
<linearGradient id="paint0_linear_1238_86224" x1="23.5" y1="33" x2="33" y2="9.5" gradientUnits="userSpaceOnUse">
<stop stop-color="#48D3D3"/>
<stop offset="1" stop-color="#C5F0F0"/>
</linearGradient>
<linearGradient id="paint1_linear_1238_86224" x1="6.33398" y1="39" x2="50.4456" y2="39" gradientUnits="userSpaceOnUse">
<stop stop-color="#7FE8E8"/>
<stop offset="1" stop-color="#BAEDED"/>
</linearGradient>
</defs>
</svg>
