<svg width="22" height="22" viewBox="0 0 22 22" fill="none" xmlns="http://www.w3.org/2000/svg">
<path d="M17.5503 3.25684C17.5503 3.25684 23.6726 9.12266 19.6052 17.8377" stroke="white" stroke-width="1.5" stroke-miterlimit="10" stroke-linecap="round"/>
<path d="M14.6786 1.5102C14.6786 1.5102 9.7901 0.00834153 6.55664 2.15814" stroke="white" stroke-width="1.5" stroke-miterlimit="10" stroke-linecap="round"/>
<path d="M4.09712 3.53516C4.09712 3.53516 1.19126 7.20398 1.26784 11.3491" stroke="white" stroke-width="1.5" stroke-miterlimit="10" stroke-linecap="round"/>
<path d="M8.28369 4.93467C8.28369 4.93467 15.844 2.69047 17.7799 10.1354" stroke="white" stroke-width="1.5" stroke-miterlimit="10" stroke-linecap="round"/>
<path d="M17.3543 13.6924C17.3543 13.6924 17.0055 18.1078 15.0271 20.219" stroke="white" stroke-width="1.5" stroke-miterlimit="10" stroke-linecap="round"/>
<path d="M12.6662 17.5635C12.6662 17.5635 11.1176 20.4899 9.87524 21.0006" stroke="white" stroke-width="1.5" stroke-miterlimit="10" stroke-linecap="round"/>
<path d="M11.1342 10.8818C11.1342 10.8818 11.1129 16.782 6.73071 19.4767" stroke="white" stroke-width="1.5" stroke-miterlimit="10" stroke-linecap="round"/>
<path d="M5.59492 7.37988C5.59492 7.37988 4.51001 10.3278 4.48873 12.0442C4.46321 14.2455 1 14.2455 1 14.2455" stroke="white" stroke-width="1.5" stroke-miterlimit="10" stroke-linecap="round"/>
<path d="M13.8657 14.6708C13.8657 14.6708 15.4612 8.25145 11.2534 7.76657C8.53905 7.45332 7.81577 10.1095 7.64559 12.0361C7.47541 13.9456 6.46283 15.6878 4.86737 16.7262C4.69294 16.8421 4.50999 16.9451 4.3313 17.0309" stroke="white" stroke-width="1.5" stroke-miterlimit="10" stroke-linecap="round"/>
</svg>
