<svg width="22" height="22" viewBox="0 0 22 22" fill="none" xmlns="http://www.w3.org/2000/svg">
<path d="M20.2449 14.9733C21.2517 15.9843 21.2517 17.6181 20.2449 18.6291L19.4856 19.5036C12.6474 26.0474 -3.98942 9.41924 2.4563 2.5598L3.41611 1.72369C4.42712 0.746821 6.03535 0.759619 7.0293 1.75782C7.05489 1.78342 8.59914 3.79262 8.59914 3.79262C9.55042 4.79509 9.54616 6.36491 8.59487 7.36738L7.62652 8.58314C8.70578 11.2066 10.7875 13.2926 13.411 14.3804L14.6353 13.4078C15.6335 12.4522 17.2076 12.4522 18.2101 13.4035C18.2101 13.4035 20.2193 14.952 20.2449 14.9733Z" stroke="white" stroke-width="1.5" stroke-miterlimit="10"/>
</svg>
