<svg width="14" height="9" viewBox="0 0 14 9" fill="none" xmlns="http://www.w3.org/2000/svg">
<path d="M13.9 2.2002C13.1 3.1002 11.6 4.0002 10 4.0002C8.5 4.0002 7.6 3.5002 6.8 3.1002C6 2.8002 5.2 2.3002 3.9 2.3002C2.7 2.3002 1.6 3.0002 1 3.6002L0 2.1002C0.9 1.2002 2.3 0.200195 3.9 0.200195C5.4 0.200195 6.3 0.800196 7.1 1.1002C7.9 1.4002 8.7 2.0002 10 2.0002C11.2 2.0002 12.3 1.2002 12.9 0.600195L13.9 2.2002ZM14 7.1002C13.1 8.0002 11.7 9.0002 10.1 9.0002C8.6 9.0002 7.7 8.5002 6.9 8.1002C6.1 7.8002 5.3 7.2002 4 7.2002C2.8 7.2002 1.7 8.0002 1.1 8.6002L0.0999999 7.0002C1 6.1002 2.4 5.1002 4 5.1002C5.5 5.1002 6.4 5.6002 7.2 6.0002C8 6.3002 8.8 6.8002 10.1 6.8002C11.3 6.8002 12.4 6.0002 13 5.4002L14 7.1002Z" fill="#AFB7CB"/>
</svg>
