<svg width="32" height="32" viewBox="0 0 32 32" fill="none" xmlns="http://www.w3.org/2000/svg">
<path d="M20 22.9868H24.75C28.1875 22.9868 31 21.1612 31 17.7618C31 14.3624 27.6875 12.6699 25 12.5368C24.4444 7.22057 20.5625 3.98682 16 3.98682C11.6875 3.98682 8.91 6.84869 8 9.68682C4.25 10.0431 1 12.4293 1 16.3368C1 20.2443 4.375 22.9868 8.5 22.9868H12" stroke="#959DB0" stroke-width="2" stroke-linecap="round" stroke-linejoin="round"/>
<path d="M13.0667 26.8262L16 30.0132L18.9333 26.8262H13.0667ZM16 14.8V26.8262V14.8Z" fill="#959DB0"/>
<path d="M16 14.8V26.8262M13.0667 26.8262L16 30.0132L18.9333 26.8262H13.0667Z" stroke="#959DB0" stroke-width="2" stroke-linecap="round" stroke-linejoin="round"/>
</svg>
