<svg width="16" height="16" viewBox="0 0 16 16" fill="none" xmlns="http://www.w3.org/2000/svg">
<path d="M14.3747 11.1817H14.0236C10.3086 11.1817 6.59339 11.1817 2.87789 11.1817C2.46443 11.1817 2.05098 11.2321 1.61033 11.2617V11.1137C1.61033 8.25498 1.61033 5.39598 1.61033 2.53671C1.59071 2.40859 1.60169 2.27766 1.64237 2.15459C1.68305 2.03153 1.75228 1.91984 1.8444 1.82866C1.93651 1.73748 2.0489 1.66939 2.17238 1.62997C2.29585 1.59055 2.42689 1.58092 2.5548 1.60185H6.26391C6.39039 1.58142 6.5199 1.59114 6.64192 1.6302C6.76393 1.66927 6.87501 1.73658 6.96611 1.82667C7.05721 1.91675 7.12576 2.02707 7.16619 2.14864C7.20662 2.27021 7.21778 2.39961 7.19878 2.52631C7.19878 3.62513 7.19878 4.72368 7.19878 5.82196C7.19878 5.88194 7.19318 5.94112 7.18758 6.04908C6.8421 5.7012 6.52621 5.38451 6.21192 5.06703C6.13841 4.99131 6.0507 4.93081 5.9538 4.88899C5.85691 4.84716 5.75273 4.82484 5.6472 4.82328C5.54168 4.82172 5.43688 4.84095 5.33879 4.8799C5.2407 4.91884 5.15124 4.97672 5.07552 5.05023C4.9998 5.12375 4.9393 5.21145 4.89748 5.30835C4.85565 5.40524 4.83332 5.50943 4.83177 5.61495C4.83021 5.72048 4.84945 5.82528 4.88839 5.92337C4.92733 6.02146 4.98522 6.11091 5.05873 6.18663C5.50337 6.64247 5.95841 7.08872 6.40865 7.53896C6.73574 7.86525 7.06122 8.19313 7.38911 8.51861C7.46501 8.60686 7.55908 8.67769 7.66487 8.72624C7.77067 8.77479 7.8857 8.79992 8.0021 8.79992C8.1185 8.79992 8.23353 8.77479 8.33932 8.72624C8.44512 8.67769 8.53918 8.60686 8.61508 8.51861C9.38441 7.75195 10.1521 6.98369 10.9183 6.21383C11.0007 6.14074 11.0673 6.0515 11.1138 5.95164C11.1603 5.85178 11.1859 5.74343 11.1888 5.63329C11.1917 5.52316 11.172 5.4136 11.1309 5.3114C11.0897 5.2092 11.028 5.11653 10.9496 5.03915C10.8712 4.96178 10.7777 4.90133 10.675 4.86156C10.5722 4.82179 10.4624 4.80355 10.3523 4.80796C10.2423 4.81237 10.1342 4.83934 10.035 4.88721C9.93579 4.93507 9.84746 5.00281 9.77548 5.08622C9.50038 5.35893 9.22767 5.63322 8.95337 5.90593C8.91578 5.94352 8.87339 5.97791 8.80462 6.04109V5.82356C8.80462 4.70395 8.80462 3.57635 8.80462 2.45274C8.81684 1.87953 8.62337 1.32088 8.25926 0.87799C7.89515 0.435101 7.38447 0.137259 6.81971 0.0383916C6.67855 0.0129869 6.53528 0.00119849 6.39186 0.00319888C5.08032 0.00319888 3.76958 -0.0039986 2.45804 0.00319888C1.88412 -0.0144735 1.32338 0.177276 0.880445 0.542658C0.437513 0.908041 0.142653 1.4221 0.0508835 1.9889C0.00451374 2.34142 -0.0102068 2.69739 0.00689865 3.05253C0.00423291 6.54198 0.00423291 10.0314 0.00689865 13.5209C-0.0119047 14.098 0.179325 14.6623 0.545095 15.1091C0.910866 15.5559 1.42633 15.8549 1.9958 15.9504C2.16796 15.9801 2.34256 15.9932 2.51722 15.9896C6.70055 15.9896 10.8839 15.984 15.0672 15.9936C15.193 16.0094 15.3207 15.9959 15.4404 15.9543C15.5602 15.9127 15.6687 15.8441 15.7576 15.7537C15.8465 15.6634 15.9133 15.5537 15.9529 15.4333C15.9926 15.3129 16.0039 15.185 15.9861 15.0595C15.9618 14.8917 15.8832 14.7366 15.7623 14.6177C15.6414 14.4988 15.4849 14.4228 15.3167 14.4014C15.0688 14.3782 14.8177 14.3822 14.5682 14.3822C10.5696 14.3822 6.57339 14.3822 2.57959 14.3822C2.43654 14.3875 2.29348 14.3718 2.15494 14.3358C1.97143 14.2779 1.81603 14.1538 1.71904 13.9877C1.62205 13.8215 1.59042 13.6251 1.63033 13.4369C1.66653 13.2515 1.76718 13.085 1.91443 12.9667C2.06168 12.8484 2.24603 12.7861 2.43484 12.7907C3.54006 12.7907 4.64527 12.7907 5.75049 12.7907C8.89605 12.7907 12.0429 12.7907 15.1912 12.7907C15.3931 12.7963 15.5893 12.7233 15.7385 12.5871C15.8876 12.4509 15.9781 12.2622 15.9909 12.0606C15.9981 11.9862 15.9989 11.911 15.9989 11.8359C15.9989 8.21046 15.9989 4.58372 15.9989 0.955661C16.003 0.824854 15.9893 0.694101 15.9581 0.567003C15.9094 0.397131 15.8041 0.249009 15.6597 0.147191C15.5152 0.0453743 15.3403 -0.00401859 15.164 0.00720138C13.853 0.00240306 12.5417 0.00240306 11.2302 0.00720138C11.0399 0.00238977 10.8542 0.0655583 10.7064 0.185374C10.5586 0.305189 10.4583 0.473802 10.4236 0.660903C10.3889 0.848004 10.4221 1.04134 10.5172 1.20618C10.6122 1.37103 10.763 1.49657 10.9423 1.56026C11.0618 1.59432 11.1858 1.61022 11.3101 1.60743C12.253 1.60743 13.1959 1.60743 14.1387 1.60743H14.3787L14.3747 11.1817Z" fill="#00BABA"/>
</svg>
