<?xml version="1.0" encoding="utf-8"?>
<!-- Generator: Adobe Illustrator 25.3.1, SVG Export Plug-In . SVG Version: 6.00 Build 0)  -->
<svg version="1.1" id="Layer_1" xmlns="http://www.w3.org/2000/svg" xmlns:xlink="http://www.w3.org/1999/xlink" x="0px" y="0px"
	 viewBox="0 0 264.727 178.364" enable-background="new 0 0 264.727 178.364" xml:space="preserve">
<g>
	<path opacity="0.2" fill="#EA3F3F" d="M27.171,92.752c0.176-4.26-0.673-8.496-2.528-12.335
		C17.82,66.293,3.886,29.399,33.891,11.479c32.397-19.348,64.019,5.154,72.106,12.262c1,0.879,1.91,1.83,2.761,2.854
		c3.236,3.896,16.915,16.964,47.742,5.754c37.589-13.669,44.167,31.742,45.233,52.644c0.642,12.599,10.513,22.87,23.087,23.887
		c3.35,0.271,7.165,0.196,11.506-0.357c11.478-1.461,18.115,3.089,21.946,9.074c10.145,15.848-0.882,36.785-19.632,38.374
		c-3.95,0.335-8.516,0.228-13.793-0.492c-34.435-4.696-137.217,2.087-137.217,2.087S24.291,162.476,27.171,92.752z"/>
	<path opacity="0.2" fill="#EA3F3F" d="M218.416,98.72c0,0-14.085-5.525-10.665-15.673c3.42-10.147,15.468-5.141,15.468-5.141
		s29.641,20.875,17.936,23.569C229.449,104.169,218.416,98.72,218.416,98.72z"/>
	<path opacity="0.2" fill="#EA3F3F" d="M10.413,71.479c0,0,18.261,14.609,11.478,30.783S-9.935,67.827,10.413,71.479z"/>
	<g opacity="0.3">
		<path fill="#7C2929" d="M55.834,39.654c0,0.304,0.001,0.58,0,0.857c-0.002,0.704-0.417,1.173-1.033,1.168
			c-0.602-0.005-1.013-0.471-1.015-1.153c-0.001-0.286,0-0.572,0-0.894c-0.693,0-1.362,0.008-2.03-0.002
			c-0.752-0.012-1.247-0.73-0.966-1.402c0.172-0.412,0.497-0.63,0.947-0.641c0.329-0.008,0.658-0.002,1.006-0.002
			c0-3.418,0-6.813,0-10.24c-0.327,0-0.644,0.004-0.961-0.001c-0.618-0.009-1.074-0.456-1.066-1.037
			c0.007-0.571,0.455-1.002,1.061-1.008c0.659-0.006,1.317-0.001,2.01-0.001c0-0.344-0.004-0.661,0.001-0.977
			c0.009-0.622,0.448-1.075,1.032-1.07c0.569,0.005,1.003,0.455,1.014,1.057c0.006,0.318,0.001,0.636,0.001,0.971
			c0.683,0,1.34,0,2.049,0c0-0.295-0.001-0.599,0-0.903c0.004-0.659,0.415-1.118,1.009-1.126c0.605-0.008,1.035,0.458,1.039,1.129
			c0.002,0.363-0.11,0.779,0.033,1.072c0.133,0.274,0.537,0.414,0.818,0.618c2.047,1.484,2.294,4.381,0.528,6.195
			c-0.058,0.06-0.115,0.121-0.188,0.198c0.064,0.069,0.119,0.131,0.177,0.19c1.964,2.01,1.43,5.271-1.081,6.538
			c-0.224,0.113-0.31,0.232-0.293,0.48c0.023,0.329,0.013,0.661,0.003,0.991c-0.017,0.577-0.463,1.017-1.02,1.018
			c-0.556,0.001-1.007-0.441-1.023-1.015c-0.009-0.329-0.002-0.659-0.002-1.01C57.199,39.654,56.534,39.654,55.834,39.654z
			 M54.836,27.354c0,1.385,0,2.731,0,4.086c1.134,0,2.242,0,3.35,0c0.107,0,0.213,0.002,0.32-0.004
			c1.049-0.054,1.906-0.929,1.935-1.975c0.03-1.074-0.76-2.042-1.829-2.093C57.359,27.308,56.102,27.354,54.836,27.354z
			 M54.823,37.562c0.057,0.01,0.088,0.02,0.118,0.02c1.151,0.001,2.301,0.009,3.452-0.001c1.152-0.01,2.053-0.923,2.048-2.056
			c-0.005-1.131-0.909-2.028-2.069-2.035c-1.097-0.008-2.195-0.002-3.292-0.001c-0.082,0-0.164,0.009-0.257,0.014
			C54.823,34.863,54.823,36.201,54.823,37.562z"/>
	</g>
	<g opacity="0.3">
		<path fill="#7C2929" d="M200.987,104.945c0,0.165,0,0.315,0,0.465c-0.001,0.382-0.227,0.637-0.561,0.634
			c-0.327-0.003-0.55-0.256-0.551-0.626c-0.001-0.155,0-0.31,0-0.486c-0.376,0-0.739,0.005-1.102-0.001
			c-0.408-0.006-0.677-0.396-0.525-0.761c0.093-0.224,0.27-0.342,0.514-0.348c0.178-0.004,0.357-0.001,0.546-0.001
			c0-1.856,0-3.7,0-5.561c-0.178,0-0.35,0.002-0.522,0c-0.335-0.005-0.583-0.247-0.579-0.563c0.004-0.31,0.247-0.544,0.576-0.547
			c0.358-0.003,0.715-0.001,1.092-0.001c0-0.187-0.002-0.359,0-0.531c0.005-0.338,0.243-0.584,0.561-0.581
			c0.309,0.003,0.545,0.247,0.551,0.574c0.003,0.173,0.001,0.345,0.001,0.527c0.371,0,0.728,0,1.112,0c0-0.16-0.001-0.325,0-0.49
			c0.002-0.358,0.226-0.607,0.548-0.611c0.329-0.004,0.562,0.249,0.564,0.613c0.001,0.197-0.06,0.423,0.018,0.582
			c0.072,0.149,0.292,0.225,0.444,0.336c1.112,0.806,1.246,2.379,0.287,3.364c-0.032,0.033-0.063,0.066-0.102,0.107
			c0.035,0.038,0.065,0.071,0.096,0.103c1.067,1.092,0.777,2.863-0.587,3.55c-0.122,0.061-0.169,0.126-0.159,0.261
			c0.013,0.179,0.007,0.359,0.002,0.538c-0.009,0.313-0.251,0.552-0.554,0.553c-0.302,0-0.547-0.239-0.556-0.551
			c-0.005-0.179-0.001-0.358-0.001-0.548C201.729,104.945,201.368,104.945,200.987,104.945z M200.445,98.265
			c0,0.752,0,1.483,0,2.219c0.616,0,1.217,0,1.819,0c0.058,0,0.116,0.001,0.174-0.002c0.57-0.029,1.035-0.505,1.051-1.073
			c0.016-0.583-0.413-1.109-0.993-1.137C201.815,98.24,201.133,98.265,200.445,98.265z M200.438,103.809
			c0.031,0.005,0.048,0.011,0.064,0.011c0.625,0.001,1.25,0.005,1.875,0c0.626-0.005,1.115-0.501,1.112-1.116
			c-0.003-0.614-0.494-1.101-1.123-1.105c-0.596-0.004-1.192-0.001-1.788-0.001c-0.045,0-0.089,0.005-0.14,0.008
			C200.438,102.343,200.438,103.07,200.438,103.809z"/>
	</g>
	<g opacity="0.3">
		<path fill="#7C2929" d="M79.607,150.004c0,0.14,0,0.267,0,0.395c-0.001,0.324-0.192,0.54-0.476,0.538
			c-0.277-0.002-0.467-0.217-0.468-0.531c0-0.132,0-0.263,0-0.412c-0.319,0-0.627,0.004-0.935-0.001
			c-0.346-0.005-0.574-0.336-0.445-0.646c0.079-0.19,0.229-0.29,0.436-0.296c0.151-0.004,0.303-0.001,0.463-0.001
			c0-1.575,0-3.139,0-4.717c-0.151,0-0.297,0.002-0.443,0c-0.284-0.004-0.495-0.21-0.491-0.478c0.003-0.263,0.21-0.462,0.489-0.464
			c0.303-0.003,0.607-0.001,0.926-0.001c0-0.158-0.002-0.304,0-0.45c0.004-0.287,0.206-0.495,0.476-0.493
			c0.262,0.002,0.462,0.21,0.467,0.487c0.003,0.146,0,0.293,0,0.447c0.314,0,0.617,0,0.944,0c0-0.136-0.001-0.276,0-0.416
			c0.002-0.304,0.191-0.515,0.465-0.519c0.279-0.004,0.477,0.211,0.479,0.52c0.001,0.167-0.05,0.359,0.015,0.494
			c0.061,0.126,0.247,0.191,0.377,0.285c0.943,0.684,1.057,2.018,0.243,2.854c-0.027,0.028-0.053,0.056-0.087,0.091
			c0.03,0.032,0.055,0.06,0.081,0.087c0.905,0.926,0.659,2.428-0.498,3.012c-0.103,0.052-0.143,0.107-0.135,0.221
			c0.011,0.152,0.006,0.305,0.002,0.457c-0.008,0.266-0.213,0.469-0.47,0.469c-0.256,0-0.464-0.203-0.471-0.468
			c-0.004-0.152-0.001-0.303-0.001-0.465C80.236,150.004,79.93,150.004,79.607,150.004z M79.147,144.338c0,0.638,0,1.258,0,1.882
			c0.522,0,1.033,0,1.543,0c0.049,0,0.098,0.001,0.147-0.002c0.483-0.025,0.878-0.428,0.891-0.91c0.014-0.495-0.35-0.94-0.843-0.964
			C80.31,144.316,79.731,144.338,79.147,144.338z M79.141,149.04c0.026,0.005,0.04,0.009,0.054,0.009c0.53,0,1.06,0.004,1.59,0
			c0.531-0.005,0.946-0.425,0.944-0.947c-0.002-0.521-0.419-0.934-0.953-0.938c-0.506-0.003-1.011-0.001-1.517-0.001
			c-0.038,0-0.075,0.004-0.119,0.007C79.141,147.797,79.141,148.413,79.141,149.04z"/>
	</g>
	<g opacity="0.3">
		<path fill="#7C2929" d="M182.84,135.409c-0.135-0.033-0.252-0.061-0.352-0.101c-2.02-0.803-4.194-1.671-6.647-2.655
			c-0.219-0.088-0.504-0.253-0.621-0.545c-0.118-0.295-0.025-0.617,0.075-0.836c0.883-1.944,1.766-3.888,2.65-5.831
			c1.376-3.028,2.753-6.055,4.126-9.084c0.249-0.55,0.564-0.625,0.84-0.627c0.264,0,0.594,0.07,0.842,0.616
			c1.228,2.706,2.457,5.41,3.687,8.115c1.026,2.256,2.052,4.513,3.077,6.77c0.156,0.344,0.187,0.638,0.092,0.874
			c-0.095,0.236-0.321,0.427-0.672,0.568l-0.703,0.282c-1.907,0.764-3.88,1.554-5.821,2.326c-0.121,0.048-0.258,0.085-0.403,0.125
			c-0.029,0.008-0.058,0.016-0.087,0.024C182.896,135.422,182.868,135.415,182.84,135.409z M177.227,131.176l0.323,0.251
			c0.008,0.006,0.013,0.011,0.018,0.015c0.032,0.027,0.09,0.077,0.181,0.113l0.699,0.281c1.351,0.543,2.747,1.104,4.125,1.648
			c0.096,0.038,0.202,0.057,0.315,0.057h0c0.169,0,0.32-0.042,0.416-0.077c0.337-0.123,0.671-0.257,0.995-0.388l0.251-0.101
			c0.848-0.34,1.696-0.68,2.555-1.025l1.565-0.628l-5.755-12.656L177.227,131.176z"/>
		<path fill="#7C2929" d="M182.919,145.024c-0.256,0-0.506-0.13-0.704-0.366c-2.336-2.793-4.642-5.564-6.804-8.162
			c-0.304-0.366-0.335-0.775-0.084-1.121c0.16-0.22,0.4-0.342,0.677-0.342c0.136,0,0.277,0.029,0.418,0.085
			c0.699,0.278,1.397,0.557,2.096,0.836c1.296,0.518,2.637,1.054,3.959,1.573c0.132,0.052,0.284,0.079,0.441,0.079
			c0.158,0,0.313-0.028,0.446-0.08c1.134-0.446,2.283-0.906,3.394-1.351c0.886-0.355,1.772-0.709,2.659-1.061
			c0.131-0.052,0.263-0.078,0.394-0.078c0.49,0,0.848,0.352,0.853,0.837l0.001,0.109c-0.004,0.009-0.007,0.019-0.011,0.028
			c-0.074,0.184-0.144,0.359-0.234,0.468c-2.46,2.982-4.935,5.943-6.816,8.19C183.415,144.898,183.171,145.024,182.919,145.024z
			 M180.009,139.322l2.907,3.486l3.721-4.462l-1.602,0.447c-0.509,0.142-1.03,0.329-1.642,0.59
			c-0.166,0.071-0.322,0.105-0.476,0.105c-0.157,0-0.316-0.036-0.485-0.109c-0.362-0.158-0.732-0.302-1.089-0.442
			c-0.155-0.06-0.31-0.121-0.464-0.182l-0.391-0.156L180.009,139.322z"/>
	</g>
	<g opacity="0.3">
		<path fill="#7C2929" d="M138.62,57.006c-0.049-0.08-0.091-0.15-0.12-0.216c-0.582-1.35-1.207-2.805-1.909-4.449
			c-0.063-0.147-0.12-0.362-0.036-0.558c0.084-0.197,0.284-0.307,0.436-0.364c1.352-0.508,2.704-1.015,4.057-1.522
			c2.106-0.79,4.213-1.58,6.318-2.371c0.382-0.144,0.569-0.029,0.701,0.102c0.126,0.126,0.251,0.318,0.108,0.698
			c-0.707,1.881-1.412,3.763-2.118,5.645c-0.588,1.57-1.177,3.14-1.766,4.709c-0.09,0.239-0.215,0.395-0.374,0.462
			c-0.158,0.068-0.358,0.051-0.593-0.05l-0.471-0.202c-1.278-0.547-2.599-1.112-3.897-1.671c-0.081-0.035-0.164-0.082-0.252-0.133
			c-0.018-0.01-0.035-0.02-0.053-0.03C138.64,57.039,138.63,57.022,138.62,57.006z M137.96,52.297l0.035,0.275
			c0.001,0.006,0.001,0.012,0.002,0.016c0.002,0.028,0.006,0.08,0.032,0.14l0.2,0.469c0.386,0.906,0.786,1.842,1.185,2.761
			c0.028,0.064,0.069,0.124,0.124,0.178l0,0c0.081,0.081,0.173,0.133,0.236,0.162c0.22,0.103,0.444,0.198,0.661,0.29l0.169,0.072
			c0.568,0.243,1.137,0.486,1.712,0.732l1.049,0.448l3.301-8.806L137.96,52.297z"/>
		<path fill="#7C2929" d="M134.059,61.642c-0.123-0.123-0.18-0.304-0.161-0.512c0.219-2.453,0.441-4.881,0.65-7.158
			c0.029-0.321,0.21-0.531,0.496-0.576c0.182-0.029,0.355,0.028,0.487,0.161c0.065,0.065,0.119,0.146,0.159,0.241
			c0.201,0.467,0.402,0.935,0.603,1.402c0.372,0.868,0.757,1.765,1.141,2.646c0.038,0.088,0.098,0.174,0.173,0.249
			c0.076,0.076,0.163,0.136,0.252,0.175c0.756,0.329,1.525,0.658,2.27,0.977c0.593,0.254,1.187,0.508,1.779,0.765
			c0.087,0.038,0.163,0.089,0.226,0.151c0.234,0.234,0.237,0.574,0.008,0.809l-0.051,0.053c-0.006,0.003-0.012,0.005-0.019,0.008
			c-0.124,0.053-0.24,0.103-0.336,0.112c-2.603,0.249-5.203,0.482-7.178,0.657C134.356,61.819,134.179,61.763,134.059,61.642z
			 M135.394,57.523l-0.277,3.058l3.914-0.354l-0.98-0.553c-0.311-0.175-0.65-0.335-1.068-0.503
			c-0.113-0.046-0.204-0.104-0.278-0.177c-0.075-0.075-0.134-0.168-0.179-0.284c-0.098-0.249-0.205-0.494-0.309-0.732
			c-0.045-0.103-0.09-0.206-0.135-0.309l-0.112-0.262L135.394,57.523z"/>
	</g>
	<g opacity="0.3">
		<path fill="#7C2929" d="M72.998,92.815c-0.08,0.049-0.15,0.091-0.216,0.12c-1.35,0.582-2.805,1.207-4.449,1.909
			c-0.147,0.063-0.362,0.12-0.558,0.036c-0.197-0.084-0.307-0.284-0.364-0.436c-0.508-1.352-1.015-2.704-1.522-4.057
			c-0.79-2.106-1.58-4.213-2.371-6.318c-0.144-0.382-0.029-0.569,0.102-0.701c0.126-0.126,0.318-0.251,0.698-0.108
			c1.881,0.707,3.763,1.412,5.645,2.118c1.57,0.588,3.14,1.177,4.709,1.766c0.239,0.09,0.395,0.215,0.462,0.374
			c0.068,0.158,0.051,0.358-0.05,0.593l-0.202,0.471c-0.547,1.278-1.112,2.599-1.671,3.897c-0.035,0.081-0.082,0.164-0.133,0.252
			c-0.01,0.018-0.02,0.035-0.03,0.053C73.032,92.795,73.015,92.805,72.998,92.815z M68.29,93.475l0.275-0.035
			c0.006-0.001,0.012-0.001,0.016-0.002c0.028-0.002,0.08-0.006,0.14-0.032l0.469-0.2c0.906-0.386,1.842-0.786,2.761-1.185
			c0.064-0.028,0.124-0.069,0.178-0.124l0,0c0.081-0.081,0.133-0.173,0.162-0.236c0.103-0.22,0.198-0.444,0.29-0.661l0.072-0.169
			c0.243-0.568,0.486-1.137,0.732-1.712l0.448-1.049l-8.806-3.301L68.29,93.475z"/>
		<path fill="#7C2929" d="M77.635,97.376c-0.123,0.123-0.304,0.18-0.512,0.161c-2.453-0.219-4.881-0.441-7.158-0.65
			c-0.321-0.029-0.531-0.21-0.576-0.496c-0.029-0.182,0.028-0.355,0.161-0.487c0.065-0.065,0.146-0.119,0.241-0.159
			c0.467-0.201,0.935-0.402,1.402-0.603c0.868-0.372,1.765-0.757,2.646-1.141c0.088-0.038,0.174-0.098,0.249-0.173
			c0.076-0.076,0.136-0.163,0.175-0.252c0.329-0.756,0.658-1.525,0.977-2.27c0.254-0.593,0.508-1.187,0.765-1.779
			c0.038-0.087,0.089-0.163,0.151-0.226c0.234-0.234,0.574-0.237,0.809-0.008l0.053,0.051c0.003,0.006,0.005,0.012,0.008,0.019
			c0.053,0.124,0.103,0.24,0.112,0.336c0.249,2.603,0.482,5.203,0.657,7.178C77.812,97.079,77.756,97.256,77.635,97.376z
			 M73.516,96.041l3.058,0.277l-0.354-3.914l-0.553,0.98c-0.175,0.311-0.335,0.65-0.503,1.068c-0.046,0.113-0.104,0.204-0.177,0.278
			c-0.075,0.075-0.168,0.134-0.284,0.179c-0.249,0.098-0.494,0.205-0.732,0.309c-0.103,0.045-0.206,0.09-0.309,0.135l-0.262,0.112
			L73.516,96.041z"/>
	</g>
	<g opacity="0.3">
		<path fill="#7C2929" d="M53.7,121.063c1.433,0.092,2.56,0.734,3.218,2.103c0.212,0.442,0.733,0.702,1.183,0.571
			c0.468-0.136,0.756-0.598,0.691-1.109c-0.201-1.571,0.515-2.968,1.906-3.723c2.166-1.176,4.959,0.254,5.274,2.7
			c0.283,2.197-1.293,4.061-3.509,4.145c-0.195,0.007-0.398,0.003-0.587-0.041c-0.438-0.101-1.004,0.255-1.115,0.683
			c-0.118,0.45,0.136,0.976,0.571,1.189c1.335,0.655,2.064,1.731,2.092,3.215c0.027,1.454-0.636,2.564-1.91,3.263
			c-1.547,0.849-3.43,0.453-4.535-0.914c-1.098-1.358-1.075-3.307,0.066-4.633c0.124-0.145,0.154-0.281,0.12-0.454
			c-0.078-0.405-0.445-0.732-0.859-0.741c-0.088-0.002-0.195,0.038-0.262,0.096c-0.765,0.657-1.644,0.948-2.653,0.903
			c-1.645-0.074-3.133-1.431-3.347-3.078c-0.264-2.034,1.043-3.796,3.063-4.126C53.285,121.085,53.468,121.082,53.7,121.063z
			 M53.796,122.533c-1.523-0.005-2.567,1.223-2.292,2.562c0.182,0.89,0.735,1.49,1.625,1.702c0.835,0.199,1.568-0.025,2.145-0.688
			c0.046-0.053,0.12-0.09,0.188-0.113c1.306-0.428,2.631,0.209,3.051,1.52c0.217,0.679,0.237,1.343-0.348,1.943
			c-0.788,0.809-0.706,2.147,0.102,2.953c0.806,0.804,2.116,0.85,2.963,0.104c1.273-1.121,0.885-3.087-0.728-3.706
			c-0.088-0.034-0.182-0.08-0.246-0.146c-0.159-0.162-0.308-0.334-0.45-0.51c-0.991-1.225-0.539-3.071,0.912-3.686
			c0.433-0.184,0.877-0.361,1.374-0.204c0.152,0.048,0.33,0.034,0.494,0.022c1.458-0.112,2.395-1.695,1.791-3.019
			c-0.522-1.143-1.779-1.613-2.926-1.093c-0.836,0.379-1.381,1.354-1.202,2.253c0.09,0.451-0.02,0.845-0.167,1.249
			c-0.165,0.454-0.448,0.821-0.837,1.102c-0.869,0.629-2.077,0.59-2.907-0.09c-0.32-0.262-0.593-0.539-0.769-0.946
			C55.215,122.929,54.516,122.577,53.796,122.533z"/>
	</g>
	<g opacity="0.3">
		<path fill="#7C2929" d="M89.135,30.734c0.911,0.785,1.339,1.784,1.086,3.03c-0.081,0.402,0.135,0.839,0.501,0.979
			c0.381,0.146,0.807-0.018,1.021-0.391c0.66-1.151,1.843-1.722,3.155-1.523c2.041,0.31,3.183,2.676,2.158,4.468
			c-0.921,1.61-2.915,2.059-4.438,0.995c-0.134-0.094-0.267-0.199-0.371-0.324c-0.241-0.289-0.799-0.337-1.09-0.108
			c-0.306,0.241-0.402,0.72-0.219,1.083c0.561,1.112,0.504,2.199-0.228,3.204c-0.716,0.984-1.72,1.391-2.924,1.214
			c-1.462-0.214-2.52-1.431-2.567-2.902c-0.047-1.462,0.953-2.751,2.385-3.061c0.156-0.034,0.245-0.11,0.31-0.243
			c0.152-0.31,0.073-0.713-0.2-0.929c-0.058-0.045-0.15-0.073-0.223-0.069c-0.843,0.052-1.577-0.197-2.228-0.737
			c-1.061-0.88-1.369-2.539-0.68-3.747c0.851-1.492,2.615-2.008,4.13-1.207C88.847,30.539,88.971,30.63,89.135,30.734z
			 M88.456,31.765c-1.014-0.773-2.332-0.481-2.825,0.553c-0.328,0.686-0.262,1.366,0.225,1.958c0.457,0.555,1.06,0.775,1.78,0.625
			c0.057-0.012,0.125,0,0.182,0.02c1.088,0.374,1.652,1.469,1.269,2.557c-0.198,0.563-0.52,1.016-1.214,1.122
			c-0.935,0.142-1.556,1.077-1.424,2.023c0.132,0.944,0.984,1.637,1.927,1.567c1.416-0.105,2.151-1.614,1.386-2.843
			c-0.042-0.067-0.081-0.145-0.091-0.222c-0.024-0.188-0.037-0.378-0.043-0.568c-0.043-1.319,1.192-2.323,2.472-2
			c0.382,0.096,0.768,0.202,1.02,0.558c0.077,0.109,0.203,0.19,0.319,0.264c1.031,0.662,2.456,0.078,2.721-1.111
			c0.229-1.028-0.373-1.976-1.402-2.209c-0.75-0.169-1.606,0.206-1.941,0.897c-0.168,0.347-0.441,0.554-0.743,0.75
			c-0.34,0.22-0.714,0.322-1.116,0.313c-0.898-0.019-1.685-0.656-1.895-1.529c-0.081-0.337-0.123-0.66-0.035-1.02
			C89.204,32.746,88.914,32.158,88.456,31.765z"/>
	</g>
	<g opacity="0.3">
		<path fill="#7C2929" d="M217.787,121.328c1.754,0.112,3.133,0.899,3.938,2.574c0.26,0.541,0.898,0.859,1.448,0.699
			c0.573-0.167,0.925-0.732,0.845-1.357c-0.246-1.923,0.63-3.632,2.333-4.557c2.651-1.439,6.07,0.311,6.455,3.305
			c0.346,2.689-1.582,4.97-4.295,5.073c-0.239,0.009-0.487,0.003-0.718-0.05c-0.536-0.124-1.228,0.312-1.365,0.836
			c-0.144,0.551,0.166,1.194,0.699,1.455c1.634,0.801,2.526,2.119,2.56,3.935c0.033,1.779-0.778,3.138-2.337,3.994
			c-1.893,1.04-4.198,0.554-5.551-1.118c-1.344-1.662-1.315-4.047,0.08-5.67c0.152-0.177,0.188-0.344,0.147-0.556
			c-0.096-0.496-0.544-0.896-1.052-0.907c-0.107-0.002-0.239,0.047-0.321,0.117c-0.936,0.804-2.012,1.161-3.246,1.105
			c-2.013-0.091-3.834-1.752-4.096-3.767c-0.324-2.489,1.276-4.646,3.749-5.049C217.279,121.354,217.503,121.351,217.787,121.328z
			 M217.904,123.127c-1.864-0.006-3.142,1.496-2.805,3.136c0.223,1.089,0.899,1.824,1.989,2.084
			c1.022,0.244,1.919-0.031,2.626-0.841c0.056-0.064,0.146-0.11,0.23-0.138c1.598-0.524,3.22,0.256,3.734,1.86
			c0.266,0.831,0.29,1.644-0.426,2.378c-0.965,0.99-0.864,2.628,0.125,3.614c0.987,0.984,2.59,1.04,3.627,0.127
			c1.558-1.372,1.084-3.778-0.892-4.535c-0.108-0.041-0.222-0.098-0.302-0.179c-0.194-0.198-0.376-0.408-0.551-0.624
			c-1.213-1.499-0.66-3.758,1.117-4.511c0.53-0.225,1.073-0.442,1.681-0.25c0.186,0.059,0.404,0.042,0.604,0.027
			c1.785-0.137,2.932-2.075,2.192-3.695c-0.639-1.399-2.178-1.974-3.582-1.338c-1.024,0.464-1.69,1.657-1.472,2.757
			c0.11,0.553-0.025,1.034-0.204,1.528c-0.202,0.556-0.548,1.004-1.025,1.349c-1.064,0.769-2.542,0.722-3.557-0.11
			c-0.392-0.321-0.726-0.66-0.941-1.157C219.641,123.612,218.785,123.181,217.904,123.127z"/>
	</g>
	<path fill="#7C2929" d="M204.044,156.327l-14.099,14.099c-6.208,6.208-16.272,6.208-22.479,0L82.521,85.482
		c-6.208-6.208-6.208-16.272,0-22.479L96.62,48.903c6.208-6.208,16.272-6.208,22.479,0l84.944,84.944
		C210.251,140.055,210.251,150.119,204.044,156.327z"/>
	<path fill="#7C2929" d="M93.707,167.295l-14.099-14.099c-6.208-6.208-6.208-16.272,0-22.479l51.891-51.891L180.5,66.784
		c6.208-6.208,0.324-27.218,6.532-21.011l14.099,14.099c6.208,6.208,6.208,16.272,0,22.479l-84.944,84.944
		C109.979,173.503,99.915,173.503,93.707,167.295z"/>
	<path fill="#EA3F3F" d="M99.968,167.295l-14.099-14.099c-6.208-6.208-6.208-16.272,0-22.479l84.944-84.944
		c6.208-6.208,16.272-6.208,22.479,0l14.099,14.099c6.208,6.208,6.208,16.272,0,22.479l-84.944,84.944
		C116.24,173.503,106.176,173.503,99.968,167.295z"/>
	<path fill="#EA3F3F" d="M207.392,153.196l-14.099,14.099c-6.208,6.208-16.272,6.208-22.479,0L85.869,82.351
		c-6.208-6.208-6.208-16.272,0-22.479l14.099-14.099c6.208-6.208,16.272-6.208,22.479,0l84.944,84.944
		C213.599,136.924,213.599,146.989,207.392,153.196z"/>
	<path fill="#FFFFFF" d="M180.506,97.222L180.506,97.222c-0.483-0.483-0.483-1.267,0-1.75l21.749-21.749
		c0.483-0.483,1.267-0.483,1.75,0l0,0c0.483,0.483,0.483,1.267,0,1.75l-21.749,21.749C181.773,97.706,180.99,97.706,180.506,97.222z
		"/>
	<path fill="#FFFFFF" d="M113.3,164.429L113.3,164.429c-0.483-0.483-0.483-1.267,0-1.75l21.749-21.749
		c0.483-0.483,1.267-0.483,1.75,0v0c0.483,0.483,0.483,1.267,0,1.75l-21.749,21.749C114.567,164.912,113.783,164.912,113.3,164.429z
		"/>
</g>
</svg>
