<svg width="17" height="16" viewBox="0 0 17 16" fill="none" xmlns="http://www.w3.org/2000/svg">
<path d="M14.2659 10.482C14.7849 9.24886 14.9044 7.88403 14.6075 6.57943C14.3107 5.27483 13.6124 4.09608 12.6109 3.2089C11.6094 2.32171 10.355 1.77072 9.02416 1.63337C7.69328 1.49603 6.35282 1.77925 5.19125 2.44321L4.39776 1.05381C5.61169 0.36 6.98634 -0.00334529 8.38454 2.32098e-05C9.78275 0.00339171 11.1556 0.373357 12.3662 1.073C15.9577 3.1463 17.3335 7.58566 15.6593 11.2875L16.7328 11.9066L13.4013 13.6776L13.2693 9.90692L14.2659 10.482ZM2.46764 5.51796C1.94863 6.75114 1.82916 8.11597 2.12602 9.42057C2.42289 10.7252 3.12116 11.9039 4.12266 12.7911C5.12416 13.6783 6.37853 14.2293 7.70941 14.3666C9.04029 14.504 10.3807 14.2208 11.5423 13.5568L12.3358 14.9462C11.1219 15.64 9.74723 16.0033 8.34903 16C6.95082 15.9966 5.57794 15.6266 4.36737 14.927C0.775888 12.8537 -0.599913 8.41434 1.07424 4.71248L0 4.09417L3.33152 2.32322L3.4635 6.09388L2.46684 5.51876L2.46764 5.51796ZM5.56719 9.59977H9.96655C10.0726 9.59977 10.1744 9.55763 10.2494 9.48263C10.3244 9.40762 10.3665 9.3059 10.3665 9.19983C10.3665 9.09375 10.3244 8.99203 10.2494 8.91702C10.1744 8.84202 10.0726 8.79988 9.96655 8.79988H6.76702C6.23666 8.79988 5.72803 8.5892 5.35301 8.21418C4.97799 7.83916 4.76731 7.33053 4.76731 6.80017C4.76731 6.26982 4.97799 5.76118 5.35301 5.38617C5.72803 5.01115 6.23666 4.80046 6.76702 4.80046H7.5669V4.00058H9.16667V4.80046H11.1664V6.40023H6.76702C6.66095 6.40023 6.55922 6.44237 6.48422 6.51737C6.40921 6.59238 6.36708 6.6941 6.36708 6.80017C6.36708 6.90625 6.40921 7.00797 6.48422 7.08298C6.55922 7.15798 6.66095 7.20012 6.76702 7.20012H9.96655C10.4969 7.20012 11.0055 7.4108 11.3806 7.78582C11.7556 8.16084 11.9663 8.66947 11.9663 9.19983C11.9663 9.73018 11.7556 10.2388 11.3806 10.6138C11.0055 10.9889 10.4969 11.1995 9.96655 11.1995H9.16667V11.9994H7.5669V11.1995H5.56719V9.59977Z" fill="#00BABA"/>
</svg>
