<svg id="Layer_1" data-name="Layer 1" xmlns="http://www.w3.org/2000/svg" viewBox="0 0 186.74 186.76"> <g id="Group_16089" data-name="Group 16089"><g id="Group_16075" data-name="Group 16075"><g id="Group_16074" data-name="Group 16074"><path id="Path_27465" data-name="Path 27465" class="cls-1" d="M182.47,64.65H165.82a78,78,0,1,1-46.75-44.74V3.54a93.36,93.36,0,1,0,63.4,61.1Z" transform="translate(-0.26 0.01)"/></g></g><g id="Group_16077" data-name="Group 16077"><g id="Group_16076" data-name="Group 16076"><path id="Path_27466" data-name="Path 27466" class="cls-1" d="M119.17,88.88a17.41,17.41,0,0,0,8.64-18c-1.49-11.13-14.74-15.34-25.23-16.23V37.92H92.27v16.6h-7V37.92H75v16.6H54.19V65.21h7.74c3.46,0,5.17,1,5.17,3.83V115c0,3.83-1.93,5-4,5H55.23V130.9H75.29v17H85.67v-17H92.6v17h10.09v-17h2.2c21.25,0,28.32-10.39,28.32-24.57A18.27,18.27,0,0,0,119.17,88.88Zm-33.86-23h7.36c5.18,0,15.34.89,15.34,9.3a10.37,10.37,0,0,1-9.08,11H85.31ZM96.73,119v-.08H85.31V96.8H98.59c3.09,0,14.74,1,14.74,9.3S107.78,119,96.73,119Z" transform="translate(-0.26 0.01)"/></g></g><path id="Path_27467" data-name="Path 27467" class="cls-1" d="M172.71,43.69H128.34A8.72,8.72,0,0,1,119.63,35h0a8.72,8.72,0,0,1,8.71-8.7h44.37a8.71,8.71,0,0,1,8.71,8.7h0A8.72,8.72,0,0,1,172.71,43.69Z" transform="translate(-0.26 0.01)"/></g></svg>