<svg width="16" height="16" viewBox="0 0 16 16" fill="none" xmlns="http://www.w3.org/2000/svg">
<path d="M1.92481 10.0184L4.6464 7.2968L6.9088 9.56L9.4344 7.0344L8 5.6H12V9.6L10.5656 8.1656L6.9088 11.8224L4.6464 9.56L2.66641 11.5392C3.56514 12.8919 4.9445 13.8523 6.52499 14.2259C8.10548 14.5994 9.76887 14.3582 11.1781 13.551C12.5873 12.7438 13.637 11.431 14.1143 9.87873C14.5917 8.32644 14.4611 6.65072 13.749 5.19115C13.0369 3.73157 11.7965 2.5973 10.2792 2.0182C8.76196 1.43909 7.08128 1.45846 5.57775 2.07238C4.07423 2.68629 2.86033 3.84884 2.18203 5.32444C1.50374 6.80005 1.41178 8.47833 1.92481 10.0192V10.0184ZM0.694406 11.2648L0.686406 11.2568L0.689606 11.2536C0.233549 10.2296 -0.00143016 9.12095 6.54861e-06 8C6.54861e-06 3.5816 3.58161 0 8 0C12.4184 0 16 3.5816 16 8C16 12.4184 12.4184 16 8 16C4.74401 16 1.94401 14.056 0.694406 11.2648Z" fill="#00BABA"/>
</svg>
