<svg width="16" height="16" viewBox="0 0 16 16" fill="none" xmlns="http://www.w3.org/2000/svg">
<path d="M14.3747 4.81831H14.0236C10.3086 4.81831 6.59338 4.81831 2.87789 4.81831C2.46443 4.81831 2.05098 4.76794 1.61033 4.73835V4.8863C1.61033 7.74503 1.61033 10.604 1.61033 13.4633C1.59071 13.5914 1.60169 13.7223 1.64237 13.8454C1.68305 13.9685 1.75228 14.0802 1.84439 14.1713C1.93651 14.2625 2.0489 14.3306 2.17237 14.37C2.29585 14.4095 2.42689 14.4191 2.5548 14.3982H6.2639C6.39038 14.4186 6.51989 14.4089 6.64191 14.3698C6.76393 14.3307 6.875 14.2634 6.9661 14.1733C7.0572 14.0832 7.12576 13.9729 7.16618 13.8513C7.20661 13.7298 7.21778 13.6004 7.19877 13.4737C7.19877 12.3749 7.19877 11.2763 7.19877 10.178C7.19877 10.1181 7.19317 10.0589 7.18758 9.95091C6.8421 10.2988 6.52621 10.6155 6.21192 10.933C6.1384 11.0087 6.05069 11.0692 5.9538 11.111C5.8569 11.1528 5.75272 11.1752 5.6472 11.1767C5.54167 11.1783 5.43688 11.159 5.33879 11.1201C5.2407 11.0812 5.15124 11.0233 5.07552 10.9498C4.9998 10.8763 4.9393 10.7885 4.89747 10.6916C4.85565 10.5947 4.83332 10.4906 4.83176 10.385C4.8302 10.2795 4.84945 10.1747 4.88839 10.0766C4.92733 9.97855 4.98521 9.88908 5.05873 9.81336C5.50337 9.35752 5.95841 8.91128 6.40865 8.46104C6.73573 8.13476 7.06122 7.80687 7.3891 7.48138C7.46501 7.39313 7.55907 7.32231 7.66487 7.27376C7.77066 7.22521 7.88569 7.20007 8.0021 7.20007C8.1185 7.20007 8.23353 7.22521 8.33932 7.27376C8.44511 7.32231 8.53918 7.39313 8.61508 7.48138C9.38441 8.24804 10.1521 9.01631 10.9183 9.78617C11.0007 9.85926 11.0673 9.9485 11.1138 10.0484C11.1603 10.1482 11.1858 10.2566 11.1888 10.3667C11.1917 10.4768 11.172 10.5864 11.1309 10.6886C11.0897 10.7908 11.028 10.8835 10.9496 10.9608C10.8712 11.0382 10.7777 11.0987 10.675 11.1384C10.5722 11.1782 10.4624 11.1965 10.3523 11.192C10.2423 11.1876 10.1342 11.1607 10.035 11.1128C9.93579 11.0649 9.84745 10.9972 9.77547 10.9138C9.50037 10.6411 9.22767 10.3668 8.95336 10.0941C8.91578 10.0565 8.87339 10.0221 8.80461 9.95892V10.1764C8.80461 11.2961 8.80461 12.4237 8.80461 13.5473C8.81683 14.1205 8.62337 14.6791 8.25926 15.122C7.89515 15.5649 7.38446 15.8627 6.81971 15.9616C6.67854 15.987 6.53527 15.9988 6.39186 15.9968C5.08032 15.9968 3.76957 16.004 2.45803 15.9968C1.88412 16.0145 1.32338 15.8227 0.880445 15.4573C0.437512 15.092 0.142653 14.5779 0.0508835 14.0111C0.00451374 13.6586 -0.0102068 13.3026 0.00689864 12.9475C0.00423291 9.45803 0.00423291 5.96859 0.00689864 2.47914C-0.0119047 1.90202 0.179324 1.33767 0.545095 0.890859C0.910865 0.444051 1.42633 0.145134 1.9958 0.0495893C2.16796 0.019934 2.34256 0.00681545 2.51722 0.0104062C6.70055 0.0104062 10.8839 0.0160004 15.0672 0.00640372C15.193 -0.00936305 15.3207 0.00407961 15.4404 0.0456844C15.5601 0.0872891 15.6687 0.15594 15.7576 0.246298C15.8464 0.336656 15.9133 0.446287 15.9529 0.566681C15.9926 0.687075 16.0039 0.814985 15.9861 0.940475C15.9618 1.10825 15.8831 1.26345 15.7623 1.38231C15.6414 1.50117 15.4849 1.57715 15.3167 1.59864C15.0688 1.62183 14.8177 1.61784 14.5682 1.61784C10.5696 1.61784 6.57339 1.61784 2.57959 1.61784C2.43654 1.61254 2.29348 1.62816 2.15494 1.66422C1.97142 1.72205 1.81603 1.84617 1.71904 2.01235C1.62205 2.17854 1.59042 2.37488 1.63033 2.56311C1.66653 2.74848 1.76717 2.91504 1.91443 3.03331C2.06168 3.15158 2.24603 3.21392 2.43484 3.20928C3.54006 3.20928 4.64527 3.20928 5.75048 3.20928C8.89605 3.20928 12.0429 3.20928 15.1912 3.20928C15.3931 3.2037 15.5893 3.27669 15.7385 3.41289C15.8876 3.54908 15.9781 3.73784 15.9909 3.93942C15.9981 4.0138 15.9989 4.08898 15.9989 4.16415C15.9989 7.78954 15.9989 11.4163 15.9989 15.0443C16.003 15.1751 15.9893 15.3059 15.9581 15.433C15.9094 15.6029 15.8041 15.751 15.6597 15.8528C15.5152 15.9546 15.3403 16.004 15.164 15.9928C13.853 15.9976 12.5417 15.9976 11.2302 15.9928C11.0399 15.9976 10.8542 15.9344 10.7064 15.8146C10.5586 15.6948 10.4583 15.5262 10.4236 15.3391C10.3889 15.152 10.4221 14.9587 10.5172 14.7938C10.6122 14.629 10.763 14.5034 10.9423 14.4397C11.0618 14.4057 11.1858 14.3898 11.3101 14.3926C12.253 14.3926 13.1959 14.3926 14.1387 14.3926H14.3787L14.3747 4.81831Z" fill="#00BABA"/>
</svg>
