<svg width="32" height="32" viewBox="0 0 32 32" fill="none" xmlns="http://www.w3.org/2000/svg">
<path d="M6.27988 19.2296L10.6344 14.8751L14.2543 18.4962L18.2952 14.4552L16.0002 12.1602H22.4002V18.5602L20.1052 16.2652L14.2543 22.116L10.6344 18.4962L7.46644 21.6629C8.90441 23.8272 11.1114 25.3639 13.6402 25.9616C16.169 26.5593 18.8304 26.1732 21.0851 24.8817C23.3399 23.5902 25.0193 21.4898 25.7831 19.0062C26.547 16.5225 26.338 13.8414 25.1986 11.506C24.0592 9.17071 22.0746 7.35588 19.647 6.42931C17.2193 5.50274 14.5302 5.53373 12.1246 6.516C9.71896 7.49827 7.77672 9.35835 6.69145 11.7193C5.60617 14.0803 5.45905 16.7655 6.27988 19.2309V19.2296ZM4.31125 21.2239L4.29845 21.2111L4.30357 21.206C3.57387 19.5676 3.19791 17.7937 3.20021 16.0002C3.20021 8.93076 8.93076 3.2002 16.0002 3.2002C23.0696 3.2002 28.8002 8.93076 28.8002 16.0002C28.8002 23.0696 23.0696 28.8002 16.0002 28.8002C10.7906 28.8002 6.3106 25.6898 4.31125 21.2239Z" fill="current"/>
</svg>
