<svg width="32" height="32" viewBox="0 0 32 32" fill="none" xmlns="http://www.w3.org/2000/svg">
<path d="M25.3813 19.967C26.2111 17.9943 26.4019 15.8112 25.9267 13.7246C25.4516 11.638 24.3344 9.75269 22.7323 8.33387C21.1301 6.91504 19.1236 6.03401 16.9948 5.81462C14.866 5.59523 12.722 6.04853 10.8642 7.11078L9.59483 4.88811C11.9415 3.54623 14.6528 2.98198 17.3399 3.27626C20.027 3.57055 22.5519 4.70827 24.5525 6.52624C26.5531 8.34422 27.9265 10.749 28.4759 13.3958C29.0252 16.0426 28.7222 18.7954 27.6104 21.2594L29.3276 22.2498L23.9981 25.0854L23.7869 19.0533L25.3813 19.9734V19.967ZM6.50715 12.0334C5.67732 14.006 5.48657 16.1891 5.96174 18.2758C6.43691 20.3624 7.55408 22.2477 9.15621 23.6665C10.7583 25.0853 12.7648 25.9664 14.8936 26.1858C17.0224 26.4052 19.1664 25.9519 21.0243 24.8896L22.2936 27.1123C19.947 28.4542 17.2357 29.0184 14.5486 28.7241C11.8614 28.4298 9.33652 27.2921 7.33595 25.4741C5.33538 23.6562 3.96194 21.2513 3.4126 18.6045C2.86325 15.9578 3.16623 13.205 4.27808 10.741L2.55957 9.75189L7.88272 6.915L8.10026 12.9509L6.50587 12.0334H6.50715ZM17.7549 19.6228L14.1323 16.0002L10.5136 19.6189L8.70423 17.8096L14.1336 12.3815L17.7536 16.0002L21.3736 12.3815L23.183 14.1908L17.7536 19.6189L17.7549 19.6228Z" fill="current"/>
</svg>
