<svg width="32" height="32" viewBox="0 0 32 32" fill="none" xmlns="http://www.w3.org/2000/svg">
<path d="M26.0257 19.9715C26.8561 17.9984 27.0472 15.8146 26.5723 13.7273C26.0973 11.6399 24.9801 9.75392 23.3776 8.33443C21.7752 6.91494 19.7683 6.03334 17.6389 5.81359C15.5094 5.59384 13.3647 6.04699 11.5062 7.10932L10.2366 4.88629C12.1789 3.7762 14.3783 3.19484 16.6155 3.20023C18.8526 3.20562 21.0492 3.79757 22.9861 4.917C28.7325 8.23428 30.9338 15.3373 28.2551 21.2602L29.9726 22.2508L24.6422 25.0843L24.431 19.0513L26.0257 19.9715ZM7.14842 12.0289C6.31801 14.002 6.12685 16.1857 6.60184 18.2731C7.07682 20.3605 8.19405 22.2465 9.79645 23.666C11.3989 25.0855 13.4058 25.967 15.5353 26.1868C17.6647 26.4065 19.8094 25.9534 21.6679 24.8911L22.9375 27.1141C20.9952 28.2242 18.7958 28.8055 16.5586 28.8002C14.3215 28.7948 12.1249 28.2028 10.188 27.0834C4.44162 23.7661 2.24033 16.6631 4.91899 10.7402L3.2002 9.75086L8.53062 6.91735L8.74179 12.9504L7.14714 12.0302L7.14842 12.0289ZM12.1077 18.5598H19.1467C19.3164 18.5598 19.4792 18.4924 19.5992 18.3724C19.7192 18.2524 19.7866 18.0896 19.7866 17.9199C19.7866 17.7502 19.7192 17.5874 19.5992 17.4674C19.4792 17.3474 19.3164 17.28 19.1467 17.28H14.0274C13.1789 17.28 12.365 16.9429 11.765 16.3429C11.165 15.7429 10.8279 14.929 10.8279 14.0805C10.8279 13.2319 11.165 12.4181 11.765 11.8181C12.365 11.218 13.1789 10.8809 14.0274 10.8809H15.3072V9.60112H17.8669V10.8809H21.0664V13.4406H14.0274C13.8577 13.4406 13.6949 13.508 13.5749 13.628C13.4549 13.748 13.3875 13.9108 13.3875 14.0805C13.3875 14.2502 13.4549 14.413 13.5749 14.533C13.6949 14.653 13.8577 14.7204 14.0274 14.7204H19.1467C19.9952 14.7204 20.8091 15.0575 21.4091 15.6575C22.0091 16.2575 22.3462 17.0713 22.3462 17.9199C22.3462 18.7685 22.0091 19.5823 21.4091 20.1823C20.8091 20.7824 19.9952 21.1195 19.1467 21.1195H17.8669V22.3993H15.3072V21.1195H12.1077V18.5598Z" fill="current"/>
</svg>
