<svg width="32" height="32" viewBox="0 0 32 32" fill="none" xmlns="http://www.w3.org/2000/svg">
<path d="M20.3635 25.75V23.5833C20.3635 22.4341 19.9038 21.3319 19.0855 20.5192C18.2671 19.7065 17.1572 19.25 15.9999 19.25H8.36361C7.20631 19.25 6.09641 19.7065 5.27807 20.5192C4.45974 21.3319 4 22.4341 4 23.5833V25.75" stroke="current" stroke-width="2.5" stroke-linecap="round" stroke-linejoin="round"/>
<path d="M12.182 14.9167C14.5919 14.9167 16.5456 12.9766 16.5456 10.5833C16.5456 8.1901 14.5919 6.25 12.182 6.25C9.77201 6.25 7.81836 8.1901 7.81836 10.5833C7.81836 12.9766 9.77201 14.9167 12.182 14.9167Z" stroke="current" stroke-width="2.5" stroke-linecap="round" stroke-linejoin="round"/>
<path d="M21.4551 14.9167L23.6369 17.0833L28.0005 12.75" stroke="current" stroke-width="2.5" stroke-linecap="round" stroke-linejoin="round"/>
</svg>
