<?xml version="1.0" encoding="utf-8"?>
<!-- Generator: Adobe Illustrator 25.3.1, SVG Export Plug-In . SVG Version: 6.00 Build 0)  -->
<svg version="1.1" id="Layer_1" xmlns="http://www.w3.org/2000/svg" xmlns:xlink="http://www.w3.org/1999/xlink" x="0px" y="0px"
	 viewBox="0 0 512 512" style="enable-background:new 0 0 512 512;" xml:space="preserve">
<g>
	<path d="M382.05,19.72c18.79,0,34.08,15.29,34.08,34.08v404.4c0,18.79-15.29,34.08-34.08,34.08H139.31
		c-18.79,0-34.08-15.29-34.08-34.08V53.8c0-18.79,15.29-34.08,34.08-34.08L382.05,19.72 M382.05,0.67H139.31
		c-29.34,0-53.12,23.78-53.12,53.12V458.2c0,29.34,23.78,53.12,53.12,53.12h242.74c29.34,0,53.12-23.78,53.12-53.12V53.8
		C435.17,24.46,411.39,0.67,382.05,0.67L382.05,0.67z"/>
</g>
<g>
	<path d="M356.81,73.73H164.55c-6.9,0-12.5-5.6-12.5-12.5s5.6-12.5,12.5-12.5h192.26c6.9,0,12.5,5.6,12.5,12.5
		S363.71,73.73,356.81,73.73z"/>
</g>
<g>
	<path d="M348.32,397.99H173.04c-25.34,0-45.96-20.62-45.96-45.96V142.38c0-25.34,20.62-45.96,45.96-45.96h175.28
		c25.34,0,45.96,20.62,45.96,45.96v209.66C394.28,377.38,373.66,397.99,348.32,397.99z M173.04,121.42
		c-11.56,0-20.96,9.4-20.96,20.96v209.65c0,11.56,9.4,20.96,20.96,20.96h175.28c11.56,0,20.96-9.4,20.96-20.95V142.38
		c0-11.56-9.4-20.96-20.96-20.96H173.04z"/>
</g>
<g>
	<path d="M354.95,396.75H166.42v-60.83c0-51.97,42.28-94.26,94.26-94.26c51.97,0,94.26,42.28,94.27,94.26V396.75z M191.42,371.75
		h138.53v-35.83c-0.01-38.19-31.08-69.26-69.27-69.26c-38.19,0-69.26,31.07-69.26,69.26V371.75z"/>
</g>
<g>
	<path d="M260.68,263.26c-35.23,0-63.89-28.66-63.89-63.89s28.66-63.89,63.89-63.89c35.23,0,63.89,28.66,63.89,63.89
		S295.91,263.26,260.68,263.26z M260.68,160.48c-21.44,0-38.89,17.45-38.89,38.89s17.45,38.89,38.89,38.89
		c21.44,0,38.89-17.45,38.89-38.89S282.12,160.48,260.68,160.48z"/>
</g>
<g>
	<path d="M260.68,475.91c-19.51,0-35.38-15.87-35.38-35.38s15.87-35.38,35.38-35.38c19.51,0,35.38,15.87,35.38,35.38
		S280.19,475.91,260.68,475.91z M260.68,430.15c-5.72,0-10.38,4.66-10.38,10.38s4.66,10.38,10.38,10.38s10.38-4.66,10.38-10.38
		S266.4,430.15,260.68,430.15z"/>
</g>
</svg>
