<svg width="32" height="32" viewBox="0 0 32 32" fill="none" xmlns="http://www.w3.org/2000/svg">
<path d="M29.0723 6.07995L15.9997 19.1051L2.92712 6.07995C3.12269 6.00884 3.33601 5.96143 3.55527 5.96143H28.4442C28.6634 5.96143 28.8767 6.00884 29.0723 6.07995Z" fill="#00BABA"/>
<path opacity="0.8" fill-rule="evenodd" clip-rule="evenodd" d="M1.77783 7.7394C1.77783 7.49208 1.82966 7.25651 1.92197 7.04199L10.8482 15.9333L1.89574 24.8795C1.82301 24.686 1.77783 24.479 1.77783 24.2609V7.7394ZM16.0001 20.7779C16.1782 20.7779 16.3563 20.7102 16.4922 20.5748L20.1138 16.9674L29.0665 25.9197C28.872 25.9933 28.6639 26.0387 28.4445 26.0387H3.55561C3.33476 26.0387 3.1252 25.9929 2.92967 25.9185L11.8867 16.9677L15.5079 20.5748C15.6438 20.7102 15.822 20.7779 16.0001 20.7779ZM21.1511 15.9339L30.0779 7.04199C30.1702 7.25651 30.222 7.49208 30.222 7.7394V24.2609C30.222 24.481 30.1764 24.6899 30.1024 24.8849L21.1511 15.9339Z" fill="url(#paint0_linear_1912_26977)"/>
<defs>
<linearGradient id="paint0_linear_1912_26977" x1="1.77783" y1="16.5403" x2="30.0798" y2="16.5403" gradientUnits="userSpaceOnUse">
<stop stop-color="#02BABA"/>
<stop offset="1" stop-color="#A7E3E3"/>
</linearGradient>
</defs>
</svg>
