<svg width="32" height="32" viewBox="0 0 32 32" fill="none" xmlns="http://www.w3.org/2000/svg">
<path d="M21.0236 12.7139H29.2067C30.0483 12.7139 30.7305 13.3961 30.7305 14.2377V29.4762C30.7305 30.3178 30.0483 31 29.2067 31H2.79338C1.95178 31 1.26953 30.3178 1.26953 29.4762V14.2377C1.26953 13.3961 1.95178 12.7139 2.79338 12.7139H21.0236Z" fill="url(#paint0_linear_2024_27208)"/>
<path d="M12.9524 12.7138C12.9524 12.4497 12.9524 12.0535 14.7607 9.79313C16.1525 8.05087 16.7519 5.06413 16.9703 2.58534C16.9931 2.30212 16.8961 2.02233 16.7031 1.81385C16.5101 1.60537 16.2385 1.48726 15.9544 1.48817C15.429 1.48579 14.9884 1.88449 14.9385 2.40756C14.7607 4.47999 14.263 7.15688 13.1709 8.50294C11.073 11.1544 10.9207 11.8605 10.9207 12.7138H12.9524Z" fill="#00BABA"/>
<path d="M13.7702 24.2088C13.5484 24.0382 13.2305 24.0791 13.0591 24.3002C11.6927 26.0577 8.94471 26.2406 7.05006 25.5193C5.42289 24.9145 4.5045 23.189 4.9116 21.5014C5.19033 20.24 5.96221 19.1425 7.05514 18.4537C8.05574 17.7919 9.29768 17.6059 10.4482 17.9458C11.7253 18.3939 12.5886 19.5895 12.6121 20.9427C12.6678 21.7234 12.4265 22.4963 11.9365 23.1066C11.6723 23.4611 11.2373 23.6456 10.7987 23.5891C10.7268 23.5775 10.6626 23.5371 10.6209 23.4774C10.5935 23.4142 10.5935 23.3424 10.6209 23.2793C10.9917 21.8164 11.3575 19.683 11.3727 19.5966C11.4036 19.4152 11.3352 19.231 11.1935 19.1136C11.0518 18.9961 10.8581 18.9632 10.6856 19.0272C10.513 19.0912 10.3877 19.2425 10.3568 19.4239C10.3568 19.4239 10.3568 19.5052 10.3212 19.6322L10.2908 19.5966C9.66417 18.928 8.66757 18.7616 7.8577 19.1903C7.22008 19.5503 6.70918 20.0985 6.39481 20.7598C6.26978 21.0038 6.16775 21.2589 6.09004 21.5218C5.86146 22.3243 5.88686 23.5028 6.70974 24.1885C7.069 24.4827 7.52038 24.6409 7.98469 24.6355C8.60831 24.629 9.20875 24.3982 9.67615 23.9853L9.72187 23.9396L9.74727 24.0005C9.93011 24.2932 10.223 24.5001 10.56 24.5745C11.3746 24.7422 12.2129 24.4258 12.7137 23.7618C13.368 22.9621 13.6932 21.9431 13.6229 20.9122C13.5813 19.136 12.4383 17.5735 10.7581 16.9959C9.32131 16.5719 7.77112 16.7944 6.51164 17.6055C5.19004 18.4389 4.25433 19.7639 3.91094 21.2881C3.40539 23.4648 4.58879 25.6796 6.67926 26.4692C7.51221 26.7827 8.39505 26.9427 9.28503 26.9416C11.0419 27.0121 12.7316 26.2611 13.8566 24.9098C14.0215 24.6911 13.9833 24.381 13.7702 24.2088ZM9.00058 23.2285C8.56087 23.6562 7.88634 23.7296 7.36499 23.4062C6.98067 22.9673 6.86759 22.3532 7.07038 21.8062C7.12888 21.6083 7.20539 21.4162 7.29896 21.2322C7.51573 20.7596 7.86971 20.3631 8.31485 20.0944C8.71503 19.8636 9.22187 19.9417 9.53393 20.2824C9.7465 20.5299 9.9056 20.8187 10.0012 21.1306C10.0066 21.1474 10.0152 21.163 10.0266 21.1764C9.96061 21.5116 9.88441 21.8621 9.80822 22.1922C9.58915 22.574 9.31725 22.9228 9.00058 23.2285Z" fill="white"/>
<path d="M16 16.7775C17.7514 16.7033 19.1136 15.2276 19.0477 13.4758C19.0477 13.2194 19.0188 12.9638 18.9613 12.7139C18.8494 12.1748 18.605 11.6721 18.2502 11.251C18.1022 11.0712 18.0246 10.8438 18.0318 10.611C18.0373 10.1965 18.2942 9.82695 18.6807 9.67724C19.0673 9.52753 19.506 9.62771 19.7893 9.93036C20.4583 10.7212 20.8866 11.6872 21.0236 12.7139C21.0628 12.966 21.0815 13.2208 21.0795 13.4758C21.1448 16.3494 18.8734 18.7345 16 18.8093V16.7775Z" fill="#00BABA"/>
<path d="M28.1907 21.349H18.5397C18.2592 21.349 18.0317 21.1216 18.0317 20.8411C18.0317 20.5605 18.2592 20.3331 18.5397 20.3331H28.1907C28.4712 20.3331 28.6987 20.5605 28.6987 20.8411C28.6987 21.1216 28.4712 21.349 28.1907 21.349Z" fill="white"/>
<path d="M28.1907 23.8888H18.5397C18.2592 23.8888 18.0317 23.6614 18.0317 23.3809C18.0317 23.1003 18.2592 22.8729 18.5397 22.8729H28.1907C28.4712 22.8729 28.6987 23.1003 28.6987 23.3809C28.6987 23.6614 28.4712 23.8888 28.1907 23.8888Z" fill="white"/>
<path d="M28.1907 26.4285H18.5397C18.2592 26.4285 18.0317 26.2011 18.0317 25.9205C18.0317 25.64 18.2592 25.4126 18.5397 25.4126H28.1907C28.4712 25.4126 28.6987 25.64 28.6987 25.9205C28.6987 26.2011 28.4712 26.4285 28.1907 26.4285Z" fill="white"/>
<path d="M28.1908 18.8092H22.6034C22.3229 18.8092 22.0955 18.5818 22.0955 18.3013C22.0955 18.0208 22.3229 17.7933 22.6034 17.7933H28.1908C28.4714 17.7933 28.6988 18.0208 28.6988 18.3013C28.6988 18.5818 28.4714 18.8092 28.1908 18.8092Z" fill="white"/>
<path d="M16.0001 20.3331C15.7196 20.3331 15.4922 20.1057 15.4922 19.8252V15.7616C15.4922 15.4811 15.7196 15.2537 16.0001 15.2537C16.2807 15.2537 16.5081 15.4811 16.5081 15.7616V19.8252C16.5081 20.1057 16.2807 20.3331 16.0001 20.3331Z" fill="#00BABA"/>
<defs>
<linearGradient id="paint0_linear_2024_27208" x1="1.26953" y1="21.8569" x2="30.5832" y2="21.8569" gradientUnits="userSpaceOnUse">
<stop stop-color="#02BABA"/>
<stop offset="1" stop-color="#A7E3E3"/>
</linearGradient>
</defs>
</svg>
