<svg width="32" height="32" viewBox="0 0 32 32" fill="none" xmlns="http://www.w3.org/2000/svg">
<path fill-rule="evenodd" clip-rule="evenodd" d="M30.8 9.44968C30.8 7.11108 28.9013 5.2124 26.5626 5.2124H5.43729C3.09863 5.2124 1.19995 7.11108 1.19995 9.44968V17.9243C1.19995 20.263 3.09863 22.1616 5.43729 22.1616H13.4163L15.9915 27.3137L18.5731 22.1616H26.5626C28.9013 22.1616 30.8 20.263 30.8 17.9243V9.44968ZM16 11.7902C16.8712 11.7902 17.5786 12.4976 17.5786 13.3688C17.5786 14.2401 16.8712 14.9475 16 14.9475C15.1287 14.9475 14.4213 14.2401 14.4213 13.3688C14.4213 12.4976 15.1287 11.7902 16 11.7902ZM23.3013 11.7902C24.1726 11.7902 24.88 12.4976 24.88 13.3688C24.88 14.2401 24.1726 14.9475 23.3013 14.9475C22.43 14.9475 21.7226 14.2401 21.7226 13.3688C21.7226 12.4976 22.43 11.7902 23.3013 11.7902ZM8.69862 11.7902C9.56991 11.7902 10.2773 12.4976 10.2773 13.3688C10.2773 14.2401 9.56991 14.9475 8.69862 14.9475C7.82733 14.9475 7.11995 14.2401 7.11995 13.3688C7.11995 12.4976 7.82733 11.7902 8.69862 11.7902Z" fill="url(#paint0_linear_1912_26978)"/>
<defs>
<linearGradient id="paint0_linear_1912_26978" x1="1.19995" y1="16.2631" x2="30.652" y2="16.2631" gradientUnits="userSpaceOnUse">
<stop stop-color="#02BABA"/>
<stop offset="1" stop-color="#A7E3E3"/>
</linearGradient>
</defs>
</svg>
