<svg width="32" height="32" viewBox="0 0 32 32" fill="none" xmlns="http://www.w3.org/2000/svg">
<path fill-rule="evenodd" clip-rule="evenodd" d="M13.2719 18.3423C12.112 17.1844 11.0839 15.9028 10.21 14.521C9.89092 14.0163 9.89429 13.41 10.2188 12.9089L11.4658 10.9835C11.7319 10.5725 11.7827 10.1036 11.6107 9.64533L9.46555 3.92815C9.12965 3.0328 8.06647 2.67853 7.26054 3.19343C6.26308 3.83077 5.26541 4.46811 4.26789 5.10546C2.90215 5.9781 2.26807 7.54676 2.64431 9.12327C3.80224 13.9755 6.32781 18.3422 9.81845 21.7957C13.2719 25.2864 17.6386 27.8119 22.4909 28.9698C24.0674 29.346 25.6361 28.712 26.5087 27.3462C27.1461 26.3488 27.7834 25.351 28.4207 24.3536C28.9356 23.5477 28.5814 22.4845 27.686 22.1486L21.9689 20.0035C21.5106 19.8315 21.0417 19.8823 20.6307 20.1483L18.7053 21.3954C18.2042 21.7199 17.5979 21.7233 17.0932 21.4042C15.7114 20.5302 14.4297 19.5022 13.2719 18.3423Z" fill="url(#paint0_linear_1912_26979)"/>
<path d="M28.9993 12.6509C28.9993 12.8283 28.9288 12.9985 28.8033 13.124C28.6779 13.2495 28.2183 13.32 28.0409 13.32C28.0515 11.9952 27.7997 10.9709 27.3001 9.74391C26.8005 8.51697 26.0629 7.40109 25.1299 6.46061C24.1969 5.52014 23.0869 4.77368 21.864 4.2643C20.641 3.75492 19.6187 3.49268 18.2939 3.49273C18.2939 3.31527 18.3644 2.85575 18.4899 2.73027C18.6154 2.60479 18.7856 2.5343 18.963 2.5343C20.2878 2.53426 21.5995 2.79649 22.8224 3.30588C24.0453 3.81526 25.1553 4.56171 26.0883 5.50219C27.0213 6.44266 27.7589 7.55855 28.2585 8.78549C28.7581 10.0124 29.0099 11.3261 28.9993 12.6509Z" fill="url(#paint1_linear_1912_26979)"/>
<path d="M25.1992 12.4757C25.1992 12.6784 25.1184 12.8727 24.9745 13.0159C24.8306 13.1592 24.6355 13.2397 24.432 13.2397C24.4411 12.4313 24.2891 11.6293 23.9847 10.8798C23.6803 10.1304 23.2297 9.44858 22.6588 8.87378C22.0879 8.29899 21.4082 7.84267 20.6589 7.53126C19.9097 7.21984 19.1058 7.05952 18.2939 7.05957C18.2939 6.85697 18.3748 6.66266 18.5187 6.5194C18.6626 6.37614 18.8577 6.29565 19.0612 6.29565C19.877 6.29051 20.6856 6.44734 21.4398 6.75696C22.194 7.06658 22.8786 7.52278 23.4537 8.0989C24.0288 8.67502 24.4827 9.3595 24.789 10.1123C25.0953 10.8651 25.2478 11.6712 25.2376 12.4834L25.1992 12.4757Z" fill="url(#paint2_linear_1912_26979)"/>
<path d="M21.7466 12.8579C21.7466 12.9592 21.7062 13.0564 21.6342 13.128C21.5623 13.1996 21.4647 13.2399 21.363 13.2399C21.3675 12.8357 21.2915 12.4347 21.1393 12.06C20.9871 11.6853 20.7618 11.3443 20.4764 11.0569C20.1909 10.7696 19.8511 10.5414 19.4764 10.3857C19.1018 10.23 18.6999 10.1498 18.2939 10.1498C18.2939 10.0485 18.3344 9.95139 18.4063 9.87976C18.4783 9.80813 18.5758 9.76788 18.6776 9.76788C19.0855 9.76531 19.4898 9.84373 19.8669 9.99854C20.244 10.1533 20.5863 10.3814 20.8738 10.6695C21.1614 10.9576 21.3883 11.2998 21.5415 11.6762C21.6946 12.0526 21.7709 12.4557 21.7658 12.8618L21.7466 12.8579Z" fill="url(#paint3_linear_1912_26979)"/>
<path fill-rule="evenodd" clip-rule="evenodd" d="M24.2504 27.2107C19.3981 26.0527 15.0315 23.5272 11.578 20.0365C8.08727 16.5831 5.5617 12.2164 4.40382 7.36408C4.19353 6.48295 4.29886 5.60425 4.6712 4.84814C4.53675 4.93404 4.40235 5.01994 4.26789 5.10583C2.90215 5.97848 2.26807 7.54714 2.64431 9.12364C3.80224 13.9759 6.32781 18.3426 9.81845 21.796C13.2719 25.2867 17.6386 27.8123 22.4909 28.9702C24.0674 29.3464 25.6361 28.7123 26.5087 27.3466C26.5946 27.2122 26.6805 27.0778 26.7664 26.9433C26.0103 27.3156 25.1315 27.421 24.2504 27.2107Z" fill="#00BABA"/>
<defs>
<linearGradient id="paint0_linear_1912_26979" x1="2.53735" y1="16.016" x2="28.5282" y2="16.016" gradientUnits="userSpaceOnUse">
<stop stop-color="#50CCCC"/>
<stop offset="1" stop-color="#B7EBEB"/>
</linearGradient>
<linearGradient id="paint1_linear_1912_26979" x1="18.2939" y1="7.92713" x2="28.9461" y2="7.92713" gradientUnits="userSpaceOnUse">
<stop stop-color="#02BABA"/>
<stop offset="1" stop-color="#A7E3E3"/>
</linearGradient>
<linearGradient id="paint2_linear_1912_26979" x1="18.2939" y1="9.7676" x2="25.2034" y2="9.7676" gradientUnits="userSpaceOnUse">
<stop stop-color="#02BABA"/>
<stop offset="1" stop-color="#A7E3E3"/>
</linearGradient>
<linearGradient id="paint3_linear_1912_26979" x1="18.2939" y1="11.5039" x2="21.7487" y2="11.5039" gradientUnits="userSpaceOnUse">
<stop stop-color="#02BABA"/>
<stop offset="1" stop-color="#A7E3E3"/>
</linearGradient>
</defs>
</svg>
