<svg width="32" height="32" viewBox="0 0 32 32" fill="none" xmlns="http://www.w3.org/2000/svg">
<path d="M29.0724 6.07946L15.9998 19.1046L2.92725 6.07946C3.12281 6.00835 3.33614 5.96094 3.55539 5.96094H28.4443C28.6635 5.96094 28.8769 6.00835 29.0724 6.07946Z" fill="#BABABA"/>
<path opacity="0.8" fill-rule="evenodd" clip-rule="evenodd" d="M1.77783 7.73843C1.77783 7.4911 1.82966 7.25553 1.92197 7.04102L10.8482 15.9323L1.89574 24.8785C1.82301 24.685 1.77783 24.478 1.77783 24.2599V7.73843ZM16.0001 20.7769C16.1782 20.7769 16.3563 20.7092 16.4922 20.5738L20.1138 16.9664L29.0665 25.9188C28.872 25.9923 28.6639 26.0377 28.4445 26.0377H3.55561C3.33476 26.0377 3.1252 25.9919 2.92967 25.9175L11.8867 16.9668L15.5079 20.5738C15.6438 20.7092 15.822 20.7769 16.0001 20.7769ZM21.1511 15.9329L30.0779 7.04102C30.1702 7.25553 30.222 7.4911 30.222 7.73843V24.2599C30.222 24.4801 30.1764 24.6889 30.1024 24.884L21.1511 15.9329Z" fill="url(#paint0_linear_1771_35110)"/>
<defs>
<linearGradient id="paint0_linear_1771_35110" x1="1.77783" y1="16.5394" x2="30.0798" y2="16.5394" gradientUnits="userSpaceOnUse">
<stop stop-color="#BABABA"/>
<stop offset="1" stop-color="#E3E3E3"/>
</linearGradient>
</defs>
</svg>
