<svg width="72" height="72" viewBox="0 0 72 72" fill="none" xmlns="http://www.w3.org/2000/svg">
<path fill-rule="evenodd" clip-rule="evenodd" d="M69.2992 21.2619C69.2992 16 65.0272 11.728 59.7652 11.728H12.2332C6.97124 11.728 2.69922 16 2.69922 21.2619V40.3298C2.69922 45.5918 6.97124 49.8638 12.2332 49.8638H30.1859L35.9803 61.456L41.7888 49.8638H59.7652C65.0272 49.8638 69.2992 45.5918 69.2992 40.3298V21.2619ZM35.9992 26.528C37.9596 26.528 39.5512 28.1196 39.5512 30.08C39.5512 32.0404 37.9596 33.632 35.9992 33.632C34.0388 33.632 32.4472 32.0404 32.4472 30.08C32.4472 28.1196 34.0388 26.528 35.9992 26.528ZM52.4272 26.528C54.3876 26.528 55.9792 28.1196 55.9792 30.08C55.9792 32.0404 54.3876 33.632 52.4272 33.632C50.4668 33.632 48.8752 32.0404 48.8752 30.08C48.8752 28.1196 50.4668 26.528 52.4272 26.528ZM19.5712 26.528C21.5316 26.528 23.1232 28.1196 23.1232 30.08C23.1232 32.0404 21.5316 33.632 19.5712 33.632C17.6108 33.632 16.0192 32.0404 16.0192 30.08C16.0192 28.1196 17.6108 26.528 19.5712 26.528Z" fill="url(#paint0_linear_1793_26544)"/>
<defs>
<linearGradient id="paint0_linear_1793_26544" x1="2.69922" y1="36.592" x2="68.9662" y2="36.592" gradientUnits="userSpaceOnUse">
<stop stop-color="#BABABA"/>
<stop offset="1" stop-color="#E3E3E3"/>
</linearGradient>
</defs>
</svg>
