<svg width="32" height="32" viewBox="0 0 32 32" fill="none" xmlns="http://www.w3.org/2000/svg">
<path fill-rule="evenodd" clip-rule="evenodd" d="M30.8002 9.45016C30.8002 7.11157 28.9015 5.21289 26.5629 5.21289H5.43753C3.09887 5.21289 1.2002 7.11157 1.2002 9.45016V17.9248C1.2002 20.2634 3.09887 22.1621 5.43753 22.1621H13.4165L15.9918 27.3142L18.5734 22.1621H26.5629C28.9015 22.1621 30.8002 20.2634 30.8002 17.9248V9.45016ZM16.0002 11.7907C16.8715 11.7907 17.5789 12.498 17.5789 13.3693C17.5789 14.2406 16.8715 14.948 16.0002 14.948C15.1289 14.948 14.4215 14.2406 14.4215 13.3693C14.4215 12.498 15.1289 11.7907 16.0002 11.7907ZM23.3015 11.7907C24.1728 11.7907 24.8802 12.498 24.8802 13.3693C24.8802 14.2406 24.1728 14.948 23.3015 14.948C22.4302 14.948 21.7229 14.2406 21.7229 13.3693C21.7229 12.498 22.4302 11.7907 23.3015 11.7907ZM8.69886 11.7907C9.57016 11.7907 10.2775 12.498 10.2775 13.3693C10.2775 14.2406 9.57016 14.948 8.69886 14.948C7.82757 14.948 7.1202 14.2406 7.1202 13.3693C7.1202 12.498 7.82757 11.7907 8.69886 11.7907Z" fill="url(#paint0_linear_1771_35117)"/>
<defs>
<linearGradient id="paint0_linear_1771_35117" x1="1.2002" y1="16.2636" x2="30.6522" y2="16.2636" gradientUnits="userSpaceOnUse">
<stop stop-color="#BABABA"/>
<stop offset="1" stop-color="#E3E3E3"/>
</linearGradient>
</defs>
</svg>
