<svg width="72" height="72" viewBox="0 0 72 72" fill="none" xmlns="http://www.w3.org/2000/svg">
<path fill-rule="evenodd" clip-rule="evenodd" d="M36.6102 19.4374C40.519 19.3716 44.2961 20.8492 47.1227 23.5498L55.0102 15.6623C50.0326 10.9873 43.4386 8.42052 36.6102 8.49983C26.2126 8.49584 16.7025 14.3586 12.0352 23.6499L21.2227 30.7748C23.3891 24.0864 29.5802 19.5248 36.6102 19.4374ZM12.0344 23.6497C8.13437 31.4211 8.13437 40.5782 12.0344 48.3496L21.2218 41.2247C20.072 37.8362 20.072 34.1631 21.2218 30.7747L12.0344 23.6497ZM22.9989 44.9372C27.9483 52.6482 38.2117 54.8869 45.9227 49.9375L54.8101 56.8375C49.8151 61.2981 43.3045 63.6814 36.6102 63.4999C26.2126 63.5039 16.7024 57.6411 12.0352 48.3498L21.2225 41.2249C21.6583 42.5312 22.255 43.7783 22.9989 44.9372Z" fill="url(#paint0_linear_1793_26545)"/>
<path d="M62.5093 31H36.6094V41.6374H51.4092C50.7905 45.0375 48.808 48.0364 45.9218 49.9375L54.8092 56.8377C60.2825 51.5661 63.2627 44.2199 63.0093 36.625C63.0108 34.7388 62.8435 32.8564 62.5093 31Z" fill="#BABABA"/>
<defs>
<linearGradient id="paint0_linear_1793_26545" x1="9.10938" y1="36.0038" x2="54.7807" y2="36.0038" gradientUnits="userSpaceOnUse">
<stop stop-color="#BABABA"/>
<stop offset="1" stop-color="#E3E3E3"/>
</linearGradient>
</defs>
</svg>
