<svg width="72" height="72" viewBox="0 0 72 72" fill="none" xmlns="http://www.w3.org/2000/svg">
<path d="M65.4126 13.6798L35.9993 42.9864L6.58594 13.6798C7.02596 13.5198 7.50594 13.4131 7.99927 13.4131H63.9993C64.4926 13.4131 64.9726 13.5198 65.4126 13.6798Z" fill="#BABABA"/>
<path opacity="0.8" fill-rule="evenodd" clip-rule="evenodd" d="M4 17.4134C4 16.8569 4.11662 16.3269 4.3243 15.8442L24.4083 35.8497L4.2653 55.9787C4.10164 55.5432 4 55.0776 4 54.5868V17.4134ZM36 46.7501C36.4007 46.7501 36.8015 46.5977 37.1074 46.293L45.2559 38.1764L65.3994 58.3192C64.9619 58.4846 64.4936 58.5868 64 58.5868H8C7.50309 58.5868 7.03158 58.4838 6.59163 58.3163L26.7449 38.1772L34.8926 46.293C35.1985 46.5977 35.5993 46.7501 36 46.7501ZM47.5898 35.851L67.6751 15.8442C67.8828 16.3269 67.9994 16.8569 67.9994 17.4134V54.5868C67.9994 55.0821 67.8968 55.5521 67.7303 55.9909L47.5898 35.851Z" fill="url(#paint0_linear_1793_26543)"/>
<defs>
<linearGradient id="paint0_linear_1793_26543" x1="4" y1="37.2155" x2="67.6794" y2="37.2155" gradientUnits="userSpaceOnUse">
<stop stop-color="#BABABA"/>
<stop offset="1" stop-color="#E3E3E3"/>
</linearGradient>
</defs>
</svg>
