<svg width="32" height="32" viewBox="0 0 32 32" fill="none" xmlns="http://www.w3.org/2000/svg">
<path fill-rule="evenodd" clip-rule="evenodd" d="M16.2714 8.63926C18.0086 8.61003 19.6874 9.26676 20.9436 10.467L24.4492 6.96148C22.2369 4.8837 19.3062 3.74289 16.2714 3.77814C11.6503 3.77636 7.42354 6.38204 5.34918 10.5115L9.43252 13.6781C10.3954 10.7055 13.147 8.67814 16.2714 8.63926ZM5.34884 10.5114C3.61549 13.9654 3.61549 18.0352 5.34884 21.4892L9.43212 18.3225C8.92109 16.8165 8.92109 15.184 9.43212 13.6781L5.34884 10.5114ZM10.2219 19.9725C12.4217 23.3997 16.9832 24.3946 20.4103 22.1949L24.3603 25.2615C22.1403 27.244 19.2467 28.3033 16.2714 28.2226C11.6502 28.2244 7.42351 25.6187 5.34918 21.4892L9.43246 18.3226C9.62612 18.9032 9.89132 19.4574 10.2219 19.9725Z" fill="url(#paint0_linear_1771_35095)"/>
<path d="M27.7826 13.7783H16.2715V18.5061H22.8492C22.5742 20.0172 21.6931 21.3501 20.4104 22.195L24.3603 25.2617C26.7929 22.9188 28.1174 19.6538 28.0048 16.2783C28.0055 15.44 27.9311 14.6034 27.7826 13.7783Z" fill="#BABABA"/>
<defs>
<linearGradient id="paint0_linear_1771_35095" x1="4.04883" y1="16.0021" x2="24.3472" y2="16.0021" gradientUnits="userSpaceOnUse">
<stop stop-color="#BABABA"/>
<stop offset="1" stop-color="#E3E3E3"/>
</linearGradient>
</defs>
</svg>
