<svg width="32" height="32" viewBox="0 0 32 32" fill="none" xmlns="http://www.w3.org/2000/svg">
<path fill-rule="evenodd" clip-rule="evenodd" d="M13.2717 18.342C12.1117 17.1842 11.0836 15.9026 10.2098 14.5207C9.89067 14.0161 9.89404 13.4097 10.2185 12.9087L11.4656 10.9833C11.7317 10.5723 11.7824 10.1034 11.6104 9.64509L9.4653 3.9279C9.12941 3.03256 8.06622 2.67828 7.2603 3.19318C6.26284 3.83053 5.26516 4.46787 4.26765 5.10521C2.90191 5.97786 2.26783 7.54652 2.64406 9.12302C3.80199 13.9753 6.32756 18.342 9.81821 21.7954C13.2717 25.2861 17.6383 27.8117 22.4907 28.9696C24.0671 29.3458 25.6358 28.7117 26.5085 27.346C27.1458 26.3485 27.7832 25.3508 28.4205 24.3533C28.9354 23.5474 28.5811 22.4842 27.6858 22.1483L21.9687 20.0033C21.5103 19.8313 21.0414 19.882 20.6305 20.1481L18.705 21.3952C18.204 21.7196 17.5977 21.723 17.093 21.4039C15.7111 20.53 14.4295 19.5019 13.2717 18.342Z" fill="url(#paint0_linear_1789_25162)"/>
<path d="M28.9993 12.6507C28.9993 12.8282 28.9288 12.9984 28.8033 13.1239C28.6779 13.2493 28.2183 13.3198 28.0409 13.3198C28.0515 11.9951 27.7997 10.9707 27.3001 9.74379C26.8005 8.51685 26.0629 7.40097 25.1299 6.46049C24.1969 5.52002 23.0869 4.77356 21.864 4.26418C20.641 3.75479 19.6187 3.49256 18.2939 3.4926C18.2939 3.31515 18.3644 2.85563 18.4899 2.73015C18.6154 2.60467 18.7856 2.53418 18.963 2.53418C20.2878 2.53414 21.5995 2.79637 22.8224 3.30575C24.0453 3.81514 25.1553 4.56159 26.0883 5.50207C27.0213 6.44254 27.7589 7.55843 28.2585 8.78537C28.7581 10.0123 29.0099 11.326 28.9993 12.6507Z" fill="url(#paint1_linear_1789_25162)"/>
<path d="M25.1992 12.4751C25.1992 12.6777 25.1184 12.872 24.9745 13.0153C24.8306 13.1586 24.6355 13.2391 24.432 13.2391C24.4411 12.4307 24.2891 11.6286 23.9847 10.8792C23.6803 10.1298 23.2297 9.44796 22.6588 8.87317C22.0879 8.29838 21.4082 7.84206 20.6589 7.53065C19.9097 7.21923 19.1058 7.05891 18.2939 7.05896C18.2939 6.85636 18.3748 6.66205 18.5187 6.51879C18.6626 6.37553 18.8577 6.29504 19.0612 6.29504C19.877 6.2899 20.6856 6.44673 21.4398 6.75635C22.194 7.06597 22.8786 7.52217 23.4537 8.09829C24.0288 8.67441 24.4827 9.35889 24.789 10.1117C25.0953 10.8645 25.2478 11.6706 25.2376 12.4828L25.1992 12.4751Z" fill="url(#paint2_linear_1789_25162)"/>
<path d="M21.7466 12.8577C21.7466 12.959 21.7062 13.0561 21.6342 13.1278C21.5623 13.1994 21.4647 13.2396 21.363 13.2396C21.3675 12.8355 21.2915 12.4344 21.1393 12.0597C20.9871 11.685 20.7618 11.3441 20.4764 11.0567C20.1909 10.7693 19.8511 10.5411 19.4764 10.3854C19.1018 10.2297 18.6999 10.1496 18.2939 10.1496C18.2939 10.0483 18.3344 9.95114 18.4063 9.87951C18.4783 9.80788 18.5758 9.76764 18.6776 9.76764C19.0855 9.76507 19.4898 9.84348 19.8669 9.99829C20.244 10.1531 20.5863 10.3812 20.8738 10.6693C21.1614 10.9573 21.3883 11.2996 21.5415 11.676C21.6946 12.0524 21.7709 12.4554 21.7658 12.8615L21.7466 12.8577Z" fill="url(#paint3_linear_1789_25162)"/>
<path fill-rule="evenodd" clip-rule="evenodd" d="M24.2502 27.2102C19.3979 26.0523 15.0312 23.5267 11.5778 20.036C8.08702 16.5826 5.56145 12.2159 4.40358 7.36359C4.19329 6.48246 4.29862 5.60376 4.67095 4.84766C4.5365 4.93355 4.4021 5.01945 4.26765 5.10534C2.90191 5.97799 2.26783 7.54665 2.64406 9.12316C3.80199 13.9754 6.32756 18.3422 9.8182 21.7956C13.2717 25.2863 17.6383 27.8118 22.4907 28.9697C24.0671 29.3459 25.6358 28.7119 26.5085 27.3461C26.5944 27.2117 26.6803 27.0773 26.7662 26.9428C26.01 27.3151 25.1313 27.4205 24.2502 27.2102Z" fill="#00BABA"/>
<defs>
<linearGradient id="paint0_linear_1789_25162" x1="2.53711" y1="16.0158" x2="28.528" y2="16.0158" gradientUnits="userSpaceOnUse">
<stop stop-color="#50CCCC"/>
<stop offset="1" stop-color="#B7EBEB"/>
</linearGradient>
<linearGradient id="paint1_linear_1789_25162" x1="18.2939" y1="7.92701" x2="28.9461" y2="7.92701" gradientUnits="userSpaceOnUse">
<stop stop-color="#02BABA"/>
<stop offset="1" stop-color="#A7E3E3"/>
</linearGradient>
<linearGradient id="paint2_linear_1789_25162" x1="18.2939" y1="9.76699" x2="25.2034" y2="9.76699" gradientUnits="userSpaceOnUse">
<stop stop-color="#02BABA"/>
<stop offset="1" stop-color="#A7E3E3"/>
</linearGradient>
<linearGradient id="paint3_linear_1789_25162" x1="18.2939" y1="11.5036" x2="21.7487" y2="11.5036" gradientUnits="userSpaceOnUse">
<stop stop-color="#02BABA"/>
<stop offset="1" stop-color="#A7E3E3"/>
</linearGradient>
</defs>
</svg>
