<svg width="32" height="32" viewBox="0 0 32 32" fill="none" xmlns="http://www.w3.org/2000/svg">
<path fill-rule="evenodd" clip-rule="evenodd" d="M16.2966 7.96992C18.1918 7.93804 20.0231 8.65447 21.3936 9.96385L25.2178 6.13961C22.8044 3.87295 19.6073 2.62843 16.2966 2.66688C11.2554 2.66495 6.6444 5.50751 4.38145 10.0123L8.83601 13.4669C9.88641 10.224 12.8881 8.01233 16.2966 7.96992ZM4.38108 10.0123C2.49016 13.7802 2.49016 18.22 4.38108 21.988L8.83557 18.5335C8.27808 16.8906 8.27808 15.1097 8.83557 13.4668L4.38108 10.0123ZM9.69718 20.3335C12.0969 24.0722 17.0731 25.1576 20.8118 22.7579L25.1208 26.1033C22.699 28.266 19.5423 29.4216 16.2966 29.3336C11.2553 29.3355 6.64436 26.4929 4.38145 21.9881L8.83594 18.5336C9.04721 19.167 9.33652 19.7716 9.69718 20.3335Z" fill="url(#paint0_linear_1771_33442)"/>
<path d="M28.8525 13.5762H16.2949V18.7337H23.4706C23.1706 20.3822 22.2094 21.8363 20.8101 22.758L25.1191 26.1035C27.7728 23.5476 29.2178 19.9858 29.0949 16.3035C29.0956 15.3889 29.0145 14.4762 28.8525 13.5762Z" fill="#00BABA"/>
<defs>
<linearGradient id="paint0_linear_1771_33442" x1="2.96289" y1="16.0021" x2="25.1066" y2="16.0021" gradientUnits="userSpaceOnUse">
<stop stop-color="#02BABA"/>
<stop offset="1" stop-color="#A7E3E3"/>
</linearGradient>
</defs>
</svg>
