<svg width="72" height="72" viewBox="0 0 72 72" fill="none" xmlns="http://www.w3.org/2000/svg">
<path fill-rule="evenodd" clip-rule="evenodd" d="M30.2939 40.8311C27.8849 38.4265 25.7497 35.7647 23.9348 32.895C23.2721 31.8468 23.2791 30.5876 23.953 29.547L26.543 25.5483C27.0955 24.6947 27.201 23.7208 26.8438 22.769L22.3887 10.8954C21.6911 9.03591 19.483 8.30014 17.8093 9.3695C15.7377 10.6932 13.6657 12.0168 11.594 13.3405C8.75762 15.1528 7.44075 18.4107 8.22212 21.6848C10.627 31.7622 15.8721 40.831 23.1216 48.0033C30.2939 55.2529 39.3627 60.498 49.4402 62.9028C52.7142 63.6841 55.9722 62.3673 57.7845 59.5308C59.1082 57.4593 60.4318 55.3872 61.7555 53.3156C62.8249 51.6418 62.0891 49.4338 60.2296 48.7362L48.3561 44.2812C47.4042 43.924 46.4304 44.0295 45.5769 44.582L41.5781 47.172C40.5375 47.8459 39.2783 47.8529 38.2301 47.1902C35.3602 45.3752 32.6985 43.2401 30.2939 40.8311Z" fill="url(#paint0_linear_1793_25199)"/>
<path d="M62.9579 29.0104C62.9579 29.379 62.8115 29.7324 62.5509 29.993C62.2903 30.2536 61.3359 30.4 60.9674 30.4C60.9894 27.6488 60.4665 25.5213 59.4289 22.9732C58.3912 20.425 56.8594 18.1075 54.9217 16.1543C52.984 14.2011 50.6787 12.6508 48.1389 11.5929C45.5991 10.535 43.4759 9.9904 40.7246 9.99049C40.7246 9.62195 40.871 8.66759 41.1316 8.407C41.3922 8.1464 41.7456 8 42.1142 8C44.8655 7.99991 47.5896 8.54453 50.1294 9.60243C52.6692 10.6603 54.9745 12.2106 56.9122 14.1638C58.8499 16.117 60.3817 18.4345 61.4193 20.9827C62.457 23.5308 62.9799 26.2592 62.9579 29.0104Z" fill="url(#paint1_linear_1793_25199)"/>
<path d="M55.0657 28.647C55.0657 29.0678 54.8979 29.4714 54.599 29.7689C54.3002 30.0664 53.8949 30.2336 53.4723 30.2336C53.4913 28.5548 53.1755 26.889 52.5434 25.3326C51.9113 23.7762 50.9753 22.3601 49.7897 21.1664C48.604 19.9726 47.1923 19.0249 45.6363 18.3782C44.0802 17.7314 42.4108 17.3984 40.7246 17.3986C40.7246 16.9778 40.8925 16.5742 41.1913 16.2767C41.4902 15.9792 41.8955 15.812 42.3181 15.812C44.0123 15.8013 45.6917 16.127 47.258 16.7701C48.8244 17.4131 50.2463 18.3606 51.4406 19.5571C52.6349 20.7536 53.5777 22.1751 54.2138 23.7386C54.8499 25.3021 55.1666 26.9761 55.1454 28.6629L55.0657 28.647Z" fill="url(#paint2_linear_1793_25199)"/>
<path d="M47.8952 29.4403C47.8952 29.6507 47.8112 29.8525 47.6618 30.0013C47.5124 30.15 47.3098 30.2336 47.0984 30.2336C47.1079 29.3942 46.9501 28.5613 46.634 27.7831C46.3179 27.0049 45.8499 26.2969 45.2571 25.7C44.6643 25.1031 43.9585 24.6293 43.1804 24.3059C42.4024 23.9825 41.5677 23.816 40.7246 23.8161C40.7246 23.6057 40.8085 23.4039 40.958 23.2552C41.1074 23.1064 41.31 23.0228 41.5213 23.0228C42.3685 23.0175 43.2081 23.1803 43.9913 23.5019C44.7745 23.8234 45.4854 24.2971 46.0826 24.8954C46.6797 25.4936 47.1511 26.2044 47.4692 26.9861C47.7873 27.7679 47.9456 28.6049 47.935 29.4483L47.8952 29.4403Z" fill="url(#paint3_linear_1793_25199)"/>
<path fill-rule="evenodd" clip-rule="evenodd" d="M53.0944 59.2489C43.017 56.8441 33.9482 51.5989 26.776 44.3494C19.5262 37.1772 14.2811 28.1083 11.8763 18.0308C11.4396 16.2009 11.6584 14.376 12.4316 12.8057C12.1524 12.9841 11.8733 13.1624 11.594 13.3408C8.75762 15.1532 7.44075 18.411 8.22212 21.6852C10.627 31.7625 15.8721 40.8315 23.1216 48.0036C30.2939 55.2532 39.3627 60.4984 49.4402 62.9031C52.7142 63.6845 55.9722 62.3676 57.7845 59.5312C57.9629 59.252 58.1413 58.9729 58.3197 58.6936C56.7493 59.4669 54.9244 59.6857 53.0944 59.2489Z" fill="#00BABA"/>
<defs>
<linearGradient id="paint0_linear_1793_25199" x1="8" y1="35.9999" x2="61.9787" y2="35.9999" gradientUnits="userSpaceOnUse">
<stop stop-color="#50CCCC"/>
<stop offset="1" stop-color="#B7EBEB"/>
</linearGradient>
<linearGradient id="paint1_linear_1793_25199" x1="40.7246" y1="19.2" x2="62.8474" y2="19.2" gradientUnits="userSpaceOnUse">
<stop stop-color="#02BABA"/>
<stop offset="1" stop-color="#A7E3E3"/>
</linearGradient>
<linearGradient id="paint2_linear_1793_25199" x1="40.7246" y1="23.0227" x2="55.0743" y2="23.0227" gradientUnits="userSpaceOnUse">
<stop stop-color="#02BABA"/>
<stop offset="1" stop-color="#A7E3E3"/>
</linearGradient>
<linearGradient id="paint3_linear_1793_25199" x1="40.7246" y1="26.6282" x2="47.8995" y2="26.6282" gradientUnits="userSpaceOnUse">
<stop stop-color="#02BABA"/>
<stop offset="1" stop-color="#A7E3E3"/>
</linearGradient>
</defs>
</svg>
