<svg width="24" height="24" viewBox="0 0 24 24" fill="none" xmlns="http://www.w3.org/2000/svg">
<path d="M14.8752 16.9686H12.9731V10.7731C12.9731 10.6606 12.8807 10.5686 12.7677 10.5686H11.2275C11.1146 10.5686 11.0222 10.6606 11.0222 10.7731V16.9686H9.12521C8.95322 16.9686 8.85824 17.1655 8.96349 17.2984L11.8385 20.9216C11.8577 20.946 11.8822 20.9658 11.9103 20.9794C11.9383 20.993 11.969 21.0001 12.0002 21.0001C12.0314 21.0001 12.0621 20.993 12.0902 20.9794C12.1182 20.9658 12.1427 20.946 12.1619 20.9216L15.0369 17.2984C15.1422 17.1655 15.0472 16.9686 14.8752 16.9686Z" fill="#00BABA"/>
<path d="M19.6855 8.28517C18.5098 5.1964 15.5142 3 12.0051 3C8.49609 3 5.50045 5.19385 4.32478 8.28262C2.12489 8.85792 0.5 10.8549 0.5 13.2277C0.5 16.0531 2.79743 18.3416 5.63136 18.3416H6.66071C6.77366 18.3416 6.86607 18.2495 6.86607 18.137V16.6029C6.86607 16.4904 6.77366 16.3983 6.66071 16.3983H5.63136C4.76629 16.3983 3.95257 16.0557 3.34676 15.4343C2.74353 14.8156 2.42266 13.982 2.45089 13.1178C2.474 12.4427 2.70502 11.8086 3.12344 11.2742C3.55212 10.7296 4.15279 10.3333 4.8202 10.1568L5.79308 9.90371L6.14989 8.96787C6.37065 8.38489 6.67868 7.84027 7.06629 7.34678C7.44896 6.85766 7.90224 6.42769 8.41138 6.07087C9.46641 5.33192 10.7088 4.94071 12.0051 4.94071C13.3015 4.94071 14.5439 5.33192 15.5989 6.07087C16.1097 6.42884 16.5615 6.85841 16.944 7.34678C17.3316 7.84027 17.6396 8.38745 17.8604 8.96787L18.2146 9.90115L19.1849 10.1568C20.5762 10.5302 21.5491 11.7907 21.5491 13.2277C21.5491 14.0741 21.218 14.8718 20.6173 15.4701C20.3227 15.7653 19.9723 15.9993 19.5863 16.1586C19.2003 16.3179 18.7864 16.3994 18.3686 16.3983H17.3393C17.2263 16.3983 17.1339 16.4904 17.1339 16.6029V18.137C17.1339 18.2495 17.2263 18.3416 17.3393 18.3416H18.3686C21.2026 18.3416 23.5 16.0531 23.5 13.2277C23.5 10.8574 21.8802 8.86304 19.6855 8.28517Z" fill="#00BABA"/>
</svg>
