<svg width="24" height="24" viewBox="0 0 24 24" fill="none" xmlns="http://www.w3.org/2000/svg">
<path fill-rule="evenodd" clip-rule="evenodd" d="M16.2319 9.219C16.3017 9.28867 16.3572 9.37143 16.395 9.46255C16.4328 9.55366 16.4522 9.65135 16.4522 9.75C16.4522 9.84865 16.4328 9.94633 16.395 10.0374C16.3572 10.1286 16.3017 10.2113 16.2319 10.281L11.7319 14.781C11.6622 14.8508 11.5795 14.9063 11.4883 14.9441C11.3972 14.9819 11.2996 15.0013 11.2009 15.0013C11.1022 15.0013 11.0046 14.9819 10.9134 14.9441C10.8223 14.9063 10.7396 14.8508 10.6699 14.781L8.4199 12.531C8.35017 12.4613 8.29485 12.3785 8.25711 12.2874C8.21938 12.1963 8.19995 12.0986 8.19995 12C8.19995 11.9014 8.21938 11.8037 8.25711 11.7126C8.29485 11.6215 8.35017 11.5387 8.4199 11.469C8.48963 11.3993 8.57241 11.344 8.66352 11.3062C8.75463 11.2685 8.85228 11.2491 8.9509 11.2491C9.04951 11.2491 9.14717 11.2685 9.23827 11.3062C9.32938 11.344 9.41217 11.3993 9.4819 11.469L11.2009 13.1895L15.1699 9.219C15.2396 9.14915 15.3223 9.09374 15.4134 9.05593C15.5046 9.01812 15.6022 8.99866 15.7009 8.99866C15.7996 8.99866 15.8972 9.01812 15.9883 9.05593C16.0795 9.09374 16.1622 9.14915 16.2319 9.219V9.219Z" fill="#70798E" stroke="#70798E" stroke-width="0.5"/>
<path d="M15.1257 4.45462L13.8592 3.15649L14.8424 2.19664L15.6977 3.0726L16.9216 3.05748C17.4514 3.05121 17.9771 3.15093 18.4677 3.35078C18.9584 3.55063 19.4042 3.84657 19.7788 4.2212C20.1534 4.59583 20.4494 5.04159 20.6492 5.53226C20.8491 6.02293 20.9488 6.54861 20.9425 7.07838L20.9288 8.30225L21.8034 9.15759C22.1822 9.52774 22.4831 9.96986 22.6886 10.458C22.8941 10.9461 23 11.4704 23 12C23 12.5296 22.8941 13.0539 22.6886 13.542C22.4831 14.0301 22.1822 14.4723 21.8034 14.8424L20.9274 15.6977L20.9425 16.9216C20.9488 17.4514 20.8491 17.9771 20.6492 18.4677C20.4494 18.9584 20.1534 19.4042 19.7788 19.7788C19.4042 20.1534 18.9584 20.4494 18.4677 20.6492C17.9771 20.8491 17.4514 20.9488 16.9216 20.9425L15.6977 20.9288L14.8424 21.8034C14.4723 22.1822 14.0301 22.4831 13.542 22.6886C13.0539 22.8941 12.5296 23 12 23C11.4704 23 10.9461 22.8941 10.458 22.6886C9.96986 22.4831 9.52774 22.1822 9.15759 21.8034L8.30225 20.9274L7.07838 20.9425C6.54861 20.9488 6.02293 20.8491 5.53226 20.6492C5.04159 20.4494 4.59583 20.1534 4.2212 19.7788C3.84657 19.4042 3.55063 18.9584 3.35078 18.4677C3.15093 17.9771 3.05121 17.4514 3.05748 16.9216L3.07123 15.6977L2.19664 14.8424C1.81784 14.4723 1.51685 14.0301 1.31136 13.542C1.10586 13.0539 1 12.5296 1 12C1 11.4704 1.10586 10.9461 1.31136 10.458C1.51685 9.96986 1.81784 9.52774 2.19664 9.15759L3.0726 8.30225L3.05748 7.07838C3.05121 6.54861 3.15093 6.02293 3.35078 5.53226C3.55063 5.04159 3.84657 4.59583 4.2212 4.2212C4.59583 3.84657 5.04159 3.55063 5.53226 3.35078C6.02293 3.15093 6.54861 3.05121 7.07838 3.05748L8.30225 3.07123L9.15759 2.19664C9.52774 1.81784 9.96986 1.51685 10.458 1.31136C10.9461 1.10586 11.4704 1 12 1C12.5296 1 13.0539 1.10586 13.542 1.31136C14.0301 1.51685 14.4723 1.81784 14.8424 2.19664L13.8592 3.15649C13.6171 2.90867 13.3279 2.71175 13.0087 2.5773C12.6894 2.44285 12.3464 2.37359 12 2.37359C11.6536 2.37359 11.3106 2.44285 10.9914 2.5773C10.6721 2.71175 10.3829 2.90867 10.1408 3.15649L8.87569 4.45462L7.0605 4.43261C6.71421 4.42874 6.37064 4.49412 6.04997 4.6249C5.7293 4.75568 5.438 4.94922 5.19319 5.19417C4.94837 5.43911 4.75498 5.73051 4.62437 6.05125C4.49376 6.37198 4.42856 6.71559 4.43261 7.06188L4.45462 8.87431L3.15649 10.1408C2.90867 10.3829 2.71175 10.6721 2.5773 10.9914C2.44285 11.3106 2.37359 11.6536 2.37359 12C2.37359 12.3464 2.44285 12.6894 2.5773 13.0087C2.71175 13.3279 2.90867 13.6171 3.15649 13.8592L4.45462 15.1243L4.43261 16.9395C4.42874 17.2858 4.49412 17.6294 4.6249 17.95C4.75568 18.2707 4.94922 18.562 5.19417 18.8068C5.43911 19.0516 5.73051 19.245 6.05125 19.3756C6.37198 19.5062 6.71559 19.5714 7.06188 19.5674L8.87431 19.5454L10.1408 20.8435C10.3829 21.0913 10.6721 21.2883 10.9914 21.4227C11.3106 21.5571 11.6536 21.6264 12 21.6264C12.3464 21.6264 12.6894 21.5571 13.0087 21.4227C13.3279 21.2883 13.6171 21.0913 13.8592 20.8435L15.1243 19.5454L16.9395 19.5674C17.2858 19.5713 17.6294 19.5059 17.95 19.3751C18.2707 19.2443 18.562 19.0508 18.8068 18.8058C19.0516 18.5609 19.245 18.2695 19.3756 17.9488C19.5062 17.628 19.5714 17.2844 19.5674 16.9381L19.5454 15.1257L20.8435 13.8592C21.0913 13.6171 21.2883 13.3279 21.4227 13.0087C21.5571 12.6894 21.6264 12.3464 21.6264 12C21.6264 11.6536 21.5571 11.3106 21.4227 10.9914C21.2883 10.6721 21.0913 10.3829 20.8435 10.1408L19.5454 8.87569L19.5674 7.0605C19.5713 6.71421 19.5059 6.37064 19.3751 6.04997C19.2443 5.7293 19.0508 5.438 18.8058 5.19319C18.5609 4.94837 18.2695 4.75498 17.9488 4.62437C17.628 4.49376 17.2844 4.42856 16.9381 4.43261L15.1257 4.45462V4.45462Z" fill="#70798E" stroke="#70798E" stroke-width="0.8"/>
</svg>
